<?xml version="1.0" encoding="utf-8" standalone="no"?>
<!DOCTYPE svg PUBLIC "-//W3C//DTD SVG 1.1//EN"
  "http://www.w3.org/Graphics/SVG/1.1/DTD/svg11.dtd">
<svg xmlns:xlink="http://www.w3.org/1999/xlink" width="503.148936pt" height="446.97pt" viewBox="0 0 503.148936 446.97" xmlns="http://www.w3.org/2000/svg" version="1.1">
 <metadata>
  <rdf:RDF xmlns:dc="http://purl.org/dc/elements/1.1/" xmlns:cc="http://creativecommons.org/ns#" xmlns:rdf="http://www.w3.org/1999/02/22-rdf-syntax-ns#">
   <cc:Work>
    <dc:type rdf:resource="http://purl.org/dc/dcmitype/StillImage"/>
    <dc:date>2026-03-17T13:04:21.583223</dc:date>
    <dc:format>image/svg+xml</dc:format>
    <dc:creator>
     <cc:Agent>
      <dc:title>Matplotlib v3.10.8, https://matplotlib.org/</dc:title>
     </cc:Agent>
    </dc:creator>
   </cc:Work>
  </rdf:RDF>
 </metadata>
 <defs>
  <style type="text/css">*{stroke-linejoin: round; stroke-linecap: butt}</style>
 </defs>
 <g id="figure_1">
  <g id="patch_1">
   <path d="M 0 446.97 
L 503.148936 446.97 
L 503.148936 0 
L 0 0 
z
" style="fill: #ffffff"/>
  </g>
  <g id="axes_1">
   <g id="patch_2">
    <path d="M 77.974468 73.194894 
C 70.984195 73.194894 64.053984 74.489426 57.53508 77.012881 
C 51.016177 79.536335 45.020606 83.245346 39.852242 87.95193 
C 34.683877 92.658514 30.431536 98.28179 27.31074 104.536753 
C 24.189944 110.791715 22.254323 117.570875 21.60198 124.530643 
C 20.949637 131.490411 21.591783 138.511186 23.495871 145.237134 
C 25.399959 151.963082 28.533268 158.278619 32.736993 163.863654 
C 36.940718 169.448689 42.142619 174.207246 48.079048 177.898146 
C 54.015476 181.589045 60.584417 184.148861 67.452935 185.447853 
C 74.321453 186.746846 81.371516 186.762692 88.245804 185.494589 
C 95.120092 184.226486 101.700474 181.696226 107.653434 178.03205 
C 113.606395 174.367874 118.829634 169.632749 123.058424 164.066668 
C 127.287213 158.500586 130.448881 152.199198 132.383185 145.481878 
C 134.317489 138.764558 134.991189 131.74674 134.370139 124.78411 
C 133.749089 117.821479 131.843962 111.033687 128.751316 104.764759 
C 125.658669 98.49583 121.43165 92.853496 116.284495 88.123725 
C 111.137341 83.393955 105.158504 79.658029 98.65101 77.105296 
L 77.974468 129.814468 
z
" style="fill: #3c7ea6; stroke: #ffffff; stroke-width: 1.2; stroke-linejoin: miter"/>
   </g>
   <g id="patch_3">
    <path d="M 98.651006 77.105296 
C 95.860197 76.010528 92.986842 75.139134 90.058055 74.499341 
C 87.129267 73.859548 84.154287 73.453372 81.161184 73.284643 
L 77.974468 129.814468 
z
" style="fill: #d4943a; stroke: #ffffff; stroke-width: 1.2; stroke-linejoin: miter"/>
   </g>
   <g id="patch_4">
    <path d="M 81.161184 73.284643 
C 80.630615 73.254732 80.099636 73.232296 79.568435 73.217336 
C 79.037234 73.202376 78.505861 73.194894 77.974449 73.194894 
L 77.974468 129.814468 
z
" style="fill: #b83a3a; stroke: #ffffff; stroke-width: 1.2; stroke-linejoin: miter"/>
   </g>
   <g id="matplotlib.axis_1"/>
   <g id="matplotlib.axis_2"/>
   <g id="text_1">
    <!-- 94.1% -->
    <g style="fill: #ffffff" transform="translate(60.045363 162.344393) scale(0.07 -0.07)">
     <defs>
      <path id="DejaVuSans-Bold-39" d="M 641 103 
L 641 966 
Q 928 831 1190 764 
Q 1453 697 1709 697 
Q 2247 697 2547 995 
Q 2847 1294 2900 1881 
Q 2688 1725 2447 1647 
Q 2206 1569 1925 1569 
Q 1209 1569 770 1986 
Q 331 2403 331 3084 
Q 331 3838 820 4291 
Q 1309 4744 2131 4744 
Q 3044 4744 3544 4128 
Q 4044 3513 4044 2388 
Q 4044 1231 3459 570 
Q 2875 -91 1856 -91 
Q 1528 -91 1228 -42 
Q 928 6 641 103 
z
M 2125 2350 
Q 2441 2350 2600 2554 
Q 2759 2759 2759 3169 
Q 2759 3575 2600 3781 
Q 2441 3988 2125 3988 
Q 1809 3988 1650 3781 
Q 1491 3575 1491 3169 
Q 1491 2759 1650 2554 
Q 1809 2350 2125 2350 
z
" transform="scale(0.015625)"/>
      <path id="DejaVuSans-Bold-34" d="M 2356 3675 
L 1038 1722 
L 2356 1722 
L 2356 3675 
z
M 2156 4666 
L 3494 4666 
L 3494 1722 
L 4159 1722 
L 4159 850 
L 3494 850 
L 3494 0 
L 2356 0 
L 2356 850 
L 288 850 
L 288 1881 
L 2156 4666 
z
" transform="scale(0.015625)"/>
      <path id="DejaVuSans-Bold-2e" d="M 653 1209 
L 1778 1209 
L 1778 0 
L 653 0 
L 653 1209 
z
" transform="scale(0.015625)"/>
      <path id="DejaVuSans-Bold-31" d="M 750 831 
L 1813 831 
L 1813 3847 
L 722 3622 
L 722 4441 
L 1806 4666 
L 2950 4666 
L 2950 831 
L 4013 831 
L 4013 0 
L 750 0 
L 750 831 
z
" transform="scale(0.015625)"/>
      <path id="DejaVuSans-Bold-25" d="M 4959 1925 
Q 4738 1925 4616 1733 
Q 4494 1541 4494 1184 
Q 4494 825 4614 633 
Q 4734 441 4959 441 
Q 5184 441 5303 633 
Q 5422 825 5422 1184 
Q 5422 1541 5301 1733 
Q 5181 1925 4959 1925 
z
M 4959 2450 
Q 5541 2450 5875 2112 
Q 6209 1775 6209 1184 
Q 6209 594 5875 251 
Q 5541 -91 4959 -91 
Q 4378 -91 4042 251 
Q 3706 594 3706 1184 
Q 3706 1772 4042 2111 
Q 4378 2450 4959 2450 
z
M 2094 -91 
L 1403 -91 
L 4319 4750 
L 5013 4750 
L 2094 -91 
z
M 1453 4750 
Q 2034 4750 2367 4411 
Q 2700 4072 2700 3481 
Q 2700 2891 2367 2550 
Q 2034 2209 1453 2209 
Q 872 2209 539 2550 
Q 206 2891 206 3481 
Q 206 4072 539 4411 
Q 872 4750 1453 4750 
z
M 1453 4225 
Q 1228 4225 1106 4031 
Q 984 3838 984 3481 
Q 984 3122 1106 2926 
Q 1228 2731 1453 2731 
Q 1678 2731 1798 2926 
Q 1919 3122 1919 3481 
Q 1919 3838 1797 4031 
Q 1675 4225 1453 4225 
z
" transform="scale(0.015625)"/>
     </defs>
     <use xlink:href="#DejaVuSans-Bold-39"/>
     <use xlink:href="#DejaVuSans-Bold-34" transform="translate(69.580078 0)"/>
     <use xlink:href="#DejaVuSans-Bold-2e" transform="translate(139.160156 0)"/>
     <use xlink:href="#DejaVuSans-Bold-31" transform="translate(177.148438 0)"/>
     <use xlink:href="#DejaVuSans-Bold-25" transform="translate(246.728516 0)"/>
    </g>
   </g>
   <g id="text_2">
    <!-- 5.1% -->
    <g style="fill: #ffffff" transform="translate(74.913395 101.322708) scale(0.07 -0.07)">
     <defs>
      <path id="DejaVuSans-Bold-35" d="M 678 4666 
L 3669 4666 
L 3669 3781 
L 1638 3781 
L 1638 3059 
Q 1775 3097 1914 3117 
Q 2053 3138 2203 3138 
Q 3056 3138 3531 2711 
Q 4006 2284 4006 1522 
Q 4006 766 3489 337 
Q 2972 -91 2053 -91 
Q 1656 -91 1267 -14 
Q 878 63 494 219 
L 494 1166 
Q 875 947 1217 837 
Q 1559 728 1863 728 
Q 2300 728 2551 942 
Q 2803 1156 2803 1522 
Q 2803 1891 2551 2103 
Q 2300 2316 1863 2316 
Q 1603 2316 1309 2248 
Q 1016 2181 678 2041 
L 678 4666 
z
" transform="scale(0.015625)"/>
     </defs>
     <use xlink:href="#DejaVuSans-Bold-35"/>
     <use xlink:href="#DejaVuSans-Bold-2e" transform="translate(69.580078 0)"/>
     <use xlink:href="#DejaVuSans-Bold-31" transform="translate(107.568359 0)"/>
     <use xlink:href="#DejaVuSans-Bold-25" transform="translate(177.148438 0)"/>
    </g>
   </g>
   <g id="patch_5">
    <path d="M 79.852187 63.142119 
Q 79.658796 70.008865 79.465406 76.87561 
" style="fill: none; stroke: #b83a3a; stroke-width: 0.6; stroke-linecap: round"/>
   </g>
   <g id="text_3">
    <!-- DDoS -->
    <g style="fill: #b83a3a" transform="translate(71.690698 51.846598) scale(0.055 -0.055)">
     <defs>
      <path id="DejaVuSans-Bold-44" d="M 1791 3756 
L 1791 909 
L 2222 909 
Q 2959 909 3348 1275 
Q 3738 1641 3738 2338 
Q 3738 3031 3350 3393 
Q 2963 3756 2222 3756 
L 1791 3756 
z
M 588 4666 
L 1856 4666 
Q 2919 4666 3439 4514 
Q 3959 4363 4331 4000 
Q 4659 3684 4818 3271 
Q 4978 2859 4978 2338 
Q 4978 1809 4818 1395 
Q 4659 981 4331 666 
Q 3956 303 3431 151 
Q 2906 0 1856 0 
L 588 0 
L 588 4666 
z
" transform="scale(0.015625)"/>
      <path id="DejaVuSans-Bold-6f" d="M 2203 2784 
Q 1831 2784 1636 2517 
Q 1441 2250 1441 1747 
Q 1441 1244 1636 976 
Q 1831 709 2203 709 
Q 2569 709 2762 976 
Q 2956 1244 2956 1747 
Q 2956 2250 2762 2517 
Q 2569 2784 2203 2784 
z
M 2203 3584 
Q 3106 3584 3614 3096 
Q 4122 2609 4122 1747 
Q 4122 884 3614 396 
Q 3106 -91 2203 -91 
Q 1297 -91 786 396 
Q 275 884 275 1747 
Q 275 2609 786 3096 
Q 1297 3584 2203 3584 
z
" transform="scale(0.015625)"/>
      <path id="DejaVuSans-Bold-53" d="M 3834 4519 
L 3834 3531 
Q 3450 3703 3084 3790 
Q 2719 3878 2394 3878 
Q 1963 3878 1756 3759 
Q 1550 3641 1550 3391 
Q 1550 3203 1689 3098 
Q 1828 2994 2194 2919 
L 2706 2816 
Q 3484 2659 3812 2340 
Q 4141 2022 4141 1434 
Q 4141 663 3683 286 
Q 3225 -91 2284 -91 
Q 1841 -91 1394 -6 
Q 947 78 500 244 
L 500 1259 
Q 947 1022 1364 901 
Q 1781 781 2169 781 
Q 2563 781 2772 912 
Q 2981 1044 2981 1288 
Q 2981 1506 2839 1625 
Q 2697 1744 2272 1838 
L 1806 1941 
Q 1106 2091 782 2419 
Q 459 2747 459 3303 
Q 459 4000 909 4375 
Q 1359 4750 2203 4750 
Q 2588 4750 2994 4692 
Q 3400 4634 3834 4519 
z
" transform="scale(0.015625)"/>
     </defs>
     <use xlink:href="#DejaVuSans-Bold-44"/>
     <use xlink:href="#DejaVuSans-Bold-44" transform="translate(83.007812 0)"/>
     <use xlink:href="#DejaVuSans-Bold-6f" transform="translate(166.015625 0)"/>
     <use xlink:href="#DejaVuSans-Bold-53" transform="translate(234.716797 0)"/>
    </g>
    <!-- 0.9% -->
    <g style="fill: #b83a3a" transform="translate(72.49937 58.005395) scale(0.055 -0.055)">
     <defs>
      <path id="DejaVuSans-Bold-30" d="M 2944 2338 
Q 2944 3213 2780 3570 
Q 2616 3928 2228 3928 
Q 1841 3928 1675 3570 
Q 1509 3213 1509 2338 
Q 1509 1453 1675 1090 
Q 1841 728 2228 728 
Q 2613 728 2778 1090 
Q 2944 1453 2944 2338 
z
M 4147 2328 
Q 4147 1169 3647 539 
Q 3147 -91 2228 -91 
Q 1306 -91 806 539 
Q 306 1169 306 2328 
Q 306 3491 806 4120 
Q 1306 4750 2228 4750 
Q 3147 4750 3647 4120 
Q 4147 3491 4147 2328 
z
" transform="scale(0.015625)"/>
     </defs>
     <use xlink:href="#DejaVuSans-Bold-30"/>
     <use xlink:href="#DejaVuSans-Bold-2e" transform="translate(69.580078 0)"/>
     <use xlink:href="#DejaVuSans-Bold-39" transform="translate(107.568359 0)"/>
     <use xlink:href="#DejaVuSans-Bold-25" transform="translate(177.148438 0)"/>
    </g>
   </g>
   <g id="text_4">
    <!-- Train — events -->
    <g transform="translate(46.907476 44.641641) scale(0.075 -0.075)">
     <defs>
      <path id="DejaVuSans-Bold-54" d="M 31 4666 
L 4331 4666 
L 4331 3756 
L 2784 3756 
L 2784 0 
L 1581 0 
L 1581 3756 
L 31 3756 
L 31 4666 
z
" transform="scale(0.015625)"/>
      <path id="DejaVuSans-Bold-72" d="M 3138 2547 
Q 2991 2616 2845 2648 
Q 2700 2681 2553 2681 
Q 2122 2681 1889 2404 
Q 1656 2128 1656 1613 
L 1656 0 
L 538 0 
L 538 3500 
L 1656 3500 
L 1656 2925 
Q 1872 3269 2151 3426 
Q 2431 3584 2822 3584 
Q 2878 3584 2943 3579 
Q 3009 3575 3134 3559 
L 3138 2547 
z
" transform="scale(0.015625)"/>
      <path id="DejaVuSans-Bold-61" d="M 2106 1575 
Q 1756 1575 1579 1456 
Q 1403 1338 1403 1106 
Q 1403 894 1545 773 
Q 1688 653 1941 653 
Q 2256 653 2472 879 
Q 2688 1106 2688 1447 
L 2688 1575 
L 2106 1575 
z
M 3816 1997 
L 3816 0 
L 2688 0 
L 2688 519 
Q 2463 200 2181 54 
Q 1900 -91 1497 -91 
Q 953 -91 614 226 
Q 275 544 275 1050 
Q 275 1666 698 1953 
Q 1122 2241 2028 2241 
L 2688 2241 
L 2688 2328 
Q 2688 2594 2478 2717 
Q 2269 2841 1825 2841 
Q 1466 2841 1156 2769 
Q 847 2697 581 2553 
L 581 3406 
Q 941 3494 1303 3539 
Q 1666 3584 2028 3584 
Q 2975 3584 3395 3211 
Q 3816 2838 3816 1997 
z
" transform="scale(0.015625)"/>
      <path id="DejaVuSans-Bold-69" d="M 538 3500 
L 1656 3500 
L 1656 0 
L 538 0 
L 538 3500 
z
M 538 4863 
L 1656 4863 
L 1656 3950 
L 538 3950 
L 538 4863 
z
" transform="scale(0.015625)"/>
      <path id="DejaVuSans-Bold-6e" d="M 4056 2131 
L 4056 0 
L 2931 0 
L 2931 347 
L 2931 1631 
Q 2931 2084 2911 2256 
Q 2891 2428 2841 2509 
Q 2775 2619 2662 2680 
Q 2550 2741 2406 2741 
Q 2056 2741 1856 2470 
Q 1656 2200 1656 1722 
L 1656 0 
L 538 0 
L 538 3500 
L 1656 3500 
L 1656 2988 
Q 1909 3294 2193 3439 
Q 2478 3584 2822 3584 
Q 3428 3584 3742 3212 
Q 4056 2841 4056 2131 
z
" transform="scale(0.015625)"/>
      <path id="DejaVuSans-Bold-20" transform="scale(0.015625)"/>
      <path id="DejaVuSans-Bold-2014" d="M 344 2156 
L 6056 2156 
L 6056 1350 
L 344 1350 
L 344 2156 
z
" transform="scale(0.015625)"/>
      <path id="DejaVuSans-Bold-65" d="M 4031 1759 
L 4031 1441 
L 1416 1441 
Q 1456 1047 1700 850 
Q 1944 653 2381 653 
Q 2734 653 3104 758 
Q 3475 863 3866 1075 
L 3866 213 
Q 3469 63 3072 -14 
Q 2675 -91 2278 -91 
Q 1328 -91 801 392 
Q 275 875 275 1747 
Q 275 2603 792 3093 
Q 1309 3584 2216 3584 
Q 3041 3584 3536 3087 
Q 4031 2591 4031 1759 
z
M 2881 2131 
Q 2881 2450 2695 2645 
Q 2509 2841 2209 2841 
Q 1884 2841 1681 2658 
Q 1478 2475 1428 2131 
L 2881 2131 
z
" transform="scale(0.015625)"/>
      <path id="DejaVuSans-Bold-76" d="M 97 3500 
L 1216 3500 
L 2088 1081 
L 2956 3500 
L 4078 3500 
L 2700 0 
L 1472 0 
L 97 3500 
z
" transform="scale(0.015625)"/>
      <path id="DejaVuSans-Bold-74" d="M 1759 4494 
L 1759 3500 
L 2913 3500 
L 2913 2700 
L 1759 2700 
L 1759 1216 
Q 1759 972 1856 886 
Q 1953 800 2241 800 
L 2816 800 
L 2816 0 
L 1856 0 
Q 1194 0 917 276 
Q 641 553 641 1216 
L 641 2700 
L 84 2700 
L 84 3500 
L 641 3500 
L 641 4494 
L 1759 4494 
z
" transform="scale(0.015625)"/>
      <path id="DejaVuSans-Bold-73" d="M 3272 3391 
L 3272 2541 
Q 2913 2691 2578 2766 
Q 2244 2841 1947 2841 
Q 1628 2841 1473 2761 
Q 1319 2681 1319 2516 
Q 1319 2381 1436 2309 
Q 1553 2238 1856 2203 
L 2053 2175 
Q 2913 2066 3209 1816 
Q 3506 1566 3506 1031 
Q 3506 472 3093 190 
Q 2681 -91 1863 -91 
Q 1516 -91 1145 -36 
Q 775 19 384 128 
L 384 978 
Q 719 816 1070 734 
Q 1422 653 1784 653 
Q 2113 653 2278 743 
Q 2444 834 2444 1013 
Q 2444 1163 2330 1236 
Q 2216 1309 1875 1350 
L 1678 1375 
Q 931 1469 631 1722 
Q 331 1975 331 2491 
Q 331 3047 712 3315 
Q 1094 3584 1881 3584 
Q 2191 3584 2531 3537 
Q 2872 3491 3272 3391 
z
" transform="scale(0.015625)"/>
     </defs>
     <use xlink:href="#DejaVuSans-Bold-54"/>
     <use xlink:href="#DejaVuSans-Bold-72" transform="translate(57.212891 0)"/>
     <use xlink:href="#DejaVuSans-Bold-61" transform="translate(106.529297 0)"/>
     <use xlink:href="#DejaVuSans-Bold-69" transform="translate(174.009766 0)"/>
     <use xlink:href="#DejaVuSans-Bold-6e" transform="translate(208.287109 0)"/>
     <use xlink:href="#DejaVuSans-Bold-20" transform="translate(279.478516 0)"/>
     <use xlink:href="#DejaVuSans-Bold-2014" transform="translate(314.292969 0)"/>
     <use xlink:href="#DejaVuSans-Bold-20" transform="translate(414.292969 0)"/>
     <use xlink:href="#DejaVuSans-Bold-65" transform="translate(449.107422 0)"/>
     <use xlink:href="#DejaVuSans-Bold-76" transform="translate(516.929688 0)"/>
     <use xlink:href="#DejaVuSans-Bold-65" transform="translate(582.115234 0)"/>
     <use xlink:href="#DejaVuSans-Bold-6e" transform="translate(649.9375 0)"/>
     <use xlink:href="#DejaVuSans-Bold-74" transform="translate(721.128906 0)"/>
     <use xlink:href="#DejaVuSans-Bold-73" transform="translate(768.931641 0)"/>
    </g>
    <!-- (264,770) -->
    <g transform="translate(57.467242 53.04) scale(0.075 -0.075)">
     <defs>
      <path id="DejaVuSans-Bold-28" d="M 2413 -844 
L 1484 -844 
Q 1006 -72 778 623 
Q 550 1319 550 2003 
Q 550 2688 779 3389 
Q 1009 4091 1484 4856 
L 2413 4856 
Q 2013 4116 1813 3408 
Q 1613 2700 1613 2009 
Q 1613 1319 1811 609 
Q 2009 -100 2413 -844 
z
" transform="scale(0.015625)"/>
      <path id="DejaVuSans-Bold-32" d="M 1844 884 
L 3897 884 
L 3897 0 
L 506 0 
L 506 884 
L 2209 2388 
Q 2438 2594 2547 2791 
Q 2656 2988 2656 3200 
Q 2656 3528 2436 3728 
Q 2216 3928 1850 3928 
Q 1569 3928 1234 3808 
Q 900 3688 519 3450 
L 519 4475 
Q 925 4609 1322 4679 
Q 1719 4750 2100 4750 
Q 2938 4750 3402 4381 
Q 3866 4013 3866 3353 
Q 3866 2972 3669 2642 
Q 3472 2313 2841 1759 
L 1844 884 
z
" transform="scale(0.015625)"/>
      <path id="DejaVuSans-Bold-36" d="M 2316 2303 
Q 2000 2303 1842 2098 
Q 1684 1894 1684 1484 
Q 1684 1075 1842 870 
Q 2000 666 2316 666 
Q 2634 666 2792 870 
Q 2950 1075 2950 1484 
Q 2950 1894 2792 2098 
Q 2634 2303 2316 2303 
z
M 3803 4544 
L 3803 3681 
Q 3506 3822 3243 3889 
Q 2981 3956 2731 3956 
Q 2194 3956 1894 3657 
Q 1594 3359 1544 2772 
Q 1750 2925 1990 3001 
Q 2231 3078 2516 3078 
Q 3231 3078 3670 2659 
Q 4109 2241 4109 1563 
Q 4109 813 3618 361 
Q 3128 -91 2303 -91 
Q 1394 -91 895 523 
Q 397 1138 397 2266 
Q 397 3422 980 4083 
Q 1563 4744 2578 4744 
Q 2900 4744 3203 4694 
Q 3506 4644 3803 4544 
z
" transform="scale(0.015625)"/>
      <path id="DejaVuSans-Bold-2c" d="M 653 1209 
L 1778 1209 
L 1778 256 
L 1006 -909 
L 341 -909 
L 653 256 
L 653 1209 
z
" transform="scale(0.015625)"/>
      <path id="DejaVuSans-Bold-37" d="M 428 4666 
L 3944 4666 
L 3944 3988 
L 2125 0 
L 953 0 
L 2675 3781 
L 428 3781 
L 428 4666 
z
" transform="scale(0.015625)"/>
      <path id="DejaVuSans-Bold-29" d="M 513 -844 
Q 913 -100 1113 609 
Q 1313 1319 1313 2009 
Q 1313 2700 1113 3408 
Q 913 4116 513 4856 
L 1441 4856 
Q 1916 4091 2145 3389 
Q 2375 2688 2375 2003 
Q 2375 1319 2147 623 
Q 1919 -72 1441 -844 
L 513 -844 
z
" transform="scale(0.015625)"/>
     </defs>
     <use xlink:href="#DejaVuSans-Bold-28"/>
     <use xlink:href="#DejaVuSans-Bold-32" transform="translate(45.703125 0)"/>
     <use xlink:href="#DejaVuSans-Bold-36" transform="translate(115.283203 0)"/>
     <use xlink:href="#DejaVuSans-Bold-34" transform="translate(184.863281 0)"/>
     <use xlink:href="#DejaVuSans-Bold-2c" transform="translate(254.443359 0)"/>
     <use xlink:href="#DejaVuSans-Bold-37" transform="translate(292.431641 0)"/>
     <use xlink:href="#DejaVuSans-Bold-37" transform="translate(362.011719 0)"/>
     <use xlink:href="#DejaVuSans-Bold-30" transform="translate(431.591797 0)"/>
     <use xlink:href="#DejaVuSans-Bold-29" transform="translate(501.171875 0)"/>
    </g>
   </g>
  </g>
  <g id="axes_2">
   <g id="patch_6">
    <path d="M 251.574468 73.194894 
C 244.375574 73.194894 237.242291 74.567848 230.557715 77.240023 
C 223.873139 79.912197 217.759117 83.834882 212.544004 88.797409 
C 207.328892 93.759936 203.107751 99.671847 200.107279 106.215641 
C 197.106807 112.759435 195.381697 119.815831 195.024597 127.005863 
C 194.667497 134.195894 195.684916 141.388501 198.022213 148.1974 
C 200.35951 155.0063 203.974081 161.30738 208.671804 166.762237 
C 213.369527 172.217095 219.064771 176.726299 225.451671 180.047681 
C 231.838572 183.369063 238.800707 185.442081 245.964173 186.155402 
C 253.127639 186.868722 260.36186 186.209344 267.278318 184.212679 
C 274.194777 182.216013 280.6674 178.918456 286.348572 174.497104 
C 292.029744 170.075751 296.815909 164.611197 300.450023 158.396916 
C 304.084137 152.182635 306.499959 145.331903 307.567744 138.21264 
C 308.635529 131.093377 308.335815 123.835354 306.684697 116.828365 
C 305.03358 109.821377 302.061155 103.193148 297.92706 97.299649 
C 293.792964 91.406151 288.572554 86.35481 282.546193 82.416911 
C 276.519833 78.479012 269.79737 75.726335 262.739839 74.306714 
L 251.574468 129.814468 
z
" style="fill: #3c7ea6; stroke: #ffffff; stroke-width: 1.2; stroke-linejoin: miter"/>
   </g>
   <g id="patch_7">
    <path d="M 262.739835 74.306715 
C 261.375022 74.032182 260.000561 73.808083 258.619228 73.634868 
C 257.237896 73.461654 255.850631 73.339439 254.46029 73.268484 
L 251.574468 129.814468 
z
" style="fill: #d4943a; stroke: #ffffff; stroke-width: 1.2; stroke-linejoin: miter"/>
   </g>
   <g id="patch_8">
    <path d="M 254.46029 73.268484 
C 253.979731 73.24396 253.498866 73.22556 253.017839 73.213293 
C 252.536811 73.201026 252.05566 73.194894 251.574476 73.194894 
L 251.574468 129.814468 
z
" style="fill: #b83a3a; stroke: #ffffff; stroke-width: 1.2; stroke-linejoin: miter"/>
   </g>
   <g id="matplotlib.axis_3"/>
   <g id="matplotlib.axis_4"/>
   <g id="text_5">
    <!-- 96.8% -->
    <g style="fill: #ffffff" transform="translate(236.346544 162.733544) scale(0.07 -0.07)">
     <defs>
      <path id="DejaVuSans-Bold-38" d="M 2228 2088 
Q 1891 2088 1709 1903 
Q 1528 1719 1528 1375 
Q 1528 1031 1709 848 
Q 1891 666 2228 666 
Q 2563 666 2741 848 
Q 2919 1031 2919 1375 
Q 2919 1722 2741 1905 
Q 2563 2088 2228 2088 
z
M 1350 2484 
Q 925 2613 709 2878 
Q 494 3144 494 3541 
Q 494 4131 934 4440 
Q 1375 4750 2228 4750 
Q 3075 4750 3515 4442 
Q 3956 4134 3956 3541 
Q 3956 3144 3739 2878 
Q 3522 2613 3097 2484 
Q 3572 2353 3814 2058 
Q 4056 1763 4056 1313 
Q 4056 619 3595 264 
Q 3134 -91 2228 -91 
Q 1319 -91 855 264 
Q 391 619 391 1313 
Q 391 1763 633 2058 
Q 875 2353 1350 2484 
z
M 1631 3419 
Q 1631 3141 1786 2991 
Q 1941 2841 2228 2841 
Q 2509 2841 2662 2991 
Q 2816 3141 2816 3419 
Q 2816 3697 2662 3845 
Q 2509 3994 2228 3994 
Q 1941 3994 1786 3844 
Q 1631 3694 1631 3419 
z
" transform="scale(0.015625)"/>
     </defs>
     <use xlink:href="#DejaVuSans-Bold-39"/>
     <use xlink:href="#DejaVuSans-Bold-36" transform="translate(69.580078 0)"/>
     <use xlink:href="#DejaVuSans-Bold-2e" transform="translate(139.160156 0)"/>
     <use xlink:href="#DejaVuSans-Bold-38" transform="translate(177.148438 0)"/>
     <use xlink:href="#DejaVuSans-Bold-25" transform="translate(246.728516 0)"/>
    </g>
   </g>
   <g id="text_6">
    <!-- 2.3% -->
    <g style="fill: #ffffff" transform="translate(245.742025 100.847246) scale(0.07 -0.07)">
     <defs>
      <path id="DejaVuSans-Bold-33" d="M 2981 2516 
Q 3453 2394 3698 2092 
Q 3944 1791 3944 1325 
Q 3944 631 3412 270 
Q 2881 -91 1863 -91 
Q 1503 -91 1142 -33 
Q 781 25 428 141 
L 428 1069 
Q 766 900 1098 814 
Q 1431 728 1753 728 
Q 2231 728 2486 893 
Q 2741 1059 2741 1369 
Q 2741 1688 2480 1852 
Q 2219 2016 1709 2016 
L 1228 2016 
L 1228 2791 
L 1734 2791 
Q 2188 2791 2409 2933 
Q 2631 3075 2631 3366 
Q 2631 3634 2415 3781 
Q 2200 3928 1806 3928 
Q 1516 3928 1219 3862 
Q 922 3797 628 3669 
L 628 4550 
Q 984 4650 1334 4700 
Q 1684 4750 2022 4750 
Q 2931 4750 3382 4451 
Q 3834 4153 3834 3553 
Q 3834 3144 3618 2883 
Q 3403 2622 2981 2516 
z
" transform="scale(0.015625)"/>
     </defs>
     <use xlink:href="#DejaVuSans-Bold-32"/>
     <use xlink:href="#DejaVuSans-Bold-2e" transform="translate(69.580078 0)"/>
     <use xlink:href="#DejaVuSans-Bold-33" transform="translate(107.568359 0)"/>
     <use xlink:href="#DejaVuSans-Bold-25" transform="translate(177.148438 0)"/>
    </g>
   </g>
   <g id="patch_9">
    <path d="M 253.274782 63.137355 
Q 253.099663 70.004592 252.924543 76.871829 
" style="fill: none; stroke: #b83a3a; stroke-width: 0.6; stroke-linecap: round"/>
   </g>
   <g id="text_7">
    <!-- DDoS -->
    <g style="fill: #b83a3a" transform="translate(245.087393 51.841137) scale(0.055 -0.055)">
     <use xlink:href="#DejaVuSans-Bold-44"/>
     <use xlink:href="#DejaVuSans-Bold-44" transform="translate(83.007812 0)"/>
     <use xlink:href="#DejaVuSans-Bold-6f" transform="translate(166.015625 0)"/>
     <use xlink:href="#DejaVuSans-Bold-53" transform="translate(234.716797 0)"/>
    </g>
    <!-- 0.8% -->
    <g style="fill: #b83a3a" transform="translate(245.896065 57.999934) scale(0.055 -0.055)">
     <use xlink:href="#DejaVuSans-Bold-30"/>
     <use xlink:href="#DejaVuSans-Bold-2e" transform="translate(69.580078 0)"/>
     <use xlink:href="#DejaVuSans-Bold-38" transform="translate(107.568359 0)"/>
     <use xlink:href="#DejaVuSans-Bold-25" transform="translate(177.148438 0)"/>
    </g>
   </g>
   <g id="text_8">
    <!-- Test — events -->
    <g transform="translate(222.359038 44.641641) scale(0.075 -0.075)">
     <use xlink:href="#DejaVuSans-Bold-54"/>
     <use xlink:href="#DejaVuSans-Bold-65" transform="translate(54.962891 0)"/>
     <use xlink:href="#DejaVuSans-Bold-73" transform="translate(122.785156 0)"/>
     <use xlink:href="#DejaVuSans-Bold-74" transform="translate(182.306641 0)"/>
     <use xlink:href="#DejaVuSans-Bold-20" transform="translate(230.109375 0)"/>
     <use xlink:href="#DejaVuSans-Bold-2014" transform="translate(264.923828 0)"/>
     <use xlink:href="#DejaVuSans-Bold-20" transform="translate(364.923828 0)"/>
     <use xlink:href="#DejaVuSans-Bold-65" transform="translate(399.738281 0)"/>
     <use xlink:href="#DejaVuSans-Bold-76" transform="translate(467.560547 0)"/>
     <use xlink:href="#DejaVuSans-Bold-65" transform="translate(532.746094 0)"/>
     <use xlink:href="#DejaVuSans-Bold-6e" transform="translate(600.568359 0)"/>
     <use xlink:href="#DejaVuSans-Bold-74" transform="translate(671.759766 0)"/>
     <use xlink:href="#DejaVuSans-Bold-73" transform="translate(719.5625 0)"/>
    </g>
    <!-- (130,000) -->
    <g transform="translate(231.067242 53.04) scale(0.075 -0.075)">
     <use xlink:href="#DejaVuSans-Bold-28"/>
     <use xlink:href="#DejaVuSans-Bold-31" transform="translate(45.703125 0)"/>
     <use xlink:href="#DejaVuSans-Bold-33" transform="translate(115.283203 0)"/>
     <use xlink:href="#DejaVuSans-Bold-30" transform="translate(184.863281 0)"/>
     <use xlink:href="#DejaVuSans-Bold-2c" transform="translate(254.443359 0)"/>
     <use xlink:href="#DejaVuSans-Bold-30" transform="translate(292.431641 0)"/>
     <use xlink:href="#DejaVuSans-Bold-30" transform="translate(362.011719 0)"/>
     <use xlink:href="#DejaVuSans-Bold-30" transform="translate(431.591797 0)"/>
     <use xlink:href="#DejaVuSans-Bold-29" transform="translate(501.171875 0)"/>
    </g>
   </g>
  </g>
  <g id="axes_3">
   <g id="patch_10">
    <path d="M 425.174468 73.194894 
C 418.47645 73.194894 411.831263 74.383443 405.548505 76.705168 
C 399.265748 79.026892 393.444531 82.445167 388.356065 86.800733 
C 383.267599 91.1563 378.992155 96.38045 375.728925 102.22979 
C 372.465695 108.07913 370.266158 114.461386 369.232789 121.07921 
C 368.19942 127.697034 368.348521 134.44603 369.673145 141.01176 
C 370.997769 147.57749 373.477021 153.856382 376.995392 159.555901 
C 380.513762 165.255419 385.01575 170.285655 390.291606 174.41225 
C 395.567463 178.538845 401.533962 181.696701 407.913124 183.738695 
C 414.292286 185.780688 420.98348 186.674606 427.674963 186.378801 
C 434.366446 186.082996 440.95266 184.602134 447.126753 182.005209 
C 453.300846 179.408283 458.965422 175.736261 463.856568 171.160222 
C 468.747714 166.584183 472.788272 161.176313 475.789993 155.188566 
C 478.791714 149.200818 480.707246 142.72765 481.447343 136.070646 
C 482.18744 129.413642 481.740428 122.677817 480.127134 116.176992 
C 478.513839 109.676167 475.759711 103.512893 471.993065 97.974317 
C 468.226418 92.435741 463.506673 87.609234 458.053721 83.719664 
L 425.174468 129.814468 
z
" style="fill: #3c7ea6; stroke: #ffffff; stroke-width: 1.2; stroke-linejoin: miter"/>
   </g>
   <g id="patch_11">
    <path d="M 458.053731 83.719671 
C 454.916054 81.481578 451.558044 79.569696 448.031967 78.013783 
C 444.505891 76.45787 440.830146 75.266046 437.06195 74.456866 
L 425.174468 129.814468 
z
" style="fill: #d4943a; stroke: #ffffff; stroke-width: 1.2; stroke-linejoin: miter"/>
   </g>
   <g id="patch_12">
    <path d="M 437.06195 74.456866 
C 435.109888 74.03768 433.137033 73.722046 431.151626 73.511273 
C 429.166219 73.300501 427.171039 73.194894 425.174476 73.194894 
L 425.174468 129.814468 
z
" style="fill: #b83a3a; stroke: #ffffff; stroke-width: 1.2; stroke-linejoin: miter"/>
   </g>
   <g id="matplotlib.axis_5"/>
   <g id="matplotlib.axis_6"/>
   <g id="text_9">
    <!-- 90.1% -->
    <g style="fill: #ffffff" transform="translate(403.538469 161.404357) scale(0.07 -0.07)">
     <use xlink:href="#DejaVuSans-Bold-39"/>
     <use xlink:href="#DejaVuSans-Bold-30" transform="translate(69.580078 0)"/>
     <use xlink:href="#DejaVuSans-Bold-2e" transform="translate(139.160156 0)"/>
     <use xlink:href="#DejaVuSans-Bold-31" transform="translate(177.148438 0)"/>
     <use xlink:href="#DejaVuSans-Bold-25" transform="translate(246.728516 0)"/>
    </g>
   </g>
   <g id="text_10">
    <!-- 6.5% -->
    <g style="fill: #ffffff" transform="translate(428.039048 103.255648) scale(0.07 -0.07)">
     <use xlink:href="#DejaVuSans-Bold-36"/>
     <use xlink:href="#DejaVuSans-Bold-2e" transform="translate(69.580078 0)"/>
     <use xlink:href="#DejaVuSans-Bold-35" transform="translate(107.568359 0)"/>
     <use xlink:href="#DejaVuSans-Bold-25" transform="translate(177.148438 0)"/>
    </g>
   </g>
   <g id="text_11">
    <!-- 3.4% -->
    <g style="fill: #ffffff" transform="translate(418.754859 100.779272) scale(0.07 -0.07)">
     <use xlink:href="#DejaVuSans-Bold-33"/>
     <use xlink:href="#DejaVuSans-Bold-2e" transform="translate(69.580078 0)"/>
     <use xlink:href="#DejaVuSans-Bold-34" transform="translate(107.568359 0)"/>
     <use xlink:href="#DejaVuSans-Bold-25" transform="translate(177.148438 0)"/>
    </g>
   </g>
   <g id="text_12">
    <!-- Genericity — events -->
    <g transform="translate(382.873296 44.583047) scale(0.075 -0.075)">
     <defs>
      <path id="DejaVuSans-Bold-47" d="M 4781 347 
Q 4331 128 3847 18 
Q 3363 -91 2847 -91 
Q 1681 -91 1000 561 
Q 319 1213 319 2328 
Q 319 3456 1012 4103 
Q 1706 4750 2913 4750 
Q 3378 4750 3804 4662 
Q 4231 4575 4609 4403 
L 4609 3438 
Q 4219 3659 3833 3768 
Q 3447 3878 3059 3878 
Q 2341 3878 1952 3476 
Q 1563 3075 1563 2328 
Q 1563 1588 1938 1184 
Q 2313 781 3003 781 
Q 3191 781 3352 804 
Q 3513 828 3641 878 
L 3641 1784 
L 2906 1784 
L 2906 2591 
L 4781 2591 
L 4781 347 
z
" transform="scale(0.015625)"/>
      <path id="DejaVuSans-Bold-63" d="M 3366 3391 
L 3366 2478 
Q 3138 2634 2908 2709 
Q 2678 2784 2431 2784 
Q 1963 2784 1702 2511 
Q 1441 2238 1441 1747 
Q 1441 1256 1702 982 
Q 1963 709 2431 709 
Q 2694 709 2930 787 
Q 3166 866 3366 1019 
L 3366 103 
Q 3103 6 2833 -42 
Q 2563 -91 2291 -91 
Q 1344 -91 809 395 
Q 275 881 275 1747 
Q 275 2613 809 3098 
Q 1344 3584 2291 3584 
Q 2566 3584 2833 3536 
Q 3100 3488 3366 3391 
z
" transform="scale(0.015625)"/>
      <path id="DejaVuSans-Bold-79" d="M 78 3500 
L 1197 3500 
L 2138 1125 
L 2938 3500 
L 4056 3500 
L 2584 -331 
Q 2363 -916 2067 -1148 
Q 1772 -1381 1288 -1381 
L 641 -1381 
L 641 -647 
L 991 -647 
Q 1275 -647 1404 -556 
Q 1534 -466 1606 -231 
L 1638 -134 
L 78 3500 
z
" transform="scale(0.015625)"/>
     </defs>
     <use xlink:href="#DejaVuSans-Bold-47"/>
     <use xlink:href="#DejaVuSans-Bold-65" transform="translate(82.080078 0)"/>
     <use xlink:href="#DejaVuSans-Bold-6e" transform="translate(149.902344 0)"/>
     <use xlink:href="#DejaVuSans-Bold-65" transform="translate(221.09375 0)"/>
     <use xlink:href="#DejaVuSans-Bold-72" transform="translate(288.916016 0)"/>
     <use xlink:href="#DejaVuSans-Bold-69" transform="translate(338.232422 0)"/>
     <use xlink:href="#DejaVuSans-Bold-63" transform="translate(372.509766 0)"/>
     <use xlink:href="#DejaVuSans-Bold-69" transform="translate(431.787109 0)"/>
     <use xlink:href="#DejaVuSans-Bold-74" transform="translate(466.064453 0)"/>
     <use xlink:href="#DejaVuSans-Bold-79" transform="translate(513.867188 0)"/>
     <use xlink:href="#DejaVuSans-Bold-20" transform="translate(579.052734 0)"/>
     <use xlink:href="#DejaVuSans-Bold-2014" transform="translate(613.867188 0)"/>
     <use xlink:href="#DejaVuSans-Bold-20" transform="translate(713.867188 0)"/>
     <use xlink:href="#DejaVuSans-Bold-65" transform="translate(748.681641 0)"/>
     <use xlink:href="#DejaVuSans-Bold-76" transform="translate(816.503906 0)"/>
     <use xlink:href="#DejaVuSans-Bold-65" transform="translate(881.689453 0)"/>
     <use xlink:href="#DejaVuSans-Bold-6e" transform="translate(949.511719 0)"/>
     <use xlink:href="#DejaVuSans-Bold-74" transform="translate(1020.703125 0)"/>
     <use xlink:href="#DejaVuSans-Bold-73" transform="translate(1068.505859 0)"/>
    </g>
    <!-- (437,657) -->
    <g transform="translate(404.667242 53.04) scale(0.075 -0.075)">
     <use xlink:href="#DejaVuSans-Bold-28"/>
     <use xlink:href="#DejaVuSans-Bold-34" transform="translate(45.703125 0)"/>
     <use xlink:href="#DejaVuSans-Bold-33" transform="translate(115.283203 0)"/>
     <use xlink:href="#DejaVuSans-Bold-37" transform="translate(184.863281 0)"/>
     <use xlink:href="#DejaVuSans-Bold-2c" transform="translate(254.443359 0)"/>
     <use xlink:href="#DejaVuSans-Bold-36" transform="translate(292.431641 0)"/>
     <use xlink:href="#DejaVuSans-Bold-35" transform="translate(362.011719 0)"/>
     <use xlink:href="#DejaVuSans-Bold-37" transform="translate(431.591797 0)"/>
     <use xlink:href="#DejaVuSans-Bold-29" transform="translate(501.171875 0)"/>
    </g>
   </g>
  </g>
  <g id="axes_4">
   <g id="patch_13">
    <path d="M 77.974468 264.285957 
C 70.934495 264.285957 63.955876 265.598963 57.397282 268.157493 
C 50.838688 270.716022 44.814438 274.475479 39.634151 279.242643 
C 34.453864 284.009807 30.207835 289.701586 27.114291 296.025447 
C 24.020748 302.349307 22.13361 309.195022 21.54987 316.210753 
C 20.96613 323.226483 21.695962 330.289942 23.701855 337.038099 
C 25.707749 343.786255 28.954741 350.101487 33.27595 355.659218 
C 37.597159 361.216949 42.917265 365.920307 48.962839 369.52756 
C 55.008412 373.134812 61.674076 375.583083 68.617244 376.746543 
C 75.560413 377.910003 82.660063 377.768372 89.551307 376.32893 
C 96.44255 374.889487 103.005268 372.177323 108.902166 368.33183 
C 114.799065 364.486337 119.927358 359.574544 124.023475 353.848895 
C 128.119592 348.123246 131.112136 341.683543 132.847302 334.860755 
C 134.582469 328.037968 135.030014 320.951022 134.166936 313.964154 
C 133.303858 306.977286 131.145201 300.212281 127.801909 294.016829 
C 124.458617 287.821376 119.988966 282.303467 114.622676 277.746697 
C 109.256386 273.189926 103.086994 269.67372 96.431578 267.378797 
L 77.974468 320.905532 
z
" style="fill: #3c7ea6; stroke: #ffffff; stroke-width: 1.2; stroke-linejoin: miter"/>
   </g>
   <g id="patch_14">
    <path d="M 96.431594 267.378804 
C 94.88223 266.844551 93.310412 266.377821 91.720556 265.979933 
C 90.1307 265.582045 88.524305 265.253368 86.905936 264.994842 
L 77.974468 320.905532 
z
" style="fill: #d4943a; stroke: #ffffff; stroke-width: 1.2; stroke-linejoin: miter"/>
   </g>
   <g id="patch_15">
    <path d="M 86.905936 264.994842 
C 85.429633 264.759008 83.94457 264.581744 82.454236 264.463458 
C 80.963903 264.345172 79.469469 264.285957 77.974449 264.285957 
L 77.974468 320.905532 
z
" style="fill: #b83a3a; stroke: #ffffff; stroke-width: 1.2; stroke-linejoin: miter"/>
   </g>
   <g id="matplotlib.axis_7"/>
   <g id="matplotlib.axis_8"/>
   <g id="text_13">
    <!-- 94.7% -->
    <g style="fill: #ffffff" transform="translate(60.685742 353.549653) scale(0.07 -0.07)">
     <use xlink:href="#DejaVuSans-Bold-39"/>
     <use xlink:href="#DejaVuSans-Bold-34" transform="translate(69.580078 0)"/>
     <use xlink:href="#DejaVuSans-Bold-2e" transform="translate(139.160156 0)"/>
     <use xlink:href="#DejaVuSans-Bold-37" transform="translate(177.148438 0)"/>
     <use xlink:href="#DejaVuSans-Bold-25" transform="translate(246.728516 0)"/>
    </g>
   </g>
   <g id="text_14">
    <!-- 2.8% -->
    <g style="fill: #ffffff" transform="translate(75.827771 292.628012) scale(0.07 -0.07)">
     <use xlink:href="#DejaVuSans-Bold-32"/>
     <use xlink:href="#DejaVuSans-Bold-2e" transform="translate(69.580078 0)"/>
     <use xlink:href="#DejaVuSans-Bold-38" transform="translate(107.568359 0)"/>
     <use xlink:href="#DejaVuSans-Bold-25" transform="translate(177.148438 0)"/>
    </g>
   </g>
   <g id="text_15">
    <!-- 2.5% -->
    <g style="fill: #ffffff" transform="translate(70.731295 291.793952) scale(0.07 -0.07)">
     <use xlink:href="#DejaVuSans-Bold-32"/>
     <use xlink:href="#DejaVuSans-Bold-2e" transform="translate(69.580078 0)"/>
     <use xlink:href="#DejaVuSans-Bold-35" transform="translate(107.568359 0)"/>
     <use xlink:href="#DejaVuSans-Bold-25" transform="translate(177.148438 0)"/>
    </g>
   </g>
   <g id="text_16">
    <!-- Train — components -->
    <g transform="translate(35.258452 235.732704) scale(0.075 -0.075)">
     <defs>
      <path id="DejaVuSans-Bold-6d" d="M 3781 2919 
Q 3994 3244 4286 3414 
Q 4578 3584 4928 3584 
Q 5531 3584 5847 3212 
Q 6163 2841 6163 2131 
L 6163 0 
L 5038 0 
L 5038 1825 
Q 5041 1866 5042 1909 
Q 5044 1953 5044 2034 
Q 5044 2406 4934 2573 
Q 4825 2741 4581 2741 
Q 4263 2741 4089 2478 
Q 3916 2216 3909 1719 
L 3909 0 
L 2784 0 
L 2784 1825 
Q 2784 2406 2684 2573 
Q 2584 2741 2328 2741 
Q 2006 2741 1831 2477 
Q 1656 2213 1656 1722 
L 1656 0 
L 531 0 
L 531 3500 
L 1656 3500 
L 1656 2988 
Q 1863 3284 2130 3434 
Q 2397 3584 2719 3584 
Q 3081 3584 3359 3409 
Q 3638 3234 3781 2919 
z
" transform="scale(0.015625)"/>
      <path id="DejaVuSans-Bold-70" d="M 1656 506 
L 1656 -1331 
L 538 -1331 
L 538 3500 
L 1656 3500 
L 1656 2988 
Q 1888 3294 2169 3439 
Q 2450 3584 2816 3584 
Q 3463 3584 3878 3070 
Q 4294 2556 4294 1747 
Q 4294 938 3878 423 
Q 3463 -91 2816 -91 
Q 2450 -91 2169 54 
Q 1888 200 1656 506 
z
M 2400 2772 
Q 2041 2772 1848 2508 
Q 1656 2244 1656 1747 
Q 1656 1250 1848 986 
Q 2041 722 2400 722 
Q 2759 722 2948 984 
Q 3138 1247 3138 1747 
Q 3138 2247 2948 2509 
Q 2759 2772 2400 2772 
z
" transform="scale(0.015625)"/>
     </defs>
     <use xlink:href="#DejaVuSans-Bold-54"/>
     <use xlink:href="#DejaVuSans-Bold-72" transform="translate(57.212891 0)"/>
     <use xlink:href="#DejaVuSans-Bold-61" transform="translate(106.529297 0)"/>
     <use xlink:href="#DejaVuSans-Bold-69" transform="translate(174.009766 0)"/>
     <use xlink:href="#DejaVuSans-Bold-6e" transform="translate(208.287109 0)"/>
     <use xlink:href="#DejaVuSans-Bold-20" transform="translate(279.478516 0)"/>
     <use xlink:href="#DejaVuSans-Bold-2014" transform="translate(314.292969 0)"/>
     <use xlink:href="#DejaVuSans-Bold-20" transform="translate(414.292969 0)"/>
     <use xlink:href="#DejaVuSans-Bold-63" transform="translate(449.107422 0)"/>
     <use xlink:href="#DejaVuSans-Bold-6f" transform="translate(508.384766 0)"/>
     <use xlink:href="#DejaVuSans-Bold-6d" transform="translate(577.085938 0)"/>
     <use xlink:href="#DejaVuSans-Bold-70" transform="translate(681.285156 0)"/>
     <use xlink:href="#DejaVuSans-Bold-6f" transform="translate(752.867188 0)"/>
     <use xlink:href="#DejaVuSans-Bold-6e" transform="translate(821.568359 0)"/>
     <use xlink:href="#DejaVuSans-Bold-65" transform="translate(892.759766 0)"/>
     <use xlink:href="#DejaVuSans-Bold-6e" transform="translate(960.582031 0)"/>
     <use xlink:href="#DejaVuSans-Bold-74" transform="translate(1031.773438 0)"/>
     <use xlink:href="#DejaVuSans-Bold-73" transform="translate(1079.576172 0)"/>
    </g>
    <!-- (1,820,091) -->
    <g transform="translate(53.433648 244.131064) scale(0.075 -0.075)">
     <use xlink:href="#DejaVuSans-Bold-28"/>
     <use xlink:href="#DejaVuSans-Bold-31" transform="translate(45.703125 0)"/>
     <use xlink:href="#DejaVuSans-Bold-2c" transform="translate(115.283203 0)"/>
     <use xlink:href="#DejaVuSans-Bold-38" transform="translate(153.271484 0)"/>
     <use xlink:href="#DejaVuSans-Bold-32" transform="translate(222.851562 0)"/>
     <use xlink:href="#DejaVuSans-Bold-30" transform="translate(292.431641 0)"/>
     <use xlink:href="#DejaVuSans-Bold-2c" transform="translate(362.011719 0)"/>
     <use xlink:href="#DejaVuSans-Bold-30" transform="translate(400 0)"/>
     <use xlink:href="#DejaVuSans-Bold-39" transform="translate(469.580078 0)"/>
     <use xlink:href="#DejaVuSans-Bold-31" transform="translate(539.160156 0)"/>
     <use xlink:href="#DejaVuSans-Bold-29" transform="translate(608.740234 0)"/>
    </g>
   </g>
  </g>
  <g id="axes_5">
   <g id="patch_16">
    <path d="M 251.574468 264.285957 
C 244.498004 264.285957 237.483856 265.61261 230.896208 268.197034 
C 224.308561 270.781457 218.263437 274.578135 213.074708 279.389936 
C 207.885979 284.201738 203.64503 289.943918 200.572057 296.318334 
C 197.499084 302.69275 195.648209 309.587136 195.115532 316.643523 
C 194.582855 323.69991 195.377757 330.794021 197.458966 337.557519 
C 199.540176 344.321018 202.871038 350.634784 207.278609 356.170997 
C 211.68618 361.707211 217.092833 366.368368 223.217848 369.912453 
C 229.342862 373.456538 236.078363 375.821133 243.074633 376.883465 
C 250.070903 377.945797 257.204724 377.687156 264.105695 376.12097 
C 271.006666 374.554784 277.553248 371.708638 283.405532 367.730307 
C 289.257816 363.751977 294.312732 358.711529 298.307819 352.870671 
C 302.302907 347.029813 305.167805 340.491415 306.753763 333.594961 
C 308.339721 326.698507 308.618808 319.565458 307.576533 312.566172 
C 306.534258 305.566886 304.188977 298.824635 300.662461 292.689488 
C 297.135946 286.554341 292.490304 281.13435 286.966746 276.71093 
C 281.443188 272.287509 275.138994 268.938565 268.381489 266.837979 
L 251.574468 320.905532 
z
" style="fill: #3c7ea6; stroke: #ffffff; stroke-width: 1.2; stroke-linejoin: miter"/>
   </g>
   <g id="patch_17">
    <path d="M 268.381497 266.83798 
C 266.567838 266.274201 264.726961 265.802038 262.865847 265.423275 
C 261.004733 265.044512 259.12574 264.759636 257.235995 264.569723 
L 251.574468 320.905532 
z
" style="fill: #d4943a; stroke: #ffffff; stroke-width: 1.2; stroke-linejoin: miter"/>
   </g>
   <g id="patch_18">
    <path d="M 257.235995 264.569723 
C 256.295517 264.475209 255.352819 264.404261 254.408789 264.356943 
C 253.464759 264.309625 252.519691 264.285957 251.574476 264.285957 
L 251.574468 320.905532 
z
" style="fill: #b83a3a; stroke: #ffffff; stroke-width: 1.2; stroke-linejoin: miter"/>
   </g>
   <g id="matplotlib.axis_9"/>
   <g id="matplotlib.axis_10"/>
   <g id="text_17">
    <!-- 95.2% -->
    <g style="fill: #ffffff" transform="translate(234.757294 353.624958) scale(0.07 -0.07)">
     <use xlink:href="#DejaVuSans-Bold-39"/>
     <use xlink:href="#DejaVuSans-Bold-35" transform="translate(69.580078 0)"/>
     <use xlink:href="#DejaVuSans-Bold-2e" transform="translate(139.160156 0)"/>
     <use xlink:href="#DejaVuSans-Bold-32" transform="translate(177.148438 0)"/>
     <use xlink:href="#DejaVuSans-Bold-25" transform="translate(246.728516 0)"/>
    </g>
   </g>
   <g id="text_18">
    <!-- 3.2% -->
    <g style="fill: #ffffff" transform="translate(248.077695 292.321852) scale(0.07 -0.07)">
     <use xlink:href="#DejaVuSans-Bold-33"/>
     <use xlink:href="#DejaVuSans-Bold-2e" transform="translate(69.580078 0)"/>
     <use xlink:href="#DejaVuSans-Bold-32" transform="translate(107.568359 0)"/>
     <use xlink:href="#DejaVuSans-Bold-25" transform="translate(177.148438 0)"/>
    </g>
   </g>
   <g id="patch_19">
    <path d="M 254.912667 254.304532 
Q 254.569094 261.159207 254.225522 268.013882 
" style="fill: none; stroke: #b83a3a; stroke-width: 0.6; stroke-linecap: round"/>
   </g>
   <g id="text_19">
    <!-- DDoS -->
    <g style="fill: #b83a3a" transform="translate(246.965213 243.0032) scale(0.055 -0.055)">
     <use xlink:href="#DejaVuSans-Bold-44"/>
     <use xlink:href="#DejaVuSans-Bold-44" transform="translate(83.007812 0)"/>
     <use xlink:href="#DejaVuSans-Bold-6f" transform="translate(166.015625 0)"/>
     <use xlink:href="#DejaVuSans-Bold-53" transform="translate(234.716797 0)"/>
    </g>
    <!-- 1.6% -->
    <g style="fill: #b83a3a" transform="translate(247.773885 249.161997) scale(0.055 -0.055)">
     <use xlink:href="#DejaVuSans-Bold-31"/>
     <use xlink:href="#DejaVuSans-Bold-2e" transform="translate(69.580078 0)"/>
     <use xlink:href="#DejaVuSans-Bold-36" transform="translate(107.568359 0)"/>
     <use xlink:href="#DejaVuSans-Bold-25" transform="translate(177.148438 0)"/>
    </g>
   </g>
   <g id="text_20">
    <!-- Test — components -->
    <g transform="translate(210.710015 235.732704) scale(0.075 -0.075)">
     <use xlink:href="#DejaVuSans-Bold-54"/>
     <use xlink:href="#DejaVuSans-Bold-65" transform="translate(54.962891 0)"/>
     <use xlink:href="#DejaVuSans-Bold-73" transform="translate(122.785156 0)"/>
     <use xlink:href="#DejaVuSans-Bold-74" transform="translate(182.306641 0)"/>
     <use xlink:href="#DejaVuSans-Bold-20" transform="translate(230.109375 0)"/>
     <use xlink:href="#DejaVuSans-Bold-2014" transform="translate(264.923828 0)"/>
     <use xlink:href="#DejaVuSans-Bold-20" transform="translate(364.923828 0)"/>
     <use xlink:href="#DejaVuSans-Bold-63" transform="translate(399.738281 0)"/>
     <use xlink:href="#DejaVuSans-Bold-6f" transform="translate(459.015625 0)"/>
     <use xlink:href="#DejaVuSans-Bold-6d" transform="translate(527.716797 0)"/>
     <use xlink:href="#DejaVuSans-Bold-70" transform="translate(631.916016 0)"/>
     <use xlink:href="#DejaVuSans-Bold-6f" transform="translate(703.498047 0)"/>
     <use xlink:href="#DejaVuSans-Bold-6e" transform="translate(772.199219 0)"/>
     <use xlink:href="#DejaVuSans-Bold-65" transform="translate(843.390625 0)"/>
     <use xlink:href="#DejaVuSans-Bold-6e" transform="translate(911.212891 0)"/>
     <use xlink:href="#DejaVuSans-Bold-74" transform="translate(982.404297 0)"/>
     <use xlink:href="#DejaVuSans-Bold-73" transform="translate(1030.207031 0)"/>
    </g>
    <!-- (1,247,266) -->
    <g transform="translate(227.033648 244.131064) scale(0.075 -0.075)">
     <use xlink:href="#DejaVuSans-Bold-28"/>
     <use xlink:href="#DejaVuSans-Bold-31" transform="translate(45.703125 0)"/>
     <use xlink:href="#DejaVuSans-Bold-2c" transform="translate(115.283203 0)"/>
     <use xlink:href="#DejaVuSans-Bold-32" transform="translate(153.271484 0)"/>
     <use xlink:href="#DejaVuSans-Bold-34" transform="translate(222.851562 0)"/>
     <use xlink:href="#DejaVuSans-Bold-37" transform="translate(292.431641 0)"/>
     <use xlink:href="#DejaVuSans-Bold-2c" transform="translate(362.011719 0)"/>
     <use xlink:href="#DejaVuSans-Bold-32" transform="translate(400 0)"/>
     <use xlink:href="#DejaVuSans-Bold-36" transform="translate(469.580078 0)"/>
     <use xlink:href="#DejaVuSans-Bold-36" transform="translate(539.160156 0)"/>
     <use xlink:href="#DejaVuSans-Bold-29" transform="translate(608.740234 0)"/>
    </g>
   </g>
  </g>
  <g id="axes_6">
   <g id="patch_20">
    <path d="M 425.174468 264.285957 
C 414.990331 264.285957 404.992382 267.033682 396.238639 272.238356 
C 387.484896 277.44303 380.295434 284.91435 375.431068 293.861672 
C 370.566701 302.808995 368.205292 312.905169 368.596733 323.08178 
C 368.988173 333.258392 372.118151 343.14334 377.655442 351.690566 
C 383.192732 360.237792 390.934866 367.134771 400.062546 371.651641 
C 409.190225 376.168511 419.369702 378.140115 429.523748 377.357812 
C 439.677794 376.575509 449.435134 373.067903 457.76321 367.206181 
C 466.091287 361.344459 472.68559 353.34295 476.848288 344.048404 
L 425.174468 320.905532 
z
" style="fill: #3c7ea6; stroke: #ffffff; stroke-width: 1.2; stroke-linejoin: miter"/>
   </g>
   <g id="patch_21">
    <path d="M 476.848288 344.0484 
C 477.353366 342.92065 477.821395 341.776667 478.251614 340.618291 
C 478.681832 339.459914 479.074016 338.287762 479.427532 337.103722 
L 425.174468 320.905532 
z
" style="fill: #d4943a; stroke: #ffffff; stroke-width: 1.2; stroke-linejoin: miter"/>
   </g>
   <g id="patch_22">
    <path d="M 479.427532 337.103722 
C 481.950788 328.652502 482.464768 319.727461 480.928355 311.042452 
C 479.391942 302.357442 475.847218 294.150374 470.577723 287.077724 
C 465.308229 280.005076 458.458294 274.260563 450.57584 270.30369 
C 442.693386 266.346817 433.994336 264.285957 425.174476 264.285957 
L 425.174468 320.905532 
z
" style="fill: #b83a3a; stroke: #ffffff; stroke-width: 1.2; stroke-linejoin: miter"/>
   </g>
   <g id="matplotlib.axis_11"/>
   <g id="matplotlib.axis_12"/>
   <g id="text_21">
    <!-- 68.3% -->
    <g style="fill: #ffffff" transform="translate(386.896744 339.768872) scale(0.07 -0.07)">
     <use xlink:href="#DejaVuSans-Bold-36"/>
     <use xlink:href="#DejaVuSans-Bold-38" transform="translate(69.580078 0)"/>
     <use xlink:href="#DejaVuSans-Bold-2e" transform="translate(139.160156 0)"/>
     <use xlink:href="#DejaVuSans-Bold-33" transform="translate(177.148438 0)"/>
     <use xlink:href="#DejaVuSans-Bold-25" transform="translate(246.728516 0)"/>
    </g>
   </g>
   <g id="text_22">
    <!-- 2.1% -->
    <g style="fill: #ffffff" transform="translate(444.659867 333.679112) scale(0.07 -0.07)">
     <use xlink:href="#DejaVuSans-Bold-32"/>
     <use xlink:href="#DejaVuSans-Bold-2e" transform="translate(69.580078 0)"/>
     <use xlink:href="#DejaVuSans-Bold-31" transform="translate(107.568359 0)"/>
     <use xlink:href="#DejaVuSans-Bold-25" transform="translate(177.148438 0)"/>
    </g>
   </g>
   <g id="text_23">
    <!-- 29.6% -->
    <g style="fill: #ffffff" transform="translate(438.003984 304.231788) scale(0.07 -0.07)">
     <use xlink:href="#DejaVuSans-Bold-32"/>
     <use xlink:href="#DejaVuSans-Bold-39" transform="translate(69.580078 0)"/>
     <use xlink:href="#DejaVuSans-Bold-2e" transform="translate(139.160156 0)"/>
     <use xlink:href="#DejaVuSans-Bold-36" transform="translate(177.148438 0)"/>
     <use xlink:href="#DejaVuSans-Bold-25" transform="translate(246.728516 0)"/>
    </g>
   </g>
   <g id="text_24">
    <!-- Genericity — components -->
    <g transform="translate(371.224273 235.674111) scale(0.075 -0.075)">
     <use xlink:href="#DejaVuSans-Bold-47"/>
     <use xlink:href="#DejaVuSans-Bold-65" transform="translate(82.080078 0)"/>
     <use xlink:href="#DejaVuSans-Bold-6e" transform="translate(149.902344 0)"/>
     <use xlink:href="#DejaVuSans-Bold-65" transform="translate(221.09375 0)"/>
     <use xlink:href="#DejaVuSans-Bold-72" transform="translate(288.916016 0)"/>
     <use xlink:href="#DejaVuSans-Bold-69" transform="translate(338.232422 0)"/>
     <use xlink:href="#DejaVuSans-Bold-63" transform="translate(372.509766 0)"/>
     <use xlink:href="#DejaVuSans-Bold-69" transform="translate(431.787109 0)"/>
     <use xlink:href="#DejaVuSans-Bold-74" transform="translate(466.064453 0)"/>
     <use xlink:href="#DejaVuSans-Bold-79" transform="translate(513.867188 0)"/>
     <use xlink:href="#DejaVuSans-Bold-20" transform="translate(579.052734 0)"/>
     <use xlink:href="#DejaVuSans-Bold-2014" transform="translate(613.867188 0)"/>
     <use xlink:href="#DejaVuSans-Bold-20" transform="translate(713.867188 0)"/>
     <use xlink:href="#DejaVuSans-Bold-63" transform="translate(748.681641 0)"/>
     <use xlink:href="#DejaVuSans-Bold-6f" transform="translate(807.958984 0)"/>
     <use xlink:href="#DejaVuSans-Bold-6d" transform="translate(876.660156 0)"/>
     <use xlink:href="#DejaVuSans-Bold-70" transform="translate(980.859375 0)"/>
     <use xlink:href="#DejaVuSans-Bold-6f" transform="translate(1052.441406 0)"/>
     <use xlink:href="#DejaVuSans-Bold-6e" transform="translate(1121.142578 0)"/>
     <use xlink:href="#DejaVuSans-Bold-65" transform="translate(1192.333984 0)"/>
     <use xlink:href="#DejaVuSans-Bold-6e" transform="translate(1260.15625 0)"/>
     <use xlink:href="#DejaVuSans-Bold-74" transform="translate(1331.347656 0)"/>
     <use xlink:href="#DejaVuSans-Bold-73" transform="translate(1379.150391 0)"/>
    </g>
    <!-- (2,452,610) -->
    <g transform="translate(400.633648 244.131064) scale(0.075 -0.075)">
     <use xlink:href="#DejaVuSans-Bold-28"/>
     <use xlink:href="#DejaVuSans-Bold-32" transform="translate(45.703125 0)"/>
     <use xlink:href="#DejaVuSans-Bold-2c" transform="translate(115.283203 0)"/>
     <use xlink:href="#DejaVuSans-Bold-34" transform="translate(153.271484 0)"/>
     <use xlink:href="#DejaVuSans-Bold-35" transform="translate(222.851562 0)"/>
     <use xlink:href="#DejaVuSans-Bold-32" transform="translate(292.431641 0)"/>
     <use xlink:href="#DejaVuSans-Bold-2c" transform="translate(362.011719 0)"/>
     <use xlink:href="#DejaVuSans-Bold-36" transform="translate(400 0)"/>
     <use xlink:href="#DejaVuSans-Bold-31" transform="translate(469.580078 0)"/>
     <use xlink:href="#DejaVuSans-Bold-30" transform="translate(539.160156 0)"/>
     <use xlink:href="#DejaVuSans-Bold-29" transform="translate(608.740234 0)"/>
    </g>
   </g>
  </g>
  <g id="text_25">
   <!-- Class distribution — events vs components -->
   <g transform="translate(122.285406 14.798438) scale(0.1 -0.1)">
    <defs>
     <path id="DejaVuSans-Bold-43" d="M 4288 256 
Q 3956 84 3597 -3 
Q 3238 -91 2847 -91 
Q 1681 -91 1000 561 
Q 319 1213 319 2328 
Q 319 3447 1000 4098 
Q 1681 4750 2847 4750 
Q 3238 4750 3597 4662 
Q 3956 4575 4288 4403 
L 4288 3438 
Q 3953 3666 3628 3772 
Q 3303 3878 2944 3878 
Q 2300 3878 1931 3465 
Q 1563 3053 1563 2328 
Q 1563 1606 1931 1193 
Q 2300 781 2944 781 
Q 3303 781 3628 887 
Q 3953 994 4288 1222 
L 4288 256 
z
" transform="scale(0.015625)"/>
     <path id="DejaVuSans-Bold-6c" d="M 538 4863 
L 1656 4863 
L 1656 0 
L 538 0 
L 538 4863 
z
" transform="scale(0.015625)"/>
     <path id="DejaVuSans-Bold-64" d="M 2919 2988 
L 2919 4863 
L 4044 4863 
L 4044 0 
L 2919 0 
L 2919 506 
Q 2688 197 2409 53 
Q 2131 -91 1766 -91 
Q 1119 -91 703 423 
Q 288 938 288 1747 
Q 288 2556 703 3070 
Q 1119 3584 1766 3584 
Q 2128 3584 2408 3439 
Q 2688 3294 2919 2988 
z
M 2181 722 
Q 2541 722 2730 984 
Q 2919 1247 2919 1747 
Q 2919 2247 2730 2509 
Q 2541 2772 2181 2772 
Q 1825 2772 1636 2509 
Q 1447 2247 1447 1747 
Q 1447 1247 1636 984 
Q 1825 722 2181 722 
z
" transform="scale(0.015625)"/>
     <path id="DejaVuSans-Bold-62" d="M 2400 722 
Q 2759 722 2948 984 
Q 3138 1247 3138 1747 
Q 3138 2247 2948 2509 
Q 2759 2772 2400 2772 
Q 2041 2772 1848 2508 
Q 1656 2244 1656 1747 
Q 1656 1250 1848 986 
Q 2041 722 2400 722 
z
M 1656 2988 
Q 1888 3294 2169 3439 
Q 2450 3584 2816 3584 
Q 3463 3584 3878 3070 
Q 4294 2556 4294 1747 
Q 4294 938 3878 423 
Q 3463 -91 2816 -91 
Q 2450 -91 2169 54 
Q 1888 200 1656 506 
L 1656 0 
L 538 0 
L 538 4863 
L 1656 4863 
L 1656 2988 
z
" transform="scale(0.015625)"/>
     <path id="DejaVuSans-Bold-75" d="M 500 1363 
L 500 3500 
L 1625 3500 
L 1625 3150 
Q 1625 2866 1622 2436 
Q 1619 2006 1619 1863 
Q 1619 1441 1641 1255 
Q 1663 1069 1716 984 
Q 1784 875 1895 815 
Q 2006 756 2150 756 
Q 2500 756 2700 1025 
Q 2900 1294 2900 1772 
L 2900 3500 
L 4019 3500 
L 4019 0 
L 2900 0 
L 2900 506 
Q 2647 200 2364 54 
Q 2081 -91 1741 -91 
Q 1134 -91 817 281 
Q 500 653 500 1363 
z
" transform="scale(0.015625)"/>
    </defs>
    <use xlink:href="#DejaVuSans-Bold-43"/>
    <use xlink:href="#DejaVuSans-Bold-6c" transform="translate(73.388672 0)"/>
    <use xlink:href="#DejaVuSans-Bold-61" transform="translate(107.666016 0)"/>
    <use xlink:href="#DejaVuSans-Bold-73" transform="translate(175.146484 0)"/>
    <use xlink:href="#DejaVuSans-Bold-73" transform="translate(234.667969 0)"/>
    <use xlink:href="#DejaVuSans-Bold-20" transform="translate(294.189453 0)"/>
    <use xlink:href="#DejaVuSans-Bold-64" transform="translate(329.003906 0)"/>
    <use xlink:href="#DejaVuSans-Bold-69" transform="translate(400.585938 0)"/>
    <use xlink:href="#DejaVuSans-Bold-73" transform="translate(434.863281 0)"/>
    <use xlink:href="#DejaVuSans-Bold-74" transform="translate(494.384766 0)"/>
    <use xlink:href="#DejaVuSans-Bold-72" transform="translate(542.1875 0)"/>
    <use xlink:href="#DejaVuSans-Bold-69" transform="translate(591.503906 0)"/>
    <use xlink:href="#DejaVuSans-Bold-62" transform="translate(625.78125 0)"/>
    <use xlink:href="#DejaVuSans-Bold-75" transform="translate(697.363281 0)"/>
    <use xlink:href="#DejaVuSans-Bold-74" transform="translate(768.554688 0)"/>
    <use xlink:href="#DejaVuSans-Bold-69" transform="translate(816.357422 0)"/>
    <use xlink:href="#DejaVuSans-Bold-6f" transform="translate(850.634766 0)"/>
    <use xlink:href="#DejaVuSans-Bold-6e" transform="translate(919.335938 0)"/>
    <use xlink:href="#DejaVuSans-Bold-20" transform="translate(990.527344 0)"/>
    <use xlink:href="#DejaVuSans-Bold-2014" transform="translate(1025.341797 0)"/>
    <use xlink:href="#DejaVuSans-Bold-20" transform="translate(1125.341797 0)"/>
    <use xlink:href="#DejaVuSans-Bold-65" transform="translate(1160.15625 0)"/>
    <use xlink:href="#DejaVuSans-Bold-76" transform="translate(1227.978516 0)"/>
    <use xlink:href="#DejaVuSans-Bold-65" transform="translate(1293.164062 0)"/>
    <use xlink:href="#DejaVuSans-Bold-6e" transform="translate(1360.986328 0)"/>
    <use xlink:href="#DejaVuSans-Bold-74" transform="translate(1432.177734 0)"/>
    <use xlink:href="#DejaVuSans-Bold-73" transform="translate(1479.980469 0)"/>
    <use xlink:href="#DejaVuSans-Bold-20" transform="translate(1539.501953 0)"/>
    <use xlink:href="#DejaVuSans-Bold-76" transform="translate(1574.316406 0)"/>
    <use xlink:href="#DejaVuSans-Bold-73" transform="translate(1639.501953 0)"/>
    <use xlink:href="#DejaVuSans-Bold-20" transform="translate(1699.023438 0)"/>
    <use xlink:href="#DejaVuSans-Bold-63" transform="translate(1733.837891 0)"/>
    <use xlink:href="#DejaVuSans-Bold-6f" transform="translate(1793.115234 0)"/>
    <use xlink:href="#DejaVuSans-Bold-6d" transform="translate(1861.816406 0)"/>
    <use xlink:href="#DejaVuSans-Bold-70" transform="translate(1966.015625 0)"/>
    <use xlink:href="#DejaVuSans-Bold-6f" transform="translate(2037.597656 0)"/>
    <use xlink:href="#DejaVuSans-Bold-6e" transform="translate(2106.298828 0)"/>
    <use xlink:href="#DejaVuSans-Bold-65" transform="translate(2177.490234 0)"/>
    <use xlink:href="#DejaVuSans-Bold-6e" transform="translate(2245.3125 0)"/>
    <use xlink:href="#DejaVuSans-Bold-74" transform="translate(2316.503906 0)"/>
    <use xlink:href="#DejaVuSans-Bold-73" transform="translate(2364.306641 0)"/>
   </g>
  </g>
  <g id="legend_1">
   <g id="patch_23">
    <path d="M 153.094195 435.210234 
L 168.094195 435.210234 
L 168.094195 429.960234 
L 153.094195 429.960234 
z
" style="fill: #3c7ea6"/>
   </g>
   <g id="text_26">
    <!-- Normal -->
    <g transform="translate(174.094195 435.210234) scale(0.075 -0.075)">
     <defs>
      <path id="DejaVuSans-4e" d="M 628 4666 
L 1478 4666 
L 3547 763 
L 3547 4666 
L 4159 4666 
L 4159 0 
L 3309 0 
L 1241 3903 
L 1241 0 
L 628 0 
L 628 4666 
z
" transform="scale(0.015625)"/>
      <path id="DejaVuSans-6f" d="M 1959 3097 
Q 1497 3097 1228 2736 
Q 959 2375 959 1747 
Q 959 1119 1226 758 
Q 1494 397 1959 397 
Q 2419 397 2687 759 
Q 2956 1122 2956 1747 
Q 2956 2369 2687 2733 
Q 2419 3097 1959 3097 
z
M 1959 3584 
Q 2709 3584 3137 3096 
Q 3566 2609 3566 1747 
Q 3566 888 3137 398 
Q 2709 -91 1959 -91 
Q 1206 -91 779 398 
Q 353 888 353 1747 
Q 353 2609 779 3096 
Q 1206 3584 1959 3584 
z
" transform="scale(0.015625)"/>
      <path id="DejaVuSans-72" d="M 2631 2963 
Q 2534 3019 2420 3045 
Q 2306 3072 2169 3072 
Q 1681 3072 1420 2755 
Q 1159 2438 1159 1844 
L 1159 0 
L 581 0 
L 581 3500 
L 1159 3500 
L 1159 2956 
Q 1341 3275 1631 3429 
Q 1922 3584 2338 3584 
Q 2397 3584 2469 3576 
Q 2541 3569 2628 3553 
L 2631 2963 
z
" transform="scale(0.015625)"/>
      <path id="DejaVuSans-6d" d="M 3328 2828 
Q 3544 3216 3844 3400 
Q 4144 3584 4550 3584 
Q 5097 3584 5394 3201 
Q 5691 2819 5691 2113 
L 5691 0 
L 5113 0 
L 5113 2094 
Q 5113 2597 4934 2840 
Q 4756 3084 4391 3084 
Q 3944 3084 3684 2787 
Q 3425 2491 3425 1978 
L 3425 0 
L 2847 0 
L 2847 2094 
Q 2847 2600 2669 2842 
Q 2491 3084 2119 3084 
Q 1678 3084 1418 2786 
Q 1159 2488 1159 1978 
L 1159 0 
L 581 0 
L 581 3500 
L 1159 3500 
L 1159 2956 
Q 1356 3278 1631 3431 
Q 1906 3584 2284 3584 
Q 2666 3584 2933 3390 
Q 3200 3197 3328 2828 
z
" transform="scale(0.015625)"/>
      <path id="DejaVuSans-61" d="M 2194 1759 
Q 1497 1759 1228 1600 
Q 959 1441 959 1056 
Q 959 750 1161 570 
Q 1363 391 1709 391 
Q 2188 391 2477 730 
Q 2766 1069 2766 1631 
L 2766 1759 
L 2194 1759 
z
M 3341 1997 
L 3341 0 
L 2766 0 
L 2766 531 
Q 2569 213 2275 61 
Q 1981 -91 1556 -91 
Q 1019 -91 701 211 
Q 384 513 384 1019 
Q 384 1609 779 1909 
Q 1175 2209 1959 2209 
L 2766 2209 
L 2766 2266 
Q 2766 2663 2505 2880 
Q 2244 3097 1772 3097 
Q 1472 3097 1187 3025 
Q 903 2953 641 2809 
L 641 3341 
Q 956 3463 1253 3523 
Q 1550 3584 1831 3584 
Q 2591 3584 2966 3190 
Q 3341 2797 3341 1997 
z
" transform="scale(0.015625)"/>
      <path id="DejaVuSans-6c" d="M 603 4863 
L 1178 4863 
L 1178 0 
L 603 0 
L 603 4863 
z
" transform="scale(0.015625)"/>
     </defs>
     <use xlink:href="#DejaVuSans-4e"/>
     <use xlink:href="#DejaVuSans-6f" transform="translate(74.804688 0)"/>
     <use xlink:href="#DejaVuSans-72" transform="translate(135.986328 0)"/>
     <use xlink:href="#DejaVuSans-6d" transform="translate(175.349609 0)"/>
     <use xlink:href="#DejaVuSans-61" transform="translate(272.761719 0)"/>
     <use xlink:href="#DejaVuSans-6c" transform="translate(334.041016 0)"/>
    </g>
   </g>
   <g id="patch_24">
    <path d="M 216.231304 435.210234 
L 231.231304 435.210234 
L 231.231304 429.960234 
L 216.231304 429.960234 
z
" style="fill: #d4943a"/>
   </g>
   <g id="text_27">
    <!-- Suspicious -->
    <g transform="translate(237.231304 435.210234) scale(0.075 -0.075)">
     <defs>
      <path id="DejaVuSans-53" d="M 3425 4513 
L 3425 3897 
Q 3066 4069 2747 4153 
Q 2428 4238 2131 4238 
Q 1616 4238 1336 4038 
Q 1056 3838 1056 3469 
Q 1056 3159 1242 3001 
Q 1428 2844 1947 2747 
L 2328 2669 
Q 3034 2534 3370 2195 
Q 3706 1856 3706 1288 
Q 3706 609 3251 259 
Q 2797 -91 1919 -91 
Q 1588 -91 1214 -16 
Q 841 59 441 206 
L 441 856 
Q 825 641 1194 531 
Q 1563 422 1919 422 
Q 2459 422 2753 634 
Q 3047 847 3047 1241 
Q 3047 1584 2836 1778 
Q 2625 1972 2144 2069 
L 1759 2144 
Q 1053 2284 737 2584 
Q 422 2884 422 3419 
Q 422 4038 858 4394 
Q 1294 4750 2059 4750 
Q 2388 4750 2728 4690 
Q 3069 4631 3425 4513 
z
" transform="scale(0.015625)"/>
      <path id="DejaVuSans-75" d="M 544 1381 
L 544 3500 
L 1119 3500 
L 1119 1403 
Q 1119 906 1312 657 
Q 1506 409 1894 409 
Q 2359 409 2629 706 
Q 2900 1003 2900 1516 
L 2900 3500 
L 3475 3500 
L 3475 0 
L 2900 0 
L 2900 538 
Q 2691 219 2414 64 
Q 2138 -91 1772 -91 
Q 1169 -91 856 284 
Q 544 659 544 1381 
z
M 1991 3584 
L 1991 3584 
z
" transform="scale(0.015625)"/>
      <path id="DejaVuSans-73" d="M 2834 3397 
L 2834 2853 
Q 2591 2978 2328 3040 
Q 2066 3103 1784 3103 
Q 1356 3103 1142 2972 
Q 928 2841 928 2578 
Q 928 2378 1081 2264 
Q 1234 2150 1697 2047 
L 1894 2003 
Q 2506 1872 2764 1633 
Q 3022 1394 3022 966 
Q 3022 478 2636 193 
Q 2250 -91 1575 -91 
Q 1294 -91 989 -36 
Q 684 19 347 128 
L 347 722 
Q 666 556 975 473 
Q 1284 391 1588 391 
Q 1994 391 2212 530 
Q 2431 669 2431 922 
Q 2431 1156 2273 1281 
Q 2116 1406 1581 1522 
L 1381 1569 
Q 847 1681 609 1914 
Q 372 2147 372 2553 
Q 372 3047 722 3315 
Q 1072 3584 1716 3584 
Q 2034 3584 2315 3537 
Q 2597 3491 2834 3397 
z
" transform="scale(0.015625)"/>
      <path id="DejaVuSans-70" d="M 1159 525 
L 1159 -1331 
L 581 -1331 
L 581 3500 
L 1159 3500 
L 1159 2969 
Q 1341 3281 1617 3432 
Q 1894 3584 2278 3584 
Q 2916 3584 3314 3078 
Q 3713 2572 3713 1747 
Q 3713 922 3314 415 
Q 2916 -91 2278 -91 
Q 1894 -91 1617 61 
Q 1341 213 1159 525 
z
M 3116 1747 
Q 3116 2381 2855 2742 
Q 2594 3103 2138 3103 
Q 1681 3103 1420 2742 
Q 1159 2381 1159 1747 
Q 1159 1113 1420 752 
Q 1681 391 2138 391 
Q 2594 391 2855 752 
Q 3116 1113 3116 1747 
z
" transform="scale(0.015625)"/>
      <path id="DejaVuSans-69" d="M 603 3500 
L 1178 3500 
L 1178 0 
L 603 0 
L 603 3500 
z
M 603 4863 
L 1178 4863 
L 1178 4134 
L 603 4134 
L 603 4863 
z
" transform="scale(0.015625)"/>
      <path id="DejaVuSans-63" d="M 3122 3366 
L 3122 2828 
Q 2878 2963 2633 3030 
Q 2388 3097 2138 3097 
Q 1578 3097 1268 2742 
Q 959 2388 959 1747 
Q 959 1106 1268 751 
Q 1578 397 2138 397 
Q 2388 397 2633 464 
Q 2878 531 3122 666 
L 3122 134 
Q 2881 22 2623 -34 
Q 2366 -91 2075 -91 
Q 1284 -91 818 406 
Q 353 903 353 1747 
Q 353 2603 823 3093 
Q 1294 3584 2113 3584 
Q 2378 3584 2631 3529 
Q 2884 3475 3122 3366 
z
" transform="scale(0.015625)"/>
     </defs>
     <use xlink:href="#DejaVuSans-53"/>
     <use xlink:href="#DejaVuSans-75" transform="translate(63.476562 0)"/>
     <use xlink:href="#DejaVuSans-73" transform="translate(126.855469 0)"/>
     <use xlink:href="#DejaVuSans-70" transform="translate(178.955078 0)"/>
     <use xlink:href="#DejaVuSans-69" transform="translate(242.431641 0)"/>
     <use xlink:href="#DejaVuSans-63" transform="translate(270.214844 0)"/>
     <use xlink:href="#DejaVuSans-69" transform="translate(325.195312 0)"/>
     <use xlink:href="#DejaVuSans-6f" transform="translate(352.978516 0)"/>
     <use xlink:href="#DejaVuSans-75" transform="translate(414.160156 0)"/>
     <use xlink:href="#DejaVuSans-73" transform="translate(477.539062 0)"/>
    </g>
   </g>
   <g id="patch_25">
    <path d="M 291.954351 435.210234 
L 306.954351 435.210234 
L 306.954351 429.960234 
L 291.954351 429.960234 
z
" style="fill: #b83a3a"/>
   </g>
   <g id="text_28">
    <!-- DDoS -->
    <g transform="translate(312.954351 435.210234) scale(0.075 -0.075)">
     <defs>
      <path id="DejaVuSans-44" d="M 1259 4147 
L 1259 519 
L 2022 519 
Q 2988 519 3436 956 
Q 3884 1394 3884 2338 
Q 3884 3275 3436 3711 
Q 2988 4147 2022 4147 
L 1259 4147 
z
M 628 4666 
L 1925 4666 
Q 3281 4666 3915 4102 
Q 4550 3538 4550 2338 
Q 4550 1131 3912 565 
Q 3275 0 1925 0 
L 628 0 
L 628 4666 
z
" transform="scale(0.015625)"/>
     </defs>
     <use xlink:href="#DejaVuSans-44"/>
     <use xlink:href="#DejaVuSans-44" transform="translate(77.001953 0)"/>
     <use xlink:href="#DejaVuSans-6f" transform="translate(154.003906 0)"/>
     <use xlink:href="#DejaVuSans-53" transform="translate(215.185547 0)"/>
    </g>
   </g>
  </g>
 </g>
</svg>
