<?xml version="1.0" encoding="utf-8" standalone="no"?>
<!DOCTYPE svg PUBLIC "-//W3C//DTD SVG 1.1//EN"
  "http://www.w3.org/Graphics/SVG/1.1/DTD/svg11.dtd">
<svg xmlns:xlink="http://www.w3.org/1999/xlink" width="1000.46125pt" height="355.995966pt" viewBox="0 0 1000.46125 355.995966" xmlns="http://www.w3.org/2000/svg" version="1.1">
 <metadata>
  <rdf:RDF xmlns:dc="http://purl.org/dc/elements/1.1/" xmlns:cc="http://creativecommons.org/ns#" xmlns:rdf="http://www.w3.org/1999/02/22-rdf-syntax-ns#">
   <cc:Work>
    <dc:type rdf:resource="http://purl.org/dc/dcmitype/StillImage"/>
    <dc:date>2026-03-03T08:38:04.639752</dc:date>
    <dc:format>image/svg+xml</dc:format>
    <dc:creator>
     <cc:Agent>
      <dc:title>Matplotlib v3.10.8, https://matplotlib.org/</dc:title>
     </cc:Agent>
    </dc:creator>
   </cc:Work>
  </rdf:RDF>
 </metadata>
 <defs>
  <style type="text/css">*{stroke-linejoin: round; stroke-linecap: butt}</style>
 </defs>
 <g id="figure_1">
  <g id="patch_1">
   <path d="M -0 355.995966 
L 1000.46125 355.995966 
L 1000.46125 0 
L -0 0 
z
" style="fill: #ffffff"/>
  </g>
  <g id="axes_1">
   <g id="patch_2">
    <path d="M 43.78125 310.287852 
L 494.66125 310.287852 
L 494.66125 51.36 
L 43.78125 51.36 
z
" style="fill: #ffffff"/>
   </g>
   <g id="patch_3">
    <path d="M 64.275795 310.287852 
L 72.598284 310.287852 
L 72.598284 84.991515 
L 64.275795 84.991515 
z
" clip-path="url(#p26dcd1febb)" style="fill: #2ecc71; opacity: 0.5"/>
   </g>
   <g id="patch_4">
    <path d="M 72.598284 310.287852 
L 80.920772 310.287852 
L 80.920772 310.287852 
L 72.598284 310.287852 
z
" clip-path="url(#p26dcd1febb)" style="fill: #2ecc71; opacity: 0.5"/>
   </g>
   <g id="patch_5">
    <path d="M 80.920772 310.287852 
L 89.24326 310.287852 
L 89.24326 310.287852 
L 80.920772 310.287852 
z
" clip-path="url(#p26dcd1febb)" style="fill: #2ecc71; opacity: 0.5"/>
   </g>
   <g id="patch_6">
    <path d="M 89.24326 310.287852 
L 97.565748 310.287852 
L 97.565748 310.287852 
L 89.24326 310.287852 
z
" clip-path="url(#p26dcd1febb)" style="fill: #2ecc71; opacity: 0.5"/>
   </g>
   <g id="patch_7">
    <path d="M 97.565748 310.287852 
L 105.888236 310.287852 
L 105.888236 283.479041 
L 97.565748 283.479041 
z
" clip-path="url(#p26dcd1febb)" style="fill: #2ecc71; opacity: 0.5"/>
   </g>
   <g id="patch_8">
    <path d="M 105.888236 310.287852 
L 114.210724 310.287852 
L 114.210724 310.287852 
L 105.888236 310.287852 
z
" clip-path="url(#p26dcd1febb)" style="fill: #2ecc71; opacity: 0.5"/>
   </g>
   <g id="patch_9">
    <path d="M 114.210724 310.287852 
L 122.533212 310.287852 
L 122.533212 302.962351 
L 114.210724 302.962351 
z
" clip-path="url(#p26dcd1febb)" style="fill: #2ecc71; opacity: 0.5"/>
   </g>
   <g id="patch_10">
    <path d="M 122.533212 310.287852 
L 130.8557 310.287852 
L 130.8557 310.287852 
L 122.533212 310.287852 
z
" clip-path="url(#p26dcd1febb)" style="fill: #2ecc71; opacity: 0.5"/>
   </g>
   <g id="patch_11">
    <path d="M 130.8557 310.287852 
L 139.178188 310.287852 
L 139.178188 307.105358 
L 130.8557 307.105358 
z
" clip-path="url(#p26dcd1febb)" style="fill: #2ecc71; opacity: 0.5"/>
   </g>
   <g id="patch_12">
    <path d="M 139.178188 310.287852 
L 147.500676 310.287852 
L 147.500676 309.214861 
L 139.178188 309.214861 
z
" clip-path="url(#p26dcd1febb)" style="fill: #2ecc71; opacity: 0.5"/>
   </g>
   <g id="patch_13">
    <path d="M 147.500676 310.287852 
L 155.823164 310.287852 
L 155.823164 309.678159 
L 147.500676 309.678159 
z
" clip-path="url(#p26dcd1febb)" style="fill: #2ecc71; opacity: 0.5"/>
   </g>
   <g id="patch_14">
    <path d="M 155.823164 310.287852 
L 164.145652 310.287852 
L 164.145652 309.850734 
L 155.823164 309.850734 
z
" clip-path="url(#p26dcd1febb)" style="fill: #2ecc71; opacity: 0.5"/>
   </g>
   <g id="patch_15">
    <path d="M 164.145652 310.287852 
L 172.46814 310.287852 
L 172.46814 309.412917 
L 164.145652 309.412917 
z
" clip-path="url(#p26dcd1febb)" style="fill: #2ecc71; opacity: 0.5"/>
   </g>
   <g id="patch_16">
    <path d="M 172.46814 310.287852 
L 180.790628 310.287852 
L 180.790628 309.982336 
L 172.46814 309.982336 
z
" clip-path="url(#p26dcd1febb)" style="fill: #2ecc71; opacity: 0.5"/>
   </g>
   <g id="patch_17">
    <path d="M 180.790628 310.287852 
L 189.113116 310.287852 
L 189.113116 309.600738 
L 180.790628 309.600738 
z
" clip-path="url(#p26dcd1febb)" style="fill: #2ecc71; opacity: 0.5"/>
   </g>
   <g id="patch_18">
    <path d="M 189.113116 310.287852 
L 197.435604 310.287852 
L 197.435604 309.852458 
L 189.113116 309.852458 
z
" clip-path="url(#p26dcd1febb)" style="fill: #2ecc71; opacity: 0.5"/>
   </g>
   <g id="patch_19">
    <path d="M 197.435604 310.287852 
L 205.758092 310.287852 
L 205.758092 310.014779 
L 197.435604 310.014779 
z
" clip-path="url(#p26dcd1febb)" style="fill: #2ecc71; opacity: 0.5"/>
   </g>
   <g id="patch_20">
    <path d="M 205.758092 310.287852 
L 214.08058 310.287852 
L 214.08058 310.068653 
L 205.758092 310.068653 
z
" clip-path="url(#p26dcd1febb)" style="fill: #2ecc71; opacity: 0.5"/>
   </g>
   <g id="patch_21">
    <path d="M 214.08058 310.287852 
L 222.403068 310.287852 
L 222.403068 310.076635 
L 214.08058 310.076635 
z
" clip-path="url(#p26dcd1febb)" style="fill: #2ecc71; opacity: 0.5"/>
   </g>
   <g id="patch_22">
    <path d="M 222.403068 310.287852 
L 230.725557 310.287852 
L 230.725557 310.082155 
L 222.403068 310.082155 
z
" clip-path="url(#p26dcd1febb)" style="fill: #2ecc71; opacity: 0.5"/>
   </g>
   <g id="patch_23">
    <path d="M 230.725557 310.287852 
L 239.048045 310.287852 
L 239.048045 310.090685 
L 230.725557 310.090685 
z
" clip-path="url(#p26dcd1febb)" style="fill: #2ecc71; opacity: 0.5"/>
   </g>
   <g id="patch_24">
    <path d="M 239.048045 310.287852 
L 247.370533 310.287852 
L 247.370533 310.133977 
L 239.048045 310.133977 
z
" clip-path="url(#p26dcd1febb)" style="fill: #2ecc71; opacity: 0.5"/>
   </g>
   <g id="patch_25">
    <path d="M 247.370533 310.287852 
L 255.693021 310.287852 
L 255.693021 310.125387 
L 247.370533 310.125387 
z
" clip-path="url(#p26dcd1febb)" style="fill: #2ecc71; opacity: 0.5"/>
   </g>
   <g id="patch_26">
    <path d="M 255.693021 310.287852 
L 264.015509 310.287852 
L 264.015509 310.128496 
L 255.693021 310.128496 
z
" clip-path="url(#p26dcd1febb)" style="fill: #2ecc71; opacity: 0.5"/>
   </g>
   <g id="patch_27">
    <path d="M 264.015509 310.287852 
L 272.337997 310.287852 
L 272.337997 310.171514 
L 264.015509 310.171514 
z
" clip-path="url(#p26dcd1febb)" style="fill: #2ecc71; opacity: 0.5"/>
   </g>
   <g id="patch_28">
    <path d="M 272.337997 310.287852 
L 280.660485 310.287852 
L 280.660485 310.192555 
L 272.337997 310.192555 
z
" clip-path="url(#p26dcd1febb)" style="fill: #2ecc71; opacity: 0.5"/>
   </g>
   <g id="patch_29">
    <path d="M 280.660485 310.287852 
L 288.982973 310.287852 
L 288.982973 310.199474 
L 280.660485 310.199474 
z
" clip-path="url(#p26dcd1febb)" style="fill: #2ecc71; opacity: 0.5"/>
   </g>
   <g id="patch_30">
    <path d="M 288.982973 310.287852 
L 297.305461 310.287852 
L 297.305461 310.205637 
L 288.982973 310.205637 
z
" clip-path="url(#p26dcd1febb)" style="fill: #2ecc71; opacity: 0.5"/>
   </g>
   <g id="patch_31">
    <path d="M 297.305461 310.287852 
L 305.627949 310.287852 
L 305.627949 310.240179 
L 297.305461 310.240179 
z
" clip-path="url(#p26dcd1febb)" style="fill: #2ecc71; opacity: 0.5"/>
   </g>
   <g id="patch_32">
    <path d="M 305.627949 310.287852 
L 313.950437 310.287852 
L 313.950437 310.254445 
L 305.627949 310.254445 
z
" clip-path="url(#p26dcd1febb)" style="fill: #2ecc71; opacity: 0.5"/>
   </g>
   <g id="patch_33">
    <path d="M 313.950437 310.287852 
L 322.272925 310.287852 
L 322.272925 310.260791 
L 313.950437 310.260791 
z
" clip-path="url(#p26dcd1febb)" style="fill: #2ecc71; opacity: 0.5"/>
   </g>
   <g id="patch_34">
    <path d="M 322.272925 310.287852 
L 330.595413 310.287852 
L 330.595413 310.267919 
L 322.272925 310.267919 
z
" clip-path="url(#p26dcd1febb)" style="fill: #2ecc71; opacity: 0.5"/>
   </g>
   <g id="patch_35">
    <path d="M 330.595413 310.287852 
L 338.917901 310.287852 
L 338.917901 310.273392 
L 330.595413 310.273392 
z
" clip-path="url(#p26dcd1febb)" style="fill: #2ecc71; opacity: 0.5"/>
   </g>
   <g id="patch_36">
    <path d="M 338.917901 310.287852 
L 347.240389 310.287852 
L 347.240389 310.277517 
L 338.917901 310.277517 
z
" clip-path="url(#p26dcd1febb)" style="fill: #2ecc71; opacity: 0.5"/>
   </g>
   <g id="patch_37">
    <path d="M 347.240389 310.287852 
L 355.562877 310.287852 
L 355.562877 310.281148 
L 347.240389 310.281148 
z
" clip-path="url(#p26dcd1febb)" style="fill: #2ecc71; opacity: 0.5"/>
   </g>
   <g id="patch_38">
    <path d="M 355.562877 310.287852 
L 363.885365 310.287852 
L 363.885365 310.283448 
L 355.562877 310.283448 
z
" clip-path="url(#p26dcd1febb)" style="fill: #2ecc71; opacity: 0.5"/>
   </g>
   <g id="patch_39">
    <path d="M 363.885365 310.287852 
L 372.207853 310.287852 
L 372.207853 310.284566 
L 363.885365 310.284566 
z
" clip-path="url(#p26dcd1febb)" style="fill: #2ecc71; opacity: 0.5"/>
   </g>
   <g id="patch_40">
    <path d="M 372.207853 310.287852 
L 380.530342 310.287852 
L 380.530342 310.285775 
L 372.207853 310.285775 
z
" clip-path="url(#p26dcd1febb)" style="fill: #2ecc71; opacity: 0.5"/>
   </g>
   <g id="patch_41">
    <path d="M 380.530342 310.287852 
L 388.85283 310.287852 
L 388.85283 310.278702 
L 380.530342 310.278702 
z
" clip-path="url(#p26dcd1febb)" style="fill: #2ecc71; opacity: 0.5"/>
   </g>
   <g id="patch_42">
    <path d="M 64.275795 310.287852 
L 72.296619 310.287852 
L 72.296619 63.689898 
L 64.275795 63.689898 
z
" clip-path="url(#p26dcd1febb)" style="fill: #f39c12; opacity: 0.5"/>
   </g>
   <g id="patch_43">
    <path d="M 72.296619 310.287852 
L 80.317442 310.287852 
L 80.317442 310.287852 
L 72.296619 310.287852 
z
" clip-path="url(#p26dcd1febb)" style="fill: #f39c12; opacity: 0.5"/>
   </g>
   <g id="patch_44">
    <path d="M 80.317442 310.287852 
L 88.338266 310.287852 
L 88.338266 310.287852 
L 80.317442 310.287852 
z
" clip-path="url(#p26dcd1febb)" style="fill: #f39c12; opacity: 0.5"/>
   </g>
   <g id="patch_45">
    <path d="M 88.338266 310.287852 
L 96.359089 310.287852 
L 96.359089 310.287852 
L 88.338266 310.287852 
z
" clip-path="url(#p26dcd1febb)" style="fill: #f39c12; opacity: 0.5"/>
   </g>
   <g id="patch_46">
    <path d="M 96.359089 310.287852 
L 104.379912 310.287852 
L 104.379912 287.335878 
L 96.359089 287.335878 
z
" clip-path="url(#p26dcd1febb)" style="fill: #f39c12; opacity: 0.5"/>
   </g>
   <g id="patch_47">
    <path d="M 104.379912 310.287852 
L 112.400736 310.287852 
L 112.400736 310.287852 
L 104.379912 310.287852 
z
" clip-path="url(#p26dcd1febb)" style="fill: #f39c12; opacity: 0.5"/>
   </g>
   <g id="patch_48">
    <path d="M 112.400736 310.287852 
L 120.421559 310.287852 
L 120.421559 305.474157 
L 112.400736 305.474157 
z
" clip-path="url(#p26dcd1febb)" style="fill: #f39c12; opacity: 0.5"/>
   </g>
   <g id="patch_49">
    <path d="M 120.421559 310.287852 
L 128.442383 310.287852 
L 128.442383 310.287852 
L 120.421559 310.287852 
z
" clip-path="url(#p26dcd1febb)" style="fill: #f39c12; opacity: 0.5"/>
   </g>
   <g id="patch_50">
    <path d="M 128.442383 310.287852 
L 136.463206 310.287852 
L 136.463206 308.69412 
L 128.442383 308.69412 
z
" clip-path="url(#p26dcd1febb)" style="fill: #f39c12; opacity: 0.5"/>
   </g>
   <g id="patch_51">
    <path d="M 136.463206 310.287852 
L 144.484029 310.287852 
L 144.484029 309.546134 
L 136.463206 309.546134 
z
" clip-path="url(#p26dcd1febb)" style="fill: #f39c12; opacity: 0.5"/>
   </g>
   <g id="patch_52">
    <path d="M 144.484029 310.287852 
L 152.504853 310.287852 
L 152.504853 309.817933 
L 144.484029 309.817933 
z
" clip-path="url(#p26dcd1febb)" style="fill: #f39c12; opacity: 0.5"/>
   </g>
   <g id="patch_53">
    <path d="M 152.504853 310.287852 
L 160.525676 310.287852 
L 160.525676 309.936507 
L 152.504853 309.936507 
z
" clip-path="url(#p26dcd1febb)" style="fill: #f39c12; opacity: 0.5"/>
   </g>
   <g id="patch_54">
    <path d="M 160.525676 310.287852 
L 168.546499 310.287852 
L 168.546499 310.012726 
L 160.525676 310.012726 
z
" clip-path="url(#p26dcd1febb)" style="fill: #f39c12; opacity: 0.5"/>
   </g>
   <g id="patch_55">
    <path d="M 168.546499 310.287852 
L 176.567323 310.287852 
L 176.567323 309.743266 
L 168.546499 309.743266 
z
" clip-path="url(#p26dcd1febb)" style="fill: #f39c12; opacity: 0.5"/>
   </g>
   <g id="patch_56">
    <path d="M 176.567323 310.287852 
L 184.588146 310.287852 
L 184.588146 310.023862 
L 176.567323 310.023862 
z
" clip-path="url(#p26dcd1febb)" style="fill: #f39c12; opacity: 0.5"/>
   </g>
   <g id="patch_57">
    <path d="M 184.588146 310.287852 
L 192.60897 310.287852 
L 192.60897 310.021914 
L 184.588146 310.021914 
z
" clip-path="url(#p26dcd1febb)" style="fill: #f39c12; opacity: 0.5"/>
   </g>
   <g id="patch_58">
    <path d="M 192.60897 310.287852 
L 200.629793 310.287852 
L 200.629793 309.881177 
L 192.60897 309.881177 
z
" clip-path="url(#p26dcd1febb)" style="fill: #f39c12; opacity: 0.5"/>
   </g>
   <g id="patch_59">
    <path d="M 200.629793 310.287852 
L 208.650616 310.287852 
L 208.650616 309.940344 
L 200.629793 309.940344 
z
" clip-path="url(#p26dcd1febb)" style="fill: #f39c12; opacity: 0.5"/>
   </g>
   <g id="patch_60">
    <path d="M 208.650616 310.287852 
L 216.67144 310.287852 
L 216.67144 309.941785 
L 208.650616 309.941785 
z
" clip-path="url(#p26dcd1febb)" style="fill: #f39c12; opacity: 0.5"/>
   </g>
   <g id="patch_61">
    <path d="M 216.67144 310.287852 
L 224.692263 310.287852 
L 224.692263 309.994277 
L 216.67144 309.994277 
z
" clip-path="url(#p26dcd1febb)" style="fill: #f39c12; opacity: 0.5"/>
   </g>
   <g id="patch_62">
    <path d="M 224.692263 310.287852 
L 232.713086 310.287852 
L 232.713086 309.963478 
L 224.692263 309.963478 
z
" clip-path="url(#p26dcd1febb)" style="fill: #f39c12; opacity: 0.5"/>
   </g>
   <g id="patch_63">
    <path d="M 232.713086 310.287852 
L 240.73391 310.287852 
L 240.73391 309.935735 
L 232.713086 309.935735 
z
" clip-path="url(#p26dcd1febb)" style="fill: #f39c12; opacity: 0.5"/>
   </g>
   <g id="patch_64">
    <path d="M 240.73391 310.287852 
L 248.754733 310.287852 
L 248.754733 310.027866 
L 240.73391 310.027866 
z
" clip-path="url(#p26dcd1febb)" style="fill: #f39c12; opacity: 0.5"/>
   </g>
   <g id="patch_65">
    <path d="M 248.754733 310.287852 
L 256.775557 310.287852 
L 256.775557 309.994097 
L 248.754733 309.994097 
z
" clip-path="url(#p26dcd1febb)" style="fill: #f39c12; opacity: 0.5"/>
   </g>
   <g id="patch_66">
    <path d="M 256.775557 310.287852 
L 264.79638 310.287852 
L 264.79638 309.959834 
L 256.775557 309.959834 
z
" clip-path="url(#p26dcd1febb)" style="fill: #f39c12; opacity: 0.5"/>
   </g>
   <g id="patch_67">
    <path d="M 264.79638 310.287852 
L 272.817203 310.287852 
L 272.817203 310.156149 
L 264.79638 310.156149 
z
" clip-path="url(#p26dcd1febb)" style="fill: #f39c12; opacity: 0.5"/>
   </g>
   <g id="patch_68">
    <path d="M 272.817203 310.287852 
L 280.838027 310.287852 
L 280.838027 310.185866 
L 272.817203 310.185866 
z
" clip-path="url(#p26dcd1febb)" style="fill: #f39c12; opacity: 0.5"/>
   </g>
   <g id="patch_69">
    <path d="M 280.838027 310.287852 
L 288.85885 310.287852 
L 288.85885 310.192587 
L 280.838027 310.192587 
z
" clip-path="url(#p26dcd1febb)" style="fill: #f39c12; opacity: 0.5"/>
   </g>
   <g id="patch_70">
    <path d="M 288.85885 310.287852 
L 296.879674 310.287852 
L 296.879674 310.219406 
L 288.85885 310.219406 
z
" clip-path="url(#p26dcd1febb)" style="fill: #f39c12; opacity: 0.5"/>
   </g>
   <g id="patch_71">
    <path d="M 296.879674 310.287852 
L 304.900497 310.287852 
L 304.900497 310.24273 
L 296.879674 310.24273 
z
" clip-path="url(#p26dcd1febb)" style="fill: #f39c12; opacity: 0.5"/>
   </g>
   <g id="patch_72">
    <path d="M 304.900497 310.287852 
L 312.92132 310.287852 
L 312.92132 310.253135 
L 304.900497 310.253135 
z
" clip-path="url(#p26dcd1febb)" style="fill: #f39c12; opacity: 0.5"/>
   </g>
   <g id="patch_73">
    <path d="M 312.92132 310.287852 
L 320.942144 310.287852 
L 320.942144 310.258653 
L 312.92132 310.258653 
z
" clip-path="url(#p26dcd1febb)" style="fill: #f39c12; opacity: 0.5"/>
   </g>
   <g id="patch_74">
    <path d="M 320.942144 310.287852 
L 328.962967 310.287852 
L 328.962967 310.267993 
L 320.942144 310.267993 
z
" clip-path="url(#p26dcd1febb)" style="fill: #f39c12; opacity: 0.5"/>
   </g>
   <g id="patch_75">
    <path d="M 328.962967 310.287852 
L 336.98379 310.287852 
L 336.98379 310.272635 
L 328.962967 310.272635 
z
" clip-path="url(#p26dcd1febb)" style="fill: #f39c12; opacity: 0.5"/>
   </g>
   <g id="patch_76">
    <path d="M 336.98379 310.287852 
L 345.004614 310.287852 
L 345.004614 310.279093 
L 336.98379 310.279093 
z
" clip-path="url(#p26dcd1febb)" style="fill: #f39c12; opacity: 0.5"/>
   </g>
   <g id="patch_77">
    <path d="M 345.004614 310.287852 
L 353.025437 310.287852 
L 353.025437 310.281464 
L 345.004614 310.281464 
z
" clip-path="url(#p26dcd1febb)" style="fill: #f39c12; opacity: 0.5"/>
   </g>
   <g id="patch_78">
    <path d="M 353.025437 310.287852 
L 361.046261 310.287852 
L 361.046261 310.282654 
L 353.025437 310.282654 
z
" clip-path="url(#p26dcd1febb)" style="fill: #f39c12; opacity: 0.5"/>
   </g>
   <g id="patch_79">
    <path d="M 361.046261 310.287852 
L 369.067084 310.287852 
L 369.067084 310.284475 
L 361.046261 310.284475 
z
" clip-path="url(#p26dcd1febb)" style="fill: #f39c12; opacity: 0.5"/>
   </g>
   <g id="patch_80">
    <path d="M 369.067084 310.287852 
L 377.087907 310.287852 
L 377.087907 310.285544 
L 369.067084 310.285544 
z
" clip-path="url(#p26dcd1febb)" style="fill: #f39c12; opacity: 0.5"/>
   </g>
   <g id="patch_81">
    <path d="M 64.275795 310.287852 
L 74.785819 310.287852 
L 74.785819 249.47148 
L 64.275795 249.47148 
z
" clip-path="url(#p26dcd1febb)" style="fill: #e74c3c; opacity: 0.5"/>
   </g>
   <g id="patch_82">
    <path d="M 74.785819 310.287852 
L 85.295842 310.287852 
L 85.295842 310.287852 
L 74.785819 310.287852 
z
" clip-path="url(#p26dcd1febb)" style="fill: #e74c3c; opacity: 0.5"/>
   </g>
   <g id="patch_83">
    <path d="M 85.295842 310.287852 
L 95.805865 310.287852 
L 95.805865 310.287852 
L 85.295842 310.287852 
z
" clip-path="url(#p26dcd1febb)" style="fill: #e74c3c; opacity: 0.5"/>
   </g>
   <g id="patch_84">
    <path d="M 95.805865 310.287852 
L 106.315889 310.287852 
L 106.315889 283.12171 
L 95.805865 283.12171 
z
" clip-path="url(#p26dcd1febb)" style="fill: #e74c3c; opacity: 0.5"/>
   </g>
   <g id="patch_85">
    <path d="M 106.315889 310.287852 
L 116.825912 310.287852 
L 116.825912 310.287852 
L 106.315889 310.287852 
z
" clip-path="url(#p26dcd1febb)" style="fill: #e74c3c; opacity: 0.5"/>
   </g>
   <g id="patch_86">
    <path d="M 116.825912 310.287852 
L 127.335935 310.287852 
L 127.335935 296.83839 
L 116.825912 296.83839 
z
" clip-path="url(#p26dcd1febb)" style="fill: #e74c3c; opacity: 0.5"/>
   </g>
   <g id="patch_87">
    <path d="M 127.335935 310.287852 
L 137.845959 310.287852 
L 137.845959 304.401207 
L 127.335935 304.401207 
z
" clip-path="url(#p26dcd1febb)" style="fill: #e74c3c; opacity: 0.5"/>
   </g>
   <g id="patch_88">
    <path d="M 137.845959 310.287852 
L 148.355982 310.287852 
L 148.355982 308.649216 
L 137.845959 308.649216 
z
" clip-path="url(#p26dcd1febb)" style="fill: #e74c3c; opacity: 0.5"/>
   </g>
   <g id="patch_89">
    <path d="M 148.355982 310.287852 
L 158.866005 310.287852 
L 158.866005 309.1871 
L 148.355982 309.1871 
z
" clip-path="url(#p26dcd1febb)" style="fill: #e74c3c; opacity: 0.5"/>
   </g>
   <g id="patch_90">
    <path d="M 158.866005 310.287852 
L 169.376029 310.287852 
L 169.376029 309.112161 
L 158.866005 309.112161 
z
" clip-path="url(#p26dcd1febb)" style="fill: #e74c3c; opacity: 0.5"/>
   </g>
   <g id="patch_91">
    <path d="M 169.376029 310.287852 
L 179.886052 310.287852 
L 179.886052 309.411655 
L 169.376029 309.411655 
z
" clip-path="url(#p26dcd1febb)" style="fill: #e74c3c; opacity: 0.5"/>
   </g>
   <g id="patch_92">
    <path d="M 179.886052 310.287852 
L 190.396075 310.287852 
L 190.396075 309.81218 
L 179.886052 309.81218 
z
" clip-path="url(#p26dcd1febb)" style="fill: #e74c3c; opacity: 0.5"/>
   </g>
   <g id="patch_93">
    <path d="M 190.396075 310.287852 
L 200.906098 310.287852 
L 200.906098 310.008987 
L 190.396075 310.008987 
z
" clip-path="url(#p26dcd1febb)" style="fill: #e74c3c; opacity: 0.5"/>
   </g>
   <g id="patch_94">
    <path d="M 200.906098 310.287852 
L 211.416122 310.287852 
L 211.416122 310.081792 
L 200.906098 310.081792 
z
" clip-path="url(#p26dcd1febb)" style="fill: #e74c3c; opacity: 0.5"/>
   </g>
   <g id="patch_95">
    <path d="M 211.416122 310.287852 
L 221.926145 310.287852 
L 221.926145 310.061346 
L 211.416122 310.061346 
z
" clip-path="url(#p26dcd1febb)" style="fill: #e74c3c; opacity: 0.5"/>
   </g>
   <g id="patch_96">
    <path d="M 221.926145 310.287852 
L 232.436168 310.287852 
L 232.436168 310.007887 
L 221.926145 310.007887 
z
" clip-path="url(#p26dcd1febb)" style="fill: #e74c3c; opacity: 0.5"/>
   </g>
   <g id="patch_97">
    <path d="M 232.436168 310.287852 
L 242.946192 310.287852 
L 242.946192 310.086703 
L 232.436168 310.086703 
z
" clip-path="url(#p26dcd1febb)" style="fill: #e74c3c; opacity: 0.5"/>
   </g>
   <g id="patch_98">
    <path d="M 242.946192 310.287852 
L 253.456215 310.287852 
L 253.456215 310.113841 
L 242.946192 310.113841 
z
" clip-path="url(#p26dcd1febb)" style="fill: #e74c3c; opacity: 0.5"/>
   </g>
   <g id="patch_99">
    <path d="M 253.456215 310.287852 
L 263.966238 310.287852 
L 263.966238 310.153958 
L 253.456215 310.153958 
z
" clip-path="url(#p26dcd1febb)" style="fill: #e74c3c; opacity: 0.5"/>
   </g>
   <g id="patch_100">
    <path d="M 263.966238 310.287852 
L 274.476262 310.287852 
L 274.476262 310.149083 
L 263.966238 310.149083 
z
" clip-path="url(#p26dcd1febb)" style="fill: #e74c3c; opacity: 0.5"/>
   </g>
   <g id="patch_101">
    <path d="M 274.476262 310.287852 
L 284.986285 310.287852 
L 284.986285 310.209135 
L 274.476262 310.209135 
z
" clip-path="url(#p26dcd1febb)" style="fill: #e74c3c; opacity: 0.5"/>
   </g>
   <g id="patch_102">
    <path d="M 284.986285 310.287852 
L 295.496308 310.287852 
L 295.496308 310.152595 
L 284.986285 310.152595 
z
" clip-path="url(#p26dcd1febb)" style="fill: #e74c3c; opacity: 0.5"/>
   </g>
   <g id="patch_103">
    <path d="M 295.496308 310.287852 
L 306.006332 310.287852 
L 306.006332 310.217857 
L 295.496308 310.217857 
z
" clip-path="url(#p26dcd1febb)" style="fill: #e74c3c; opacity: 0.5"/>
   </g>
   <g id="patch_104">
    <path d="M 306.006332 310.287852 
L 316.516355 310.287852 
L 316.516355 310.256385 
L 306.006332 310.256385 
z
" clip-path="url(#p26dcd1febb)" style="fill: #e74c3c; opacity: 0.5"/>
   </g>
   <g id="patch_105">
    <path d="M 316.516355 310.287852 
L 327.026378 310.287852 
L 327.026378 310.25374 
L 316.516355 310.25374 
z
" clip-path="url(#p26dcd1febb)" style="fill: #e74c3c; opacity: 0.5"/>
   </g>
   <g id="patch_106">
    <path d="M 327.026378 310.287852 
L 337.536402 310.287852 
L 337.536402 310.26247 
L 327.026378 310.26247 
z
" clip-path="url(#p26dcd1febb)" style="fill: #e74c3c; opacity: 0.5"/>
   </g>
   <g id="patch_107">
    <path d="M 337.536402 310.287852 
L 348.046425 310.287852 
L 348.046425 310.260571 
L 337.536402 310.260571 
z
" clip-path="url(#p26dcd1febb)" style="fill: #e74c3c; opacity: 0.5"/>
   </g>
   <g id="patch_108">
    <path d="M 348.046425 310.287852 
L 358.556448 310.287852 
L 358.556448 310.278231 
L 348.046425 310.278231 
z
" clip-path="url(#p26dcd1febb)" style="fill: #e74c3c; opacity: 0.5"/>
   </g>
   <g id="patch_109">
    <path d="M 358.556448 310.287852 
L 369.066471 310.287852 
L 369.066471 310.278988 
L 358.556448 310.278988 
z
" clip-path="url(#p26dcd1febb)" style="fill: #e74c3c; opacity: 0.5"/>
   </g>
   <g id="patch_110">
    <path d="M 369.066471 310.287852 
L 379.576495 310.287852 
L 379.576495 310.281302 
L 369.066471 310.281302 
z
" clip-path="url(#p26dcd1febb)" style="fill: #e74c3c; opacity: 0.5"/>
   </g>
   <g id="patch_111">
    <path d="M 379.576495 310.287852 
L 390.086518 310.287852 
L 390.086518 310.283532 
L 379.576495 310.283532 
z
" clip-path="url(#p26dcd1febb)" style="fill: #e74c3c; opacity: 0.5"/>
   </g>
   <g id="patch_112">
    <path d="M 390.086518 310.287852 
L 400.596541 310.287852 
L 400.596541 310.285144 
L 390.086518 310.285144 
z
" clip-path="url(#p26dcd1febb)" style="fill: #e74c3c; opacity: 0.5"/>
   </g>
   <g id="patch_113">
    <path d="M 400.596541 310.287852 
L 411.106565 310.287852 
L 411.106565 310.284421 
L 400.596541 310.284421 
z
" clip-path="url(#p26dcd1febb)" style="fill: #e74c3c; opacity: 0.5"/>
   </g>
   <g id="patch_114">
    <path d="M 411.106565 310.287852 
L 421.616588 310.287852 
L 421.616588 310.286092 
L 411.106565 310.286092 
z
" clip-path="url(#p26dcd1febb)" style="fill: #e74c3c; opacity: 0.5"/>
   </g>
   <g id="patch_115">
    <path d="M 421.616588 310.287852 
L 432.126611 310.287852 
L 432.126611 310.285927 
L 421.616588 310.285927 
z
" clip-path="url(#p26dcd1febb)" style="fill: #e74c3c; opacity: 0.5"/>
   </g>
   <g id="patch_116">
    <path d="M 432.126611 310.287852 
L 442.636635 310.287852 
L 442.636635 310.286872 
L 432.126611 310.286872 
z
" clip-path="url(#p26dcd1febb)" style="fill: #e74c3c; opacity: 0.5"/>
   </g>
   <g id="patch_117">
    <path d="M 442.636635 310.287852 
L 453.146658 310.287852 
L 453.146658 310.286996 
L 442.636635 310.286996 
z
" clip-path="url(#p26dcd1febb)" style="fill: #e74c3c; opacity: 0.5"/>
   </g>
   <g id="patch_118">
    <path d="M 453.146658 310.287852 
L 463.656681 310.287852 
L 463.656681 310.285782 
L 453.146658 310.285782 
z
" clip-path="url(#p26dcd1febb)" style="fill: #e74c3c; opacity: 0.5"/>
   </g>
   <g id="patch_119">
    <path d="M 463.656681 310.287852 
L 474.166705 310.287852 
L 474.166705 310.283616 
L 463.656681 310.283616 
z
" clip-path="url(#p26dcd1febb)" style="fill: #e74c3c; opacity: 0.5"/>
   </g>
   <g id="matplotlib.axis_1">
    <g id="xtick_1">
     <g id="line2d_1">
      <defs>
       <path id="m57925ab449" d="M 0 0 
L 0 3.5 
" style="stroke: #000000; stroke-width: 0.8"/>
      </defs>
      <g>
       <use xlink:href="#m57925ab449" x="64.275795" y="310.287852" style="stroke: #000000; stroke-width: 0.8"/>
      </g>
     </g>
     <g id="text_1">
      <!-- $\mathdefault{10^{0}}$ -->
      <g transform="translate(55.475795 324.886289) scale(0.1 -0.1)">
       <defs>
        <path id="DejaVuSans-31" d="M 794 531 
L 1825 531 
L 1825 4091 
L 703 3866 
L 703 4441 
L 1819 4666 
L 2450 4666 
L 2450 531 
L 3481 531 
L 3481 0 
L 794 0 
L 794 531 
z
" transform="scale(0.015625)"/>
        <path id="DejaVuSans-30" d="M 2034 4250 
Q 1547 4250 1301 3770 
Q 1056 3291 1056 2328 
Q 1056 1369 1301 889 
Q 1547 409 2034 409 
Q 2525 409 2770 889 
Q 3016 1369 3016 2328 
Q 3016 3291 2770 3770 
Q 2525 4250 2034 4250 
z
M 2034 4750 
Q 2819 4750 3233 4129 
Q 3647 3509 3647 2328 
Q 3647 1150 3233 529 
Q 2819 -91 2034 -91 
Q 1250 -91 836 529 
Q 422 1150 422 2328 
Q 422 3509 836 4129 
Q 1250 4750 2034 4750 
z
" transform="scale(0.015625)"/>
       </defs>
       <use xlink:href="#DejaVuSans-31" transform="translate(0 0.765625)"/>
       <use xlink:href="#DejaVuSans-30" transform="translate(63.623047 0.765625)"/>
       <use xlink:href="#DejaVuSans-30" transform="translate(128.203125 39.046875) scale(0.7)"/>
      </g>
     </g>
    </g>
    <g id="xtick_2">
     <g id="line2d_2">
      <g>
       <use xlink:href="#m57925ab449" x="176.548132" y="310.287852" style="stroke: #000000; stroke-width: 0.8"/>
      </g>
     </g>
     <g id="text_2">
      <!-- $\mathdefault{10^{1}}$ -->
      <g transform="translate(167.748132 324.886289) scale(0.1 -0.1)">
       <use xlink:href="#DejaVuSans-31" transform="translate(0 0.684375)"/>
       <use xlink:href="#DejaVuSans-30" transform="translate(63.623047 0.684375)"/>
       <use xlink:href="#DejaVuSans-31" transform="translate(128.203125 38.965625) scale(0.7)"/>
      </g>
     </g>
    </g>
    <g id="xtick_3">
     <g id="line2d_3">
      <g>
       <use xlink:href="#m57925ab449" x="288.820468" y="310.287852" style="stroke: #000000; stroke-width: 0.8"/>
      </g>
     </g>
     <g id="text_3">
      <!-- $\mathdefault{10^{2}}$ -->
      <g transform="translate(280.020468 324.886289) scale(0.1 -0.1)">
       <defs>
        <path id="DejaVuSans-32" d="M 1228 531 
L 3431 531 
L 3431 0 
L 469 0 
L 469 531 
Q 828 903 1448 1529 
Q 2069 2156 2228 2338 
Q 2531 2678 2651 2914 
Q 2772 3150 2772 3378 
Q 2772 3750 2511 3984 
Q 2250 4219 1831 4219 
Q 1534 4219 1204 4116 
Q 875 4013 500 3803 
L 500 4441 
Q 881 4594 1212 4672 
Q 1544 4750 1819 4750 
Q 2544 4750 2975 4387 
Q 3406 4025 3406 3419 
Q 3406 3131 3298 2873 
Q 3191 2616 2906 2266 
Q 2828 2175 2409 1742 
Q 1991 1309 1228 531 
z
" transform="scale(0.015625)"/>
       </defs>
       <use xlink:href="#DejaVuSans-31" transform="translate(0 0.765625)"/>
       <use xlink:href="#DejaVuSans-30" transform="translate(63.623047 0.765625)"/>
       <use xlink:href="#DejaVuSans-32" transform="translate(128.203125 39.046875) scale(0.7)"/>
      </g>
     </g>
    </g>
    <g id="xtick_4">
     <g id="line2d_4">
      <g>
       <use xlink:href="#m57925ab449" x="401.092805" y="310.287852" style="stroke: #000000; stroke-width: 0.8"/>
      </g>
     </g>
     <g id="text_4">
      <!-- $\mathdefault{10^{3}}$ -->
      <g transform="translate(392.292805 324.886289) scale(0.1 -0.1)">
       <defs>
        <path id="DejaVuSans-33" d="M 2597 2516 
Q 3050 2419 3304 2112 
Q 3559 1806 3559 1356 
Q 3559 666 3084 287 
Q 2609 -91 1734 -91 
Q 1441 -91 1130 -33 
Q 819 25 488 141 
L 488 750 
Q 750 597 1062 519 
Q 1375 441 1716 441 
Q 2309 441 2620 675 
Q 2931 909 2931 1356 
Q 2931 1769 2642 2001 
Q 2353 2234 1838 2234 
L 1294 2234 
L 1294 2753 
L 1863 2753 
Q 2328 2753 2575 2939 
Q 2822 3125 2822 3475 
Q 2822 3834 2567 4026 
Q 2313 4219 1838 4219 
Q 1578 4219 1281 4162 
Q 984 4106 628 3988 
L 628 4550 
Q 988 4650 1302 4700 
Q 1616 4750 1894 4750 
Q 2613 4750 3031 4423 
Q 3450 4097 3450 3541 
Q 3450 3153 3228 2886 
Q 3006 2619 2597 2516 
z
" transform="scale(0.015625)"/>
       </defs>
       <use xlink:href="#DejaVuSans-31" transform="translate(0 0.765625)"/>
       <use xlink:href="#DejaVuSans-30" transform="translate(63.623047 0.765625)"/>
       <use xlink:href="#DejaVuSans-33" transform="translate(128.203125 39.046875) scale(0.7)"/>
      </g>
     </g>
    </g>
    <g id="xtick_5">
     <g id="line2d_5">
      <defs>
       <path id="me2123fbe97" d="M 0 0 
L 0 2 
" style="stroke: #000000; stroke-width: 0.6"/>
      </defs>
      <g>
       <use xlink:href="#me2123fbe97" x="46.88459" y="310.287852" style="stroke: #000000; stroke-width: 0.6"/>
      </g>
     </g>
    </g>
    <g id="xtick_6">
     <g id="line2d_6">
      <g>
       <use xlink:href="#me2123fbe97" x="53.395482" y="310.287852" style="stroke: #000000; stroke-width: 0.6"/>
      </g>
     </g>
    </g>
    <g id="xtick_7">
     <g id="line2d_7">
      <g>
       <use xlink:href="#me2123fbe97" x="59.138495" y="310.287852" style="stroke: #000000; stroke-width: 0.6"/>
      </g>
     </g>
    </g>
    <g id="xtick_8">
     <g id="line2d_8">
      <g>
       <use xlink:href="#me2123fbe97" x="98.073136" y="310.287852" style="stroke: #000000; stroke-width: 0.6"/>
      </g>
     </g>
    </g>
    <g id="xtick_9">
     <g id="line2d_9">
      <g>
       <use xlink:href="#me2123fbe97" x="117.843314" y="310.287852" style="stroke: #000000; stroke-width: 0.6"/>
      </g>
     </g>
    </g>
    <g id="xtick_10">
     <g id="line2d_10">
      <g>
       <use xlink:href="#me2123fbe97" x="131.870477" y="310.287852" style="stroke: #000000; stroke-width: 0.6"/>
      </g>
     </g>
    </g>
    <g id="xtick_11">
     <g id="line2d_11">
      <g>
       <use xlink:href="#me2123fbe97" x="142.750791" y="310.287852" style="stroke: #000000; stroke-width: 0.6"/>
      </g>
     </g>
    </g>
    <g id="xtick_12">
     <g id="line2d_12">
      <g>
       <use xlink:href="#me2123fbe97" x="151.640654" y="310.287852" style="stroke: #000000; stroke-width: 0.6"/>
      </g>
     </g>
    </g>
    <g id="xtick_13">
     <g id="line2d_13">
      <g>
       <use xlink:href="#me2123fbe97" x="159.156927" y="310.287852" style="stroke: #000000; stroke-width: 0.6"/>
      </g>
     </g>
    </g>
    <g id="xtick_14">
     <g id="line2d_14">
      <g>
       <use xlink:href="#me2123fbe97" x="165.667818" y="310.287852" style="stroke: #000000; stroke-width: 0.6"/>
      </g>
     </g>
    </g>
    <g id="xtick_15">
     <g id="line2d_15">
      <g>
       <use xlink:href="#me2123fbe97" x="171.410832" y="310.287852" style="stroke: #000000; stroke-width: 0.6"/>
      </g>
     </g>
    </g>
    <g id="xtick_16">
     <g id="line2d_16">
      <g>
       <use xlink:href="#me2123fbe97" x="210.345473" y="310.287852" style="stroke: #000000; stroke-width: 0.6"/>
      </g>
     </g>
    </g>
    <g id="xtick_17">
     <g id="line2d_17">
      <g>
       <use xlink:href="#me2123fbe97" x="230.11565" y="310.287852" style="stroke: #000000; stroke-width: 0.6"/>
      </g>
     </g>
    </g>
    <g id="xtick_18">
     <g id="line2d_18">
      <g>
       <use xlink:href="#me2123fbe97" x="244.142814" y="310.287852" style="stroke: #000000; stroke-width: 0.6"/>
      </g>
     </g>
    </g>
    <g id="xtick_19">
     <g id="line2d_19">
      <g>
       <use xlink:href="#me2123fbe97" x="255.023127" y="310.287852" style="stroke: #000000; stroke-width: 0.6"/>
      </g>
     </g>
    </g>
    <g id="xtick_20">
     <g id="line2d_20">
      <g>
       <use xlink:href="#me2123fbe97" x="263.912991" y="310.287852" style="stroke: #000000; stroke-width: 0.6"/>
      </g>
     </g>
    </g>
    <g id="xtick_21">
     <g id="line2d_21">
      <g>
       <use xlink:href="#me2123fbe97" x="271.429263" y="310.287852" style="stroke: #000000; stroke-width: 0.6"/>
      </g>
     </g>
    </g>
    <g id="xtick_22">
     <g id="line2d_22">
      <g>
       <use xlink:href="#me2123fbe97" x="277.940155" y="310.287852" style="stroke: #000000; stroke-width: 0.6"/>
      </g>
     </g>
    </g>
    <g id="xtick_23">
     <g id="line2d_23">
      <g>
       <use xlink:href="#me2123fbe97" x="283.683168" y="310.287852" style="stroke: #000000; stroke-width: 0.6"/>
      </g>
     </g>
    </g>
    <g id="xtick_24">
     <g id="line2d_24">
      <g>
       <use xlink:href="#me2123fbe97" x="322.617809" y="310.287852" style="stroke: #000000; stroke-width: 0.6"/>
      </g>
     </g>
    </g>
    <g id="xtick_25">
     <g id="line2d_25">
      <g>
       <use xlink:href="#me2123fbe97" x="342.387987" y="310.287852" style="stroke: #000000; stroke-width: 0.6"/>
      </g>
     </g>
    </g>
    <g id="xtick_26">
     <g id="line2d_26">
      <g>
       <use xlink:href="#me2123fbe97" x="356.41515" y="310.287852" style="stroke: #000000; stroke-width: 0.6"/>
      </g>
     </g>
    </g>
    <g id="xtick_27">
     <g id="line2d_27">
      <g>
       <use xlink:href="#me2123fbe97" x="367.295464" y="310.287852" style="stroke: #000000; stroke-width: 0.6"/>
      </g>
     </g>
    </g>
    <g id="xtick_28">
     <g id="line2d_28">
      <g>
       <use xlink:href="#me2123fbe97" x="376.185327" y="310.287852" style="stroke: #000000; stroke-width: 0.6"/>
      </g>
     </g>
    </g>
    <g id="xtick_29">
     <g id="line2d_29">
      <g>
       <use xlink:href="#me2123fbe97" x="383.7016" y="310.287852" style="stroke: #000000; stroke-width: 0.6"/>
      </g>
     </g>
    </g>
    <g id="xtick_30">
     <g id="line2d_30">
      <g>
       <use xlink:href="#me2123fbe97" x="390.212491" y="310.287852" style="stroke: #000000; stroke-width: 0.6"/>
      </g>
     </g>
    </g>
    <g id="xtick_31">
     <g id="line2d_31">
      <g>
       <use xlink:href="#me2123fbe97" x="395.955505" y="310.287852" style="stroke: #000000; stroke-width: 0.6"/>
      </g>
     </g>
    </g>
    <g id="xtick_32">
     <g id="line2d_32">
      <g>
       <use xlink:href="#me2123fbe97" x="434.890146" y="310.287852" style="stroke: #000000; stroke-width: 0.6"/>
      </g>
     </g>
    </g>
    <g id="xtick_33">
     <g id="line2d_33">
      <g>
       <use xlink:href="#me2123fbe97" x="454.660323" y="310.287852" style="stroke: #000000; stroke-width: 0.6"/>
      </g>
     </g>
    </g>
    <g id="xtick_34">
     <g id="line2d_34">
      <g>
       <use xlink:href="#me2123fbe97" x="468.687487" y="310.287852" style="stroke: #000000; stroke-width: 0.6"/>
      </g>
     </g>
    </g>
    <g id="xtick_35">
     <g id="line2d_35">
      <g>
       <use xlink:href="#me2123fbe97" x="479.567801" y="310.287852" style="stroke: #000000; stroke-width: 0.6"/>
      </g>
     </g>
    </g>
    <g id="xtick_36">
     <g id="line2d_36">
      <g>
       <use xlink:href="#me2123fbe97" x="488.457664" y="310.287852" style="stroke: #000000; stroke-width: 0.6"/>
      </g>
     </g>
    </g>
    <g id="text_5">
     <!-- Duration (seconds, log scale) -->
     <g transform="translate(196.304063 338.564414) scale(0.1 -0.1)">
      <defs>
       <path id="DejaVuSans-44" d="M 1259 4147 
L 1259 519 
L 2022 519 
Q 2988 519 3436 956 
Q 3884 1394 3884 2338 
Q 3884 3275 3436 3711 
Q 2988 4147 2022 4147 
L 1259 4147 
z
M 628 4666 
L 1925 4666 
Q 3281 4666 3915 4102 
Q 4550 3538 4550 2338 
Q 4550 1131 3912 565 
Q 3275 0 1925 0 
L 628 0 
L 628 4666 
z
" transform="scale(0.015625)"/>
       <path id="DejaVuSans-75" d="M 544 1381 
L 544 3500 
L 1119 3500 
L 1119 1403 
Q 1119 906 1312 657 
Q 1506 409 1894 409 
Q 2359 409 2629 706 
Q 2900 1003 2900 1516 
L 2900 3500 
L 3475 3500 
L 3475 0 
L 2900 0 
L 2900 538 
Q 2691 219 2414 64 
Q 2138 -91 1772 -91 
Q 1169 -91 856 284 
Q 544 659 544 1381 
z
M 1991 3584 
L 1991 3584 
z
" transform="scale(0.015625)"/>
       <path id="DejaVuSans-72" d="M 2631 2963 
Q 2534 3019 2420 3045 
Q 2306 3072 2169 3072 
Q 1681 3072 1420 2755 
Q 1159 2438 1159 1844 
L 1159 0 
L 581 0 
L 581 3500 
L 1159 3500 
L 1159 2956 
Q 1341 3275 1631 3429 
Q 1922 3584 2338 3584 
Q 2397 3584 2469 3576 
Q 2541 3569 2628 3553 
L 2631 2963 
z
" transform="scale(0.015625)"/>
       <path id="DejaVuSans-61" d="M 2194 1759 
Q 1497 1759 1228 1600 
Q 959 1441 959 1056 
Q 959 750 1161 570 
Q 1363 391 1709 391 
Q 2188 391 2477 730 
Q 2766 1069 2766 1631 
L 2766 1759 
L 2194 1759 
z
M 3341 1997 
L 3341 0 
L 2766 0 
L 2766 531 
Q 2569 213 2275 61 
Q 1981 -91 1556 -91 
Q 1019 -91 701 211 
Q 384 513 384 1019 
Q 384 1609 779 1909 
Q 1175 2209 1959 2209 
L 2766 2209 
L 2766 2266 
Q 2766 2663 2505 2880 
Q 2244 3097 1772 3097 
Q 1472 3097 1187 3025 
Q 903 2953 641 2809 
L 641 3341 
Q 956 3463 1253 3523 
Q 1550 3584 1831 3584 
Q 2591 3584 2966 3190 
Q 3341 2797 3341 1997 
z
" transform="scale(0.015625)"/>
       <path id="DejaVuSans-74" d="M 1172 4494 
L 1172 3500 
L 2356 3500 
L 2356 3053 
L 1172 3053 
L 1172 1153 
Q 1172 725 1289 603 
Q 1406 481 1766 481 
L 2356 481 
L 2356 0 
L 1766 0 
Q 1100 0 847 248 
Q 594 497 594 1153 
L 594 3053 
L 172 3053 
L 172 3500 
L 594 3500 
L 594 4494 
L 1172 4494 
z
" transform="scale(0.015625)"/>
       <path id="DejaVuSans-69" d="M 603 3500 
L 1178 3500 
L 1178 0 
L 603 0 
L 603 3500 
z
M 603 4863 
L 1178 4863 
L 1178 4134 
L 603 4134 
L 603 4863 
z
" transform="scale(0.015625)"/>
       <path id="DejaVuSans-6f" d="M 1959 3097 
Q 1497 3097 1228 2736 
Q 959 2375 959 1747 
Q 959 1119 1226 758 
Q 1494 397 1959 397 
Q 2419 397 2687 759 
Q 2956 1122 2956 1747 
Q 2956 2369 2687 2733 
Q 2419 3097 1959 3097 
z
M 1959 3584 
Q 2709 3584 3137 3096 
Q 3566 2609 3566 1747 
Q 3566 888 3137 398 
Q 2709 -91 1959 -91 
Q 1206 -91 779 398 
Q 353 888 353 1747 
Q 353 2609 779 3096 
Q 1206 3584 1959 3584 
z
" transform="scale(0.015625)"/>
       <path id="DejaVuSans-6e" d="M 3513 2113 
L 3513 0 
L 2938 0 
L 2938 2094 
Q 2938 2591 2744 2837 
Q 2550 3084 2163 3084 
Q 1697 3084 1428 2787 
Q 1159 2491 1159 1978 
L 1159 0 
L 581 0 
L 581 3500 
L 1159 3500 
L 1159 2956 
Q 1366 3272 1645 3428 
Q 1925 3584 2291 3584 
Q 2894 3584 3203 3211 
Q 3513 2838 3513 2113 
z
" transform="scale(0.015625)"/>
       <path id="DejaVuSans-20" transform="scale(0.015625)"/>
       <path id="DejaVuSans-28" d="M 1984 4856 
Q 1566 4138 1362 3434 
Q 1159 2731 1159 2009 
Q 1159 1288 1364 580 
Q 1569 -128 1984 -844 
L 1484 -844 
Q 1016 -109 783 600 
Q 550 1309 550 2009 
Q 550 2706 781 3412 
Q 1013 4119 1484 4856 
L 1984 4856 
z
" transform="scale(0.015625)"/>
       <path id="DejaVuSans-73" d="M 2834 3397 
L 2834 2853 
Q 2591 2978 2328 3040 
Q 2066 3103 1784 3103 
Q 1356 3103 1142 2972 
Q 928 2841 928 2578 
Q 928 2378 1081 2264 
Q 1234 2150 1697 2047 
L 1894 2003 
Q 2506 1872 2764 1633 
Q 3022 1394 3022 966 
Q 3022 478 2636 193 
Q 2250 -91 1575 -91 
Q 1294 -91 989 -36 
Q 684 19 347 128 
L 347 722 
Q 666 556 975 473 
Q 1284 391 1588 391 
Q 1994 391 2212 530 
Q 2431 669 2431 922 
Q 2431 1156 2273 1281 
Q 2116 1406 1581 1522 
L 1381 1569 
Q 847 1681 609 1914 
Q 372 2147 372 2553 
Q 372 3047 722 3315 
Q 1072 3584 1716 3584 
Q 2034 3584 2315 3537 
Q 2597 3491 2834 3397 
z
" transform="scale(0.015625)"/>
       <path id="DejaVuSans-65" d="M 3597 1894 
L 3597 1613 
L 953 1613 
Q 991 1019 1311 708 
Q 1631 397 2203 397 
Q 2534 397 2845 478 
Q 3156 559 3463 722 
L 3463 178 
Q 3153 47 2828 -22 
Q 2503 -91 2169 -91 
Q 1331 -91 842 396 
Q 353 884 353 1716 
Q 353 2575 817 3079 
Q 1281 3584 2069 3584 
Q 2775 3584 3186 3129 
Q 3597 2675 3597 1894 
z
M 3022 2063 
Q 3016 2534 2758 2815 
Q 2500 3097 2075 3097 
Q 1594 3097 1305 2825 
Q 1016 2553 972 2059 
L 3022 2063 
z
" transform="scale(0.015625)"/>
       <path id="DejaVuSans-63" d="M 3122 3366 
L 3122 2828 
Q 2878 2963 2633 3030 
Q 2388 3097 2138 3097 
Q 1578 3097 1268 2742 
Q 959 2388 959 1747 
Q 959 1106 1268 751 
Q 1578 397 2138 397 
Q 2388 397 2633 464 
Q 2878 531 3122 666 
L 3122 134 
Q 2881 22 2623 -34 
Q 2366 -91 2075 -91 
Q 1284 -91 818 406 
Q 353 903 353 1747 
Q 353 2603 823 3093 
Q 1294 3584 2113 3584 
Q 2378 3584 2631 3529 
Q 2884 3475 3122 3366 
z
" transform="scale(0.015625)"/>
       <path id="DejaVuSans-64" d="M 2906 2969 
L 2906 4863 
L 3481 4863 
L 3481 0 
L 2906 0 
L 2906 525 
Q 2725 213 2448 61 
Q 2172 -91 1784 -91 
Q 1150 -91 751 415 
Q 353 922 353 1747 
Q 353 2572 751 3078 
Q 1150 3584 1784 3584 
Q 2172 3584 2448 3432 
Q 2725 3281 2906 2969 
z
M 947 1747 
Q 947 1113 1208 752 
Q 1469 391 1925 391 
Q 2381 391 2643 752 
Q 2906 1113 2906 1747 
Q 2906 2381 2643 2742 
Q 2381 3103 1925 3103 
Q 1469 3103 1208 2742 
Q 947 2381 947 1747 
z
" transform="scale(0.015625)"/>
       <path id="DejaVuSans-2c" d="M 750 794 
L 1409 794 
L 1409 256 
L 897 -744 
L 494 -744 
L 750 256 
L 750 794 
z
" transform="scale(0.015625)"/>
       <path id="DejaVuSans-6c" d="M 603 4863 
L 1178 4863 
L 1178 0 
L 603 0 
L 603 4863 
z
" transform="scale(0.015625)"/>
       <path id="DejaVuSans-67" d="M 2906 1791 
Q 2906 2416 2648 2759 
Q 2391 3103 1925 3103 
Q 1463 3103 1205 2759 
Q 947 2416 947 1791 
Q 947 1169 1205 825 
Q 1463 481 1925 481 
Q 2391 481 2648 825 
Q 2906 1169 2906 1791 
z
M 3481 434 
Q 3481 -459 3084 -895 
Q 2688 -1331 1869 -1331 
Q 1566 -1331 1297 -1286 
Q 1028 -1241 775 -1147 
L 775 -588 
Q 1028 -725 1275 -790 
Q 1522 -856 1778 -856 
Q 2344 -856 2625 -561 
Q 2906 -266 2906 331 
L 2906 616 
Q 2728 306 2450 153 
Q 2172 0 1784 0 
Q 1141 0 747 490 
Q 353 981 353 1791 
Q 353 2603 747 3093 
Q 1141 3584 1784 3584 
Q 2172 3584 2450 3431 
Q 2728 3278 2906 2969 
L 2906 3500 
L 3481 3500 
L 3481 434 
z
" transform="scale(0.015625)"/>
       <path id="DejaVuSans-29" d="M 513 4856 
L 1013 4856 
Q 1481 4119 1714 3412 
Q 1947 2706 1947 2009 
Q 1947 1309 1714 600 
Q 1481 -109 1013 -844 
L 513 -844 
Q 928 -128 1133 580 
Q 1338 1288 1338 2009 
Q 1338 2731 1133 3434 
Q 928 4138 513 4856 
z
" transform="scale(0.015625)"/>
      </defs>
      <use xlink:href="#DejaVuSans-44"/>
      <use xlink:href="#DejaVuSans-75" transform="translate(77.001953 0)"/>
      <use xlink:href="#DejaVuSans-72" transform="translate(140.380859 0)"/>
      <use xlink:href="#DejaVuSans-61" transform="translate(181.494141 0)"/>
      <use xlink:href="#DejaVuSans-74" transform="translate(242.773438 0)"/>
      <use xlink:href="#DejaVuSans-69" transform="translate(281.982422 0)"/>
      <use xlink:href="#DejaVuSans-6f" transform="translate(309.765625 0)"/>
      <use xlink:href="#DejaVuSans-6e" transform="translate(370.947266 0)"/>
      <use xlink:href="#DejaVuSans-20" transform="translate(434.326172 0)"/>
      <use xlink:href="#DejaVuSans-28" transform="translate(466.113281 0)"/>
      <use xlink:href="#DejaVuSans-73" transform="translate(505.126953 0)"/>
      <use xlink:href="#DejaVuSans-65" transform="translate(557.226562 0)"/>
      <use xlink:href="#DejaVuSans-63" transform="translate(618.75 0)"/>
      <use xlink:href="#DejaVuSans-6f" transform="translate(673.730469 0)"/>
      <use xlink:href="#DejaVuSans-6e" transform="translate(734.912109 0)"/>
      <use xlink:href="#DejaVuSans-64" transform="translate(798.291016 0)"/>
      <use xlink:href="#DejaVuSans-73" transform="translate(861.767578 0)"/>
      <use xlink:href="#DejaVuSans-2c" transform="translate(913.867188 0)"/>
      <use xlink:href="#DejaVuSans-20" transform="translate(945.654297 0)"/>
      <use xlink:href="#DejaVuSans-6c" transform="translate(977.441406 0)"/>
      <use xlink:href="#DejaVuSans-6f" transform="translate(1005.224609 0)"/>
      <use xlink:href="#DejaVuSans-67" transform="translate(1066.40625 0)"/>
      <use xlink:href="#DejaVuSans-20" transform="translate(1129.882812 0)"/>
      <use xlink:href="#DejaVuSans-73" transform="translate(1161.669922 0)"/>
      <use xlink:href="#DejaVuSans-63" transform="translate(1213.769531 0)"/>
      <use xlink:href="#DejaVuSans-61" transform="translate(1268.75 0)"/>
      <use xlink:href="#DejaVuSans-6c" transform="translate(1330.029297 0)"/>
      <use xlink:href="#DejaVuSans-65" transform="translate(1357.8125 0)"/>
      <use xlink:href="#DejaVuSans-29" transform="translate(1419.335938 0)"/>
     </g>
    </g>
   </g>
   <g id="matplotlib.axis_2">
    <g id="ytick_1">
     <g id="line2d_37">
      <defs>
       <path id="me34fe3fe07" d="M 0 0 
L -3.5 0 
" style="stroke: #000000; stroke-width: 0.8"/>
      </defs>
      <g>
       <use xlink:href="#me34fe3fe07" x="43.78125" y="310.287852" style="stroke: #000000; stroke-width: 0.8"/>
      </g>
     </g>
     <g id="text_6">
      <!-- 0.0 -->
      <g transform="translate(20.878125 314.087071) scale(0.1 -0.1)">
       <defs>
        <path id="DejaVuSans-2e" d="M 684 794 
L 1344 794 
L 1344 0 
L 684 0 
L 684 794 
z
" transform="scale(0.015625)"/>
       </defs>
       <use xlink:href="#DejaVuSans-30"/>
       <use xlink:href="#DejaVuSans-2e" transform="translate(63.623047 0)"/>
       <use xlink:href="#DejaVuSans-30" transform="translate(95.410156 0)"/>
      </g>
     </g>
    </g>
    <g id="ytick_2">
     <g id="line2d_38">
      <g>
       <use xlink:href="#me34fe3fe07" x="43.78125" y="267.75619" style="stroke: #000000; stroke-width: 0.8"/>
      </g>
     </g>
     <g id="text_7">
      <!-- 0.5 -->
      <g transform="translate(20.878125 271.555409) scale(0.1 -0.1)">
       <defs>
        <path id="DejaVuSans-35" d="M 691 4666 
L 3169 4666 
L 3169 4134 
L 1269 4134 
L 1269 2991 
Q 1406 3038 1543 3061 
Q 1681 3084 1819 3084 
Q 2600 3084 3056 2656 
Q 3513 2228 3513 1497 
Q 3513 744 3044 326 
Q 2575 -91 1722 -91 
Q 1428 -91 1123 -41 
Q 819 9 494 109 
L 494 744 
Q 775 591 1075 516 
Q 1375 441 1709 441 
Q 2250 441 2565 725 
Q 2881 1009 2881 1497 
Q 2881 1984 2565 2268 
Q 2250 2553 1709 2553 
Q 1456 2553 1204 2497 
Q 953 2441 691 2322 
L 691 4666 
z
" transform="scale(0.015625)"/>
       </defs>
       <use xlink:href="#DejaVuSans-30"/>
       <use xlink:href="#DejaVuSans-2e" transform="translate(63.623047 0)"/>
       <use xlink:href="#DejaVuSans-35" transform="translate(95.410156 0)"/>
      </g>
     </g>
    </g>
    <g id="ytick_3">
     <g id="line2d_39">
      <g>
       <use xlink:href="#me34fe3fe07" x="43.78125" y="225.224529" style="stroke: #000000; stroke-width: 0.8"/>
      </g>
     </g>
     <g id="text_8">
      <!-- 1.0 -->
      <g transform="translate(20.878125 229.023748) scale(0.1 -0.1)">
       <use xlink:href="#DejaVuSans-31"/>
       <use xlink:href="#DejaVuSans-2e" transform="translate(63.623047 0)"/>
       <use xlink:href="#DejaVuSans-30" transform="translate(95.410156 0)"/>
      </g>
     </g>
    </g>
    <g id="ytick_4">
     <g id="line2d_40">
      <g>
       <use xlink:href="#me34fe3fe07" x="43.78125" y="182.692868" style="stroke: #000000; stroke-width: 0.8"/>
      </g>
     </g>
     <g id="text_9">
      <!-- 1.5 -->
      <g transform="translate(20.878125 186.492086) scale(0.1 -0.1)">
       <use xlink:href="#DejaVuSans-31"/>
       <use xlink:href="#DejaVuSans-2e" transform="translate(63.623047 0)"/>
       <use xlink:href="#DejaVuSans-35" transform="translate(95.410156 0)"/>
      </g>
     </g>
    </g>
    <g id="ytick_5">
     <g id="line2d_41">
      <g>
       <use xlink:href="#me34fe3fe07" x="43.78125" y="140.161206" style="stroke: #000000; stroke-width: 0.8"/>
      </g>
     </g>
     <g id="text_10">
      <!-- 2.0 -->
      <g transform="translate(20.878125 143.960425) scale(0.1 -0.1)">
       <use xlink:href="#DejaVuSans-32"/>
       <use xlink:href="#DejaVuSans-2e" transform="translate(63.623047 0)"/>
       <use xlink:href="#DejaVuSans-30" transform="translate(95.410156 0)"/>
      </g>
     </g>
    </g>
    <g id="ytick_6">
     <g id="line2d_42">
      <g>
       <use xlink:href="#me34fe3fe07" x="43.78125" y="97.629545" style="stroke: #000000; stroke-width: 0.8"/>
      </g>
     </g>
     <g id="text_11">
      <!-- 2.5 -->
      <g transform="translate(20.878125 101.428764) scale(0.1 -0.1)">
       <use xlink:href="#DejaVuSans-32"/>
       <use xlink:href="#DejaVuSans-2e" transform="translate(63.623047 0)"/>
       <use xlink:href="#DejaVuSans-35" transform="translate(95.410156 0)"/>
      </g>
     </g>
    </g>
    <g id="ytick_7">
     <g id="line2d_43">
      <g>
       <use xlink:href="#me34fe3fe07" x="43.78125" y="55.097884" style="stroke: #000000; stroke-width: 0.8"/>
      </g>
     </g>
     <g id="text_12">
      <!-- 3.0 -->
      <g transform="translate(20.878125 58.897102) scale(0.1 -0.1)">
       <use xlink:href="#DejaVuSans-33"/>
       <use xlink:href="#DejaVuSans-2e" transform="translate(63.623047 0)"/>
       <use xlink:href="#DejaVuSans-30" transform="translate(95.410156 0)"/>
      </g>
     </g>
    </g>
    <g id="text_13">
     <!-- Density -->
     <g transform="translate(14.798438 199.83252) rotate(-90) scale(0.1 -0.1)">
      <defs>
       <path id="DejaVuSans-79" d="M 2059 -325 
Q 1816 -950 1584 -1140 
Q 1353 -1331 966 -1331 
L 506 -1331 
L 506 -850 
L 844 -850 
Q 1081 -850 1212 -737 
Q 1344 -625 1503 -206 
L 1606 56 
L 191 3500 
L 800 3500 
L 1894 763 
L 2988 3500 
L 3597 3500 
L 2059 -325 
z
" transform="scale(0.015625)"/>
      </defs>
      <use xlink:href="#DejaVuSans-44"/>
      <use xlink:href="#DejaVuSans-65" transform="translate(77.001953 0)"/>
      <use xlink:href="#DejaVuSans-6e" transform="translate(138.525391 0)"/>
      <use xlink:href="#DejaVuSans-73" transform="translate(201.904297 0)"/>
      <use xlink:href="#DejaVuSans-69" transform="translate(254.003906 0)"/>
      <use xlink:href="#DejaVuSans-74" transform="translate(281.787109 0)"/>
      <use xlink:href="#DejaVuSans-79" transform="translate(320.996094 0)"/>
     </g>
    </g>
   </g>
   <g id="patch_120">
    <path d="M 43.78125 310.287852 
L 43.78125 51.36 
" style="fill: none; stroke: #000000; stroke-width: 0.8; stroke-linejoin: miter; stroke-linecap: square"/>
   </g>
   <g id="patch_121">
    <path d="M 494.66125 310.287852 
L 494.66125 51.36 
" style="fill: none; stroke: #000000; stroke-width: 0.8; stroke-linejoin: miter; stroke-linecap: square"/>
   </g>
   <g id="patch_122">
    <path d="M 43.78125 310.287852 
L 494.66125 310.287852 
" style="fill: none; stroke: #000000; stroke-width: 0.8; stroke-linejoin: miter; stroke-linecap: square"/>
   </g>
   <g id="patch_123">
    <path d="M 43.78125 51.36 
L 494.66125 51.36 
" style="fill: none; stroke: #000000; stroke-width: 0.8; stroke-linejoin: miter; stroke-linecap: square"/>
   </g>
   <g id="text_14">
    <!-- Duration Distribution (&gt; 0s, clipped at 99th pct) -->
    <g transform="translate(125.22125 45.36) scale(0.12 -0.12)">
     <defs>
      <path id="DejaVuSans-62" d="M 3116 1747 
Q 3116 2381 2855 2742 
Q 2594 3103 2138 3103 
Q 1681 3103 1420 2742 
Q 1159 2381 1159 1747 
Q 1159 1113 1420 752 
Q 1681 391 2138 391 
Q 2594 391 2855 752 
Q 3116 1113 3116 1747 
z
M 1159 2969 
Q 1341 3281 1617 3432 
Q 1894 3584 2278 3584 
Q 2916 3584 3314 3078 
Q 3713 2572 3713 1747 
Q 3713 922 3314 415 
Q 2916 -91 2278 -91 
Q 1894 -91 1617 61 
Q 1341 213 1159 525 
L 1159 0 
L 581 0 
L 581 4863 
L 1159 4863 
L 1159 2969 
z
" transform="scale(0.015625)"/>
      <path id="DejaVuSans-3e" d="M 678 3150 
L 678 3719 
L 4684 2266 
L 4684 1747 
L 678 294 
L 678 863 
L 3897 2003 
L 678 3150 
z
" transform="scale(0.015625)"/>
      <path id="DejaVuSans-70" d="M 1159 525 
L 1159 -1331 
L 581 -1331 
L 581 3500 
L 1159 3500 
L 1159 2969 
Q 1341 3281 1617 3432 
Q 1894 3584 2278 3584 
Q 2916 3584 3314 3078 
Q 3713 2572 3713 1747 
Q 3713 922 3314 415 
Q 2916 -91 2278 -91 
Q 1894 -91 1617 61 
Q 1341 213 1159 525 
z
M 3116 1747 
Q 3116 2381 2855 2742 
Q 2594 3103 2138 3103 
Q 1681 3103 1420 2742 
Q 1159 2381 1159 1747 
Q 1159 1113 1420 752 
Q 1681 391 2138 391 
Q 2594 391 2855 752 
Q 3116 1113 3116 1747 
z
" transform="scale(0.015625)"/>
      <path id="DejaVuSans-39" d="M 703 97 
L 703 672 
Q 941 559 1184 500 
Q 1428 441 1663 441 
Q 2288 441 2617 861 
Q 2947 1281 2994 2138 
Q 2813 1869 2534 1725 
Q 2256 1581 1919 1581 
Q 1219 1581 811 2004 
Q 403 2428 403 3163 
Q 403 3881 828 4315 
Q 1253 4750 1959 4750 
Q 2769 4750 3195 4129 
Q 3622 3509 3622 2328 
Q 3622 1225 3098 567 
Q 2575 -91 1691 -91 
Q 1453 -91 1209 -44 
Q 966 3 703 97 
z
M 1959 2075 
Q 2384 2075 2632 2365 
Q 2881 2656 2881 3163 
Q 2881 3666 2632 3958 
Q 2384 4250 1959 4250 
Q 1534 4250 1286 3958 
Q 1038 3666 1038 3163 
Q 1038 2656 1286 2365 
Q 1534 2075 1959 2075 
z
" transform="scale(0.015625)"/>
      <path id="DejaVuSans-68" d="M 3513 2113 
L 3513 0 
L 2938 0 
L 2938 2094 
Q 2938 2591 2744 2837 
Q 2550 3084 2163 3084 
Q 1697 3084 1428 2787 
Q 1159 2491 1159 1978 
L 1159 0 
L 581 0 
L 581 4863 
L 1159 4863 
L 1159 2956 
Q 1366 3272 1645 3428 
Q 1925 3584 2291 3584 
Q 2894 3584 3203 3211 
Q 3513 2838 3513 2113 
z
" transform="scale(0.015625)"/>
     </defs>
     <use xlink:href="#DejaVuSans-44"/>
     <use xlink:href="#DejaVuSans-75" transform="translate(77.001953 0)"/>
     <use xlink:href="#DejaVuSans-72" transform="translate(140.380859 0)"/>
     <use xlink:href="#DejaVuSans-61" transform="translate(181.494141 0)"/>
     <use xlink:href="#DejaVuSans-74" transform="translate(242.773438 0)"/>
     <use xlink:href="#DejaVuSans-69" transform="translate(281.982422 0)"/>
     <use xlink:href="#DejaVuSans-6f" transform="translate(309.765625 0)"/>
     <use xlink:href="#DejaVuSans-6e" transform="translate(370.947266 0)"/>
     <use xlink:href="#DejaVuSans-20" transform="translate(434.326172 0)"/>
     <use xlink:href="#DejaVuSans-44" transform="translate(466.113281 0)"/>
     <use xlink:href="#DejaVuSans-69" transform="translate(543.115234 0)"/>
     <use xlink:href="#DejaVuSans-73" transform="translate(570.898438 0)"/>
     <use xlink:href="#DejaVuSans-74" transform="translate(622.998047 0)"/>
     <use xlink:href="#DejaVuSans-72" transform="translate(662.207031 0)"/>
     <use xlink:href="#DejaVuSans-69" transform="translate(703.320312 0)"/>
     <use xlink:href="#DejaVuSans-62" transform="translate(731.103516 0)"/>
     <use xlink:href="#DejaVuSans-75" transform="translate(794.580078 0)"/>
     <use xlink:href="#DejaVuSans-74" transform="translate(857.958984 0)"/>
     <use xlink:href="#DejaVuSans-69" transform="translate(897.167969 0)"/>
     <use xlink:href="#DejaVuSans-6f" transform="translate(924.951172 0)"/>
     <use xlink:href="#DejaVuSans-6e" transform="translate(986.132812 0)"/>
     <use xlink:href="#DejaVuSans-20" transform="translate(1049.511719 0)"/>
     <use xlink:href="#DejaVuSans-28" transform="translate(1081.298828 0)"/>
     <use xlink:href="#DejaVuSans-3e" transform="translate(1120.3125 0)"/>
     <use xlink:href="#DejaVuSans-20" transform="translate(1204.101562 0)"/>
     <use xlink:href="#DejaVuSans-30" transform="translate(1235.888672 0)"/>
     <use xlink:href="#DejaVuSans-73" transform="translate(1299.511719 0)"/>
     <use xlink:href="#DejaVuSans-2c" transform="translate(1351.611328 0)"/>
     <use xlink:href="#DejaVuSans-20" transform="translate(1383.398438 0)"/>
     <use xlink:href="#DejaVuSans-63" transform="translate(1415.185547 0)"/>
     <use xlink:href="#DejaVuSans-6c" transform="translate(1470.166016 0)"/>
     <use xlink:href="#DejaVuSans-69" transform="translate(1497.949219 0)"/>
     <use xlink:href="#DejaVuSans-70" transform="translate(1525.732422 0)"/>
     <use xlink:href="#DejaVuSans-70" transform="translate(1589.208984 0)"/>
     <use xlink:href="#DejaVuSans-65" transform="translate(1652.685547 0)"/>
     <use xlink:href="#DejaVuSans-64" transform="translate(1714.208984 0)"/>
     <use xlink:href="#DejaVuSans-20" transform="translate(1777.685547 0)"/>
     <use xlink:href="#DejaVuSans-61" transform="translate(1809.472656 0)"/>
     <use xlink:href="#DejaVuSans-74" transform="translate(1870.751953 0)"/>
     <use xlink:href="#DejaVuSans-20" transform="translate(1909.960938 0)"/>
     <use xlink:href="#DejaVuSans-39" transform="translate(1941.748047 0)"/>
     <use xlink:href="#DejaVuSans-39" transform="translate(2005.371094 0)"/>
     <use xlink:href="#DejaVuSans-74" transform="translate(2068.994141 0)"/>
     <use xlink:href="#DejaVuSans-68" transform="translate(2108.203125 0)"/>
     <use xlink:href="#DejaVuSans-20" transform="translate(2171.582031 0)"/>
     <use xlink:href="#DejaVuSans-70" transform="translate(2203.369141 0)"/>
     <use xlink:href="#DejaVuSans-63" transform="translate(2266.845703 0)"/>
     <use xlink:href="#DejaVuSans-74" transform="translate(2321.826172 0)"/>
     <use xlink:href="#DejaVuSans-29" transform="translate(2361.035156 0)"/>
    </g>
   </g>
   <g id="legend_1">
    <g id="patch_124">
     <path d="M 370.0425 103.394375 
L 487.66125 103.394375 
Q 489.66125 103.394375 489.66125 101.394375 
L 489.66125 58.36 
Q 489.66125 56.36 487.66125 56.36 
L 370.0425 56.36 
Q 368.0425 56.36 368.0425 58.36 
L 368.0425 101.394375 
Q 368.0425 103.394375 370.0425 103.394375 
z
" style="fill: #ffffff; opacity: 0.8; stroke: #cccccc; stroke-linejoin: miter"/>
    </g>
    <g id="patch_125">
     <path d="M 372.0425 67.958437 
L 392.0425 67.958437 
L 392.0425 60.958437 
L 372.0425 60.958437 
z
" style="fill: #2ecc71; opacity: 0.5"/>
    </g>
    <g id="text_15">
     <!-- Normal traffic -->
     <g transform="translate(400.0425 67.958437) scale(0.1 -0.1)">
      <defs>
       <path id="DejaVuSans-4e" d="M 628 4666 
L 1478 4666 
L 3547 763 
L 3547 4666 
L 4159 4666 
L 4159 0 
L 3309 0 
L 1241 3903 
L 1241 0 
L 628 0 
L 628 4666 
z
" transform="scale(0.015625)"/>
       <path id="DejaVuSans-6d" d="M 3328 2828 
Q 3544 3216 3844 3400 
Q 4144 3584 4550 3584 
Q 5097 3584 5394 3201 
Q 5691 2819 5691 2113 
L 5691 0 
L 5113 0 
L 5113 2094 
Q 5113 2597 4934 2840 
Q 4756 3084 4391 3084 
Q 3944 3084 3684 2787 
Q 3425 2491 3425 1978 
L 3425 0 
L 2847 0 
L 2847 2094 
Q 2847 2600 2669 2842 
Q 2491 3084 2119 3084 
Q 1678 3084 1418 2786 
Q 1159 2488 1159 1978 
L 1159 0 
L 581 0 
L 581 3500 
L 1159 3500 
L 1159 2956 
Q 1356 3278 1631 3431 
Q 1906 3584 2284 3584 
Q 2666 3584 2933 3390 
Q 3200 3197 3328 2828 
z
" transform="scale(0.015625)"/>
       <path id="DejaVuSans-66" d="M 2375 4863 
L 2375 4384 
L 1825 4384 
Q 1516 4384 1395 4259 
Q 1275 4134 1275 3809 
L 1275 3500 
L 2222 3500 
L 2222 3053 
L 1275 3053 
L 1275 0 
L 697 0 
L 697 3053 
L 147 3053 
L 147 3500 
L 697 3500 
L 697 3744 
Q 697 4328 969 4595 
Q 1241 4863 1831 4863 
L 2375 4863 
z
" transform="scale(0.015625)"/>
      </defs>
      <use xlink:href="#DejaVuSans-4e"/>
      <use xlink:href="#DejaVuSans-6f" transform="translate(74.804688 0)"/>
      <use xlink:href="#DejaVuSans-72" transform="translate(135.986328 0)"/>
      <use xlink:href="#DejaVuSans-6d" transform="translate(175.349609 0)"/>
      <use xlink:href="#DejaVuSans-61" transform="translate(272.761719 0)"/>
      <use xlink:href="#DejaVuSans-6c" transform="translate(334.041016 0)"/>
      <use xlink:href="#DejaVuSans-20" transform="translate(361.824219 0)"/>
      <use xlink:href="#DejaVuSans-74" transform="translate(393.611328 0)"/>
      <use xlink:href="#DejaVuSans-72" transform="translate(432.820312 0)"/>
      <use xlink:href="#DejaVuSans-61" transform="translate(473.933594 0)"/>
      <use xlink:href="#DejaVuSans-66" transform="translate(535.212891 0)"/>
      <use xlink:href="#DejaVuSans-66" transform="translate(570.417969 0)"/>
      <use xlink:href="#DejaVuSans-69" transform="translate(605.623047 0)"/>
      <use xlink:href="#DejaVuSans-63" transform="translate(633.40625 0)"/>
     </g>
    </g>
    <g id="patch_126">
     <path d="M 372.0425 82.636562 
L 392.0425 82.636562 
L 392.0425 75.636562 
L 372.0425 75.636562 
z
" style="fill: #f39c12; opacity: 0.5"/>
    </g>
    <g id="text_16">
     <!-- Suspicious traffic -->
     <g transform="translate(400.0425 82.636562) scale(0.1 -0.1)">
      <defs>
       <path id="DejaVuSans-53" d="M 3425 4513 
L 3425 3897 
Q 3066 4069 2747 4153 
Q 2428 4238 2131 4238 
Q 1616 4238 1336 4038 
Q 1056 3838 1056 3469 
Q 1056 3159 1242 3001 
Q 1428 2844 1947 2747 
L 2328 2669 
Q 3034 2534 3370 2195 
Q 3706 1856 3706 1288 
Q 3706 609 3251 259 
Q 2797 -91 1919 -91 
Q 1588 -91 1214 -16 
Q 841 59 441 206 
L 441 856 
Q 825 641 1194 531 
Q 1563 422 1919 422 
Q 2459 422 2753 634 
Q 3047 847 3047 1241 
Q 3047 1584 2836 1778 
Q 2625 1972 2144 2069 
L 1759 2144 
Q 1053 2284 737 2584 
Q 422 2884 422 3419 
Q 422 4038 858 4394 
Q 1294 4750 2059 4750 
Q 2388 4750 2728 4690 
Q 3069 4631 3425 4513 
z
" transform="scale(0.015625)"/>
      </defs>
      <use xlink:href="#DejaVuSans-53"/>
      <use xlink:href="#DejaVuSans-75" transform="translate(63.476562 0)"/>
      <use xlink:href="#DejaVuSans-73" transform="translate(126.855469 0)"/>
      <use xlink:href="#DejaVuSans-70" transform="translate(178.955078 0)"/>
      <use xlink:href="#DejaVuSans-69" transform="translate(242.431641 0)"/>
      <use xlink:href="#DejaVuSans-63" transform="translate(270.214844 0)"/>
      <use xlink:href="#DejaVuSans-69" transform="translate(325.195312 0)"/>
      <use xlink:href="#DejaVuSans-6f" transform="translate(352.978516 0)"/>
      <use xlink:href="#DejaVuSans-75" transform="translate(414.160156 0)"/>
      <use xlink:href="#DejaVuSans-73" transform="translate(477.539062 0)"/>
      <use xlink:href="#DejaVuSans-20" transform="translate(529.638672 0)"/>
      <use xlink:href="#DejaVuSans-74" transform="translate(561.425781 0)"/>
      <use xlink:href="#DejaVuSans-72" transform="translate(600.634766 0)"/>
      <use xlink:href="#DejaVuSans-61" transform="translate(641.748047 0)"/>
      <use xlink:href="#DejaVuSans-66" transform="translate(703.027344 0)"/>
      <use xlink:href="#DejaVuSans-66" transform="translate(738.232422 0)"/>
      <use xlink:href="#DejaVuSans-69" transform="translate(773.4375 0)"/>
      <use xlink:href="#DejaVuSans-63" transform="translate(801.220703 0)"/>
     </g>
    </g>
    <g id="patch_127">
     <path d="M 372.0425 97.314687 
L 392.0425 97.314687 
L 392.0425 90.314687 
L 372.0425 90.314687 
z
" style="fill: #e74c3c; opacity: 0.5"/>
    </g>
    <g id="text_17">
     <!-- DDoS attack -->
     <g transform="translate(400.0425 97.314687) scale(0.1 -0.1)">
      <defs>
       <path id="DejaVuSans-6b" d="M 581 4863 
L 1159 4863 
L 1159 1991 
L 2875 3500 
L 3609 3500 
L 1753 1863 
L 3688 0 
L 2938 0 
L 1159 1709 
L 1159 0 
L 581 0 
L 581 4863 
z
" transform="scale(0.015625)"/>
      </defs>
      <use xlink:href="#DejaVuSans-44"/>
      <use xlink:href="#DejaVuSans-44" transform="translate(77.001953 0)"/>
      <use xlink:href="#DejaVuSans-6f" transform="translate(154.003906 0)"/>
      <use xlink:href="#DejaVuSans-53" transform="translate(215.185547 0)"/>
      <use xlink:href="#DejaVuSans-20" transform="translate(278.662109 0)"/>
      <use xlink:href="#DejaVuSans-61" transform="translate(310.449219 0)"/>
      <use xlink:href="#DejaVuSans-74" transform="translate(371.728516 0)"/>
      <use xlink:href="#DejaVuSans-74" transform="translate(410.9375 0)"/>
      <use xlink:href="#DejaVuSans-61" transform="translate(450.146484 0)"/>
      <use xlink:href="#DejaVuSans-63" transform="translate(511.425781 0)"/>
      <use xlink:href="#DejaVuSans-6b" transform="translate(566.40625 0)"/>
     </g>
    </g>
   </g>
  </g>
  <g id="axes_2">
   <g id="patch_128">
    <path d="M 542.38125 310.287852 
L 993.26125 310.287852 
L 993.26125 51.36 
L 542.38125 51.36 
z
" style="fill: #ffffff"/>
   </g>
   <g id="patch_129">
    <path d="M 562.875795 310.287852 
L 679.987484 310.287852 
L 679.987484 248.638363 
L 562.875795 248.638363 
z
" clip-path="url(#pa412e97bb5)" style="fill: #2ecc71"/>
   </g>
   <g id="patch_130">
    <path d="M 709.265406 310.287852 
L 826.377094 310.287852 
L 826.377094 248.638363 
L 709.265406 248.638363 
z
" clip-path="url(#pa412e97bb5)" style="fill: #f39c12"/>
   </g>
   <g id="patch_131">
    <path d="M 855.655016 310.287852 
L 972.766705 310.287852 
L 972.766705 63.689898 
L 855.655016 63.689898 
z
" clip-path="url(#pa412e97bb5)" style="fill: #e74c3c"/>
   </g>
   <g id="matplotlib.axis_3">
    <g id="xtick_37">
     <g id="line2d_44">
      <g>
       <use xlink:href="#m57925ab449" x="621.43164" y="310.287852" style="stroke: #000000; stroke-width: 0.8"/>
      </g>
     </g>
     <g id="text_18">
      <!-- Normal traffic -->
      <g transform="translate(588.899859 342.443835) rotate(-15) scale(0.1 -0.1)">
       <use xlink:href="#DejaVuSans-4e"/>
       <use xlink:href="#DejaVuSans-6f" transform="translate(74.804688 0)"/>
       <use xlink:href="#DejaVuSans-72" transform="translate(135.986328 0)"/>
       <use xlink:href="#DejaVuSans-6d" transform="translate(175.349609 0)"/>
       <use xlink:href="#DejaVuSans-61" transform="translate(272.761719 0)"/>
       <use xlink:href="#DejaVuSans-6c" transform="translate(334.041016 0)"/>
       <use xlink:href="#DejaVuSans-20" transform="translate(361.824219 0)"/>
       <use xlink:href="#DejaVuSans-74" transform="translate(393.611328 0)"/>
       <use xlink:href="#DejaVuSans-72" transform="translate(432.820312 0)"/>
       <use xlink:href="#DejaVuSans-61" transform="translate(473.933594 0)"/>
       <use xlink:href="#DejaVuSans-66" transform="translate(535.212891 0)"/>
       <use xlink:href="#DejaVuSans-66" transform="translate(570.417969 0)"/>
       <use xlink:href="#DejaVuSans-69" transform="translate(605.623047 0)"/>
       <use xlink:href="#DejaVuSans-63" transform="translate(633.40625 0)"/>
      </g>
     </g>
    </g>
    <g id="xtick_38">
     <g id="line2d_45">
      <g>
       <use xlink:href="#m57925ab449" x="767.82125" y="310.287852" style="stroke: #000000; stroke-width: 0.8"/>
      </g>
     </g>
     <g id="text_19">
      <!-- Suspicious traffic -->
      <g transform="translate(727.184748 346.787142) rotate(-15) scale(0.1 -0.1)">
       <use xlink:href="#DejaVuSans-53"/>
       <use xlink:href="#DejaVuSans-75" transform="translate(63.476562 0)"/>
       <use xlink:href="#DejaVuSans-73" transform="translate(126.855469 0)"/>
       <use xlink:href="#DejaVuSans-70" transform="translate(178.955078 0)"/>
       <use xlink:href="#DejaVuSans-69" transform="translate(242.431641 0)"/>
       <use xlink:href="#DejaVuSans-63" transform="translate(270.214844 0)"/>
       <use xlink:href="#DejaVuSans-69" transform="translate(325.195312 0)"/>
       <use xlink:href="#DejaVuSans-6f" transform="translate(352.978516 0)"/>
       <use xlink:href="#DejaVuSans-75" transform="translate(414.160156 0)"/>
       <use xlink:href="#DejaVuSans-73" transform="translate(477.539062 0)"/>
       <use xlink:href="#DejaVuSans-20" transform="translate(529.638672 0)"/>
       <use xlink:href="#DejaVuSans-74" transform="translate(561.425781 0)"/>
       <use xlink:href="#DejaVuSans-72" transform="translate(600.634766 0)"/>
       <use xlink:href="#DejaVuSans-61" transform="translate(641.748047 0)"/>
       <use xlink:href="#DejaVuSans-66" transform="translate(703.027344 0)"/>
       <use xlink:href="#DejaVuSans-66" transform="translate(738.232422 0)"/>
       <use xlink:href="#DejaVuSans-69" transform="translate(773.4375 0)"/>
       <use xlink:href="#DejaVuSans-63" transform="translate(801.220703 0)"/>
      </g>
     </g>
    </g>
    <g id="xtick_39">
     <g id="line2d_46">
      <g>
       <use xlink:href="#m57925ab449" x="914.21086" y="310.287852" style="stroke: #000000; stroke-width: 0.8"/>
      </g>
     </g>
     <g id="text_20">
      <!-- DDoS attack -->
      <g transform="translate(884.773061 340.785775) rotate(-15) scale(0.1 -0.1)">
       <use xlink:href="#DejaVuSans-44"/>
       <use xlink:href="#DejaVuSans-44" transform="translate(77.001953 0)"/>
       <use xlink:href="#DejaVuSans-6f" transform="translate(154.003906 0)"/>
       <use xlink:href="#DejaVuSans-53" transform="translate(215.185547 0)"/>
       <use xlink:href="#DejaVuSans-20" transform="translate(278.662109 0)"/>
       <use xlink:href="#DejaVuSans-61" transform="translate(310.449219 0)"/>
       <use xlink:href="#DejaVuSans-74" transform="translate(371.728516 0)"/>
       <use xlink:href="#DejaVuSans-74" transform="translate(410.9375 0)"/>
       <use xlink:href="#DejaVuSans-61" transform="translate(450.146484 0)"/>
       <use xlink:href="#DejaVuSans-63" transform="translate(511.425781 0)"/>
       <use xlink:href="#DejaVuSans-6b" transform="translate(566.40625 0)"/>
      </g>
     </g>
    </g>
   </g>
   <g id="matplotlib.axis_4">
    <g id="ytick_8">
     <g id="line2d_47">
      <g>
       <use xlink:href="#me34fe3fe07" x="542.38125" y="310.287852" style="stroke: #000000; stroke-width: 0.8"/>
      </g>
     </g>
     <g id="text_21">
      <!-- 0.0 -->
      <g transform="translate(519.478125 314.087071) scale(0.1 -0.1)">
       <use xlink:href="#DejaVuSans-30"/>
       <use xlink:href="#DejaVuSans-2e" transform="translate(63.623047 0)"/>
       <use xlink:href="#DejaVuSans-30" transform="translate(95.410156 0)"/>
      </g>
     </g>
    </g>
    <g id="ytick_9">
     <g id="line2d_48">
      <g>
       <use xlink:href="#me34fe3fe07" x="542.38125" y="279.463108" style="stroke: #000000; stroke-width: 0.8"/>
      </g>
     </g>
     <g id="text_22">
      <!-- 0.5 -->
      <g transform="translate(519.478125 283.262326) scale(0.1 -0.1)">
       <use xlink:href="#DejaVuSans-30"/>
       <use xlink:href="#DejaVuSans-2e" transform="translate(63.623047 0)"/>
       <use xlink:href="#DejaVuSans-35" transform="translate(95.410156 0)"/>
      </g>
     </g>
    </g>
    <g id="ytick_10">
     <g id="line2d_49">
      <g>
       <use xlink:href="#me34fe3fe07" x="542.38125" y="248.638363" style="stroke: #000000; stroke-width: 0.8"/>
      </g>
     </g>
     <g id="text_23">
      <!-- 1.0 -->
      <g transform="translate(519.478125 252.437582) scale(0.1 -0.1)">
       <use xlink:href="#DejaVuSans-31"/>
       <use xlink:href="#DejaVuSans-2e" transform="translate(63.623047 0)"/>
       <use xlink:href="#DejaVuSans-30" transform="translate(95.410156 0)"/>
      </g>
     </g>
    </g>
    <g id="ytick_11">
     <g id="line2d_50">
      <g>
       <use xlink:href="#me34fe3fe07" x="542.38125" y="217.813619" style="stroke: #000000; stroke-width: 0.8"/>
      </g>
     </g>
     <g id="text_24">
      <!-- 1.5 -->
      <g transform="translate(519.478125 221.612838) scale(0.1 -0.1)">
       <use xlink:href="#DejaVuSans-31"/>
       <use xlink:href="#DejaVuSans-2e" transform="translate(63.623047 0)"/>
       <use xlink:href="#DejaVuSans-35" transform="translate(95.410156 0)"/>
      </g>
     </g>
    </g>
    <g id="ytick_12">
     <g id="line2d_51">
      <g>
       <use xlink:href="#me34fe3fe07" x="542.38125" y="186.988875" style="stroke: #000000; stroke-width: 0.8"/>
      </g>
     </g>
     <g id="text_25">
      <!-- 2.0 -->
      <g transform="translate(519.478125 190.788094) scale(0.1 -0.1)">
       <use xlink:href="#DejaVuSans-32"/>
       <use xlink:href="#DejaVuSans-2e" transform="translate(63.623047 0)"/>
       <use xlink:href="#DejaVuSans-30" transform="translate(95.410156 0)"/>
      </g>
     </g>
    </g>
    <g id="ytick_13">
     <g id="line2d_52">
      <g>
       <use xlink:href="#me34fe3fe07" x="542.38125" y="156.164131" style="stroke: #000000; stroke-width: 0.8"/>
      </g>
     </g>
     <g id="text_26">
      <!-- 2.5 -->
      <g transform="translate(519.478125 159.963349) scale(0.1 -0.1)">
       <use xlink:href="#DejaVuSans-32"/>
       <use xlink:href="#DejaVuSans-2e" transform="translate(63.623047 0)"/>
       <use xlink:href="#DejaVuSans-35" transform="translate(95.410156 0)"/>
      </g>
     </g>
    </g>
    <g id="ytick_14">
     <g id="line2d_53">
      <g>
       <use xlink:href="#me34fe3fe07" x="542.38125" y="125.339386" style="stroke: #000000; stroke-width: 0.8"/>
      </g>
     </g>
     <g id="text_27">
      <!-- 3.0 -->
      <g transform="translate(519.478125 129.138605) scale(0.1 -0.1)">
       <use xlink:href="#DejaVuSans-33"/>
       <use xlink:href="#DejaVuSans-2e" transform="translate(63.623047 0)"/>
       <use xlink:href="#DejaVuSans-30" transform="translate(95.410156 0)"/>
      </g>
     </g>
    </g>
    <g id="ytick_15">
     <g id="line2d_54">
      <g>
       <use xlink:href="#me34fe3fe07" x="542.38125" y="94.514642" style="stroke: #000000; stroke-width: 0.8"/>
      </g>
     </g>
     <g id="text_28">
      <!-- 3.5 -->
      <g transform="translate(519.478125 98.313861) scale(0.1 -0.1)">
       <use xlink:href="#DejaVuSans-33"/>
       <use xlink:href="#DejaVuSans-2e" transform="translate(63.623047 0)"/>
       <use xlink:href="#DejaVuSans-35" transform="translate(95.410156 0)"/>
      </g>
     </g>
    </g>
    <g id="ytick_16">
     <g id="line2d_55">
      <g>
       <use xlink:href="#me34fe3fe07" x="542.38125" y="63.689898" style="stroke: #000000; stroke-width: 0.8"/>
      </g>
     </g>
     <g id="text_29">
      <!-- 4.0 -->
      <g transform="translate(519.478125 67.489116) scale(0.1 -0.1)">
       <defs>
        <path id="DejaVuSans-34" d="M 2419 4116 
L 825 1625 
L 2419 1625 
L 2419 4116 
z
M 2253 4666 
L 3047 4666 
L 3047 1625 
L 3713 1625 
L 3713 1100 
L 3047 1100 
L 3047 0 
L 2419 0 
L 2419 1100 
L 313 1100 
L 313 1709 
L 2253 4666 
z
" transform="scale(0.015625)"/>
       </defs>
       <use xlink:href="#DejaVuSans-34"/>
       <use xlink:href="#DejaVuSans-2e" transform="translate(63.623047 0)"/>
       <use xlink:href="#DejaVuSans-30" transform="translate(95.410156 0)"/>
      </g>
     </g>
    </g>
    <g id="text_30">
     <!-- Seconds -->
     <g transform="translate(513.398438 201.830957) rotate(-90) scale(0.1 -0.1)">
      <use xlink:href="#DejaVuSans-53"/>
      <use xlink:href="#DejaVuSans-65" transform="translate(63.476562 0)"/>
      <use xlink:href="#DejaVuSans-63" transform="translate(125 0)"/>
      <use xlink:href="#DejaVuSans-6f" transform="translate(179.980469 0)"/>
      <use xlink:href="#DejaVuSans-6e" transform="translate(241.162109 0)"/>
      <use xlink:href="#DejaVuSans-64" transform="translate(304.541016 0)"/>
      <use xlink:href="#DejaVuSans-73" transform="translate(368.017578 0)"/>
     </g>
    </g>
   </g>
   <g id="patch_132">
    <path d="M 542.38125 310.287852 
L 542.38125 51.36 
" style="fill: none; stroke: #000000; stroke-width: 0.8; stroke-linejoin: miter; stroke-linecap: square"/>
   </g>
   <g id="patch_133">
    <path d="M 993.26125 310.287852 
L 993.26125 51.36 
" style="fill: none; stroke: #000000; stroke-width: 0.8; stroke-linejoin: miter; stroke-linecap: square"/>
   </g>
   <g id="patch_134">
    <path d="M 542.38125 310.287852 
L 993.26125 310.287852 
" style="fill: none; stroke: #000000; stroke-width: 0.8; stroke-linejoin: miter; stroke-linecap: square"/>
   </g>
   <g id="patch_135">
    <path d="M 542.38125 51.36 
L 993.26125 51.36 
" style="fill: none; stroke: #000000; stroke-width: 0.8; stroke-linejoin: miter; stroke-linecap: square"/>
   </g>
   <g id="text_31">
    <!-- 1s -->
    <g transform="translate(614.976952 246.558676) scale(0.1 -0.1)">
     <defs>
      <path id="DejaVuSans-Bold-31" d="M 750 831 
L 1813 831 
L 1813 3847 
L 722 3622 
L 722 4441 
L 1806 4666 
L 2950 4666 
L 2950 831 
L 4013 831 
L 4013 0 
L 750 0 
L 750 831 
z
" transform="scale(0.015625)"/>
      <path id="DejaVuSans-Bold-73" d="M 3272 3391 
L 3272 2541 
Q 2913 2691 2578 2766 
Q 2244 2841 1947 2841 
Q 1628 2841 1473 2761 
Q 1319 2681 1319 2516 
Q 1319 2381 1436 2309 
Q 1553 2238 1856 2203 
L 2053 2175 
Q 2913 2066 3209 1816 
Q 3506 1566 3506 1031 
Q 3506 472 3093 190 
Q 2681 -91 1863 -91 
Q 1516 -91 1145 -36 
Q 775 19 384 128 
L 384 978 
Q 719 816 1070 734 
Q 1422 653 1784 653 
Q 2113 653 2278 743 
Q 2444 834 2444 1013 
Q 2444 1163 2330 1236 
Q 2216 1309 1875 1350 
L 1678 1375 
Q 931 1469 631 1722 
Q 331 1975 331 2491 
Q 331 3047 712 3315 
Q 1094 3584 1881 3584 
Q 2191 3584 2531 3537 
Q 2872 3491 3272 3391 
z
" transform="scale(0.015625)"/>
     </defs>
     <use xlink:href="#DejaVuSans-Bold-31"/>
     <use xlink:href="#DejaVuSans-Bold-73" transform="translate(69.580078 0)"/>
    </g>
   </g>
   <g id="text_32">
    <!-- 1s -->
    <g transform="translate(761.366562 246.558676) scale(0.1 -0.1)">
     <use xlink:href="#DejaVuSans-Bold-31"/>
     <use xlink:href="#DejaVuSans-Bold-73" transform="translate(69.580078 0)"/>
    </g>
   </g>
   <g id="text_33">
    <!-- 4s -->
    <g transform="translate(907.756173 61.61021) scale(0.1 -0.1)">
     <defs>
      <path id="DejaVuSans-Bold-34" d="M 2356 3675 
L 1038 1722 
L 2356 1722 
L 2356 3675 
z
M 2156 4666 
L 3494 4666 
L 3494 1722 
L 4159 1722 
L 4159 850 
L 3494 850 
L 3494 0 
L 2356 0 
L 2356 850 
L 288 850 
L 288 1881 
L 2156 4666 
z
" transform="scale(0.015625)"/>
     </defs>
     <use xlink:href="#DejaVuSans-Bold-34"/>
     <use xlink:href="#DejaVuSans-Bold-73" transform="translate(69.580078 0)"/>
    </g>
   </g>
   <g id="text_34">
    <!-- Median Event Duration by Type -->
    <g transform="translate(673.982188 45.36) scale(0.12 -0.12)">
     <defs>
      <path id="DejaVuSans-4d" d="M 628 4666 
L 1569 4666 
L 2759 1491 
L 3956 4666 
L 4897 4666 
L 4897 0 
L 4281 0 
L 4281 4097 
L 3078 897 
L 2444 897 
L 1241 4097 
L 1241 0 
L 628 0 
L 628 4666 
z
" transform="scale(0.015625)"/>
      <path id="DejaVuSans-45" d="M 628 4666 
L 3578 4666 
L 3578 4134 
L 1259 4134 
L 1259 2753 
L 3481 2753 
L 3481 2222 
L 1259 2222 
L 1259 531 
L 3634 531 
L 3634 0 
L 628 0 
L 628 4666 
z
" transform="scale(0.015625)"/>
      <path id="DejaVuSans-76" d="M 191 3500 
L 800 3500 
L 1894 563 
L 2988 3500 
L 3597 3500 
L 2284 0 
L 1503 0 
L 191 3500 
z
" transform="scale(0.015625)"/>
      <path id="DejaVuSans-54" d="M -19 4666 
L 3928 4666 
L 3928 4134 
L 2272 4134 
L 2272 0 
L 1638 0 
L 1638 4134 
L -19 4134 
L -19 4666 
z
" transform="scale(0.015625)"/>
     </defs>
     <use xlink:href="#DejaVuSans-4d"/>
     <use xlink:href="#DejaVuSans-65" transform="translate(86.279297 0)"/>
     <use xlink:href="#DejaVuSans-64" transform="translate(147.802734 0)"/>
     <use xlink:href="#DejaVuSans-69" transform="translate(211.279297 0)"/>
     <use xlink:href="#DejaVuSans-61" transform="translate(239.0625 0)"/>
     <use xlink:href="#DejaVuSans-6e" transform="translate(300.341797 0)"/>
     <use xlink:href="#DejaVuSans-20" transform="translate(363.720703 0)"/>
     <use xlink:href="#DejaVuSans-45" transform="translate(395.507812 0)"/>
     <use xlink:href="#DejaVuSans-76" transform="translate(458.691406 0)"/>
     <use xlink:href="#DejaVuSans-65" transform="translate(517.871094 0)"/>
     <use xlink:href="#DejaVuSans-6e" transform="translate(579.394531 0)"/>
     <use xlink:href="#DejaVuSans-74" transform="translate(642.773438 0)"/>
     <use xlink:href="#DejaVuSans-20" transform="translate(681.982422 0)"/>
     <use xlink:href="#DejaVuSans-44" transform="translate(713.769531 0)"/>
     <use xlink:href="#DejaVuSans-75" transform="translate(790.771484 0)"/>
     <use xlink:href="#DejaVuSans-72" transform="translate(854.150391 0)"/>
     <use xlink:href="#DejaVuSans-61" transform="translate(895.263672 0)"/>
     <use xlink:href="#DejaVuSans-74" transform="translate(956.542969 0)"/>
     <use xlink:href="#DejaVuSans-69" transform="translate(995.751953 0)"/>
     <use xlink:href="#DejaVuSans-6f" transform="translate(1023.535156 0)"/>
     <use xlink:href="#DejaVuSans-6e" transform="translate(1084.716797 0)"/>
     <use xlink:href="#DejaVuSans-20" transform="translate(1148.095703 0)"/>
     <use xlink:href="#DejaVuSans-62" transform="translate(1179.882812 0)"/>
     <use xlink:href="#DejaVuSans-79" transform="translate(1243.359375 0)"/>
     <use xlink:href="#DejaVuSans-20" transform="translate(1302.539062 0)"/>
     <use xlink:href="#DejaVuSans-54" transform="translate(1334.326172 0)"/>
     <use xlink:href="#DejaVuSans-79" transform="translate(1379.785156 0)"/>
     <use xlink:href="#DejaVuSans-70" transform="translate(1438.964844 0)"/>
     <use xlink:href="#DejaVuSans-65" transform="translate(1502.441406 0)"/>
    </g>
   </g>
  </g>
  <g id="text_35">
   <!-- Q4: Event Duration Analysis -->
   <g transform="translate(389.381406 17.837812) scale(0.14 -0.14)">
    <defs>
     <path id="DejaVuSans-Bold-51" d="M 2847 -84 
L 2753 -84 
Q 1600 -84 959 553 
Q 319 1191 319 2328 
Q 319 3463 958 4106 
Q 1597 4750 2719 4750 
Q 3853 4750 4486 4112 
Q 5119 3475 5119 2328 
Q 5119 1541 4783 972 
Q 4447 403 3816 116 
L 4756 -934 
L 3609 -934 
L 2847 -84 
z
M 2719 3878 
Q 2169 3878 1866 3472 
Q 1563 3066 1563 2328 
Q 1563 1578 1859 1179 
Q 2156 781 2719 781 
Q 3272 781 3575 1187 
Q 3878 1594 3878 2328 
Q 3878 3066 3575 3472 
Q 3272 3878 2719 3878 
z
" transform="scale(0.015625)"/>
     <path id="DejaVuSans-Bold-3a" d="M 716 3500 
L 1844 3500 
L 1844 2291 
L 716 2291 
L 716 3500 
z
M 716 1209 
L 1844 1209 
L 1844 0 
L 716 0 
L 716 1209 
z
" transform="scale(0.015625)"/>
     <path id="DejaVuSans-Bold-20" transform="scale(0.015625)"/>
     <path id="DejaVuSans-Bold-45" d="M 588 4666 
L 3834 4666 
L 3834 3756 
L 1791 3756 
L 1791 2888 
L 3713 2888 
L 3713 1978 
L 1791 1978 
L 1791 909 
L 3903 909 
L 3903 0 
L 588 0 
L 588 4666 
z
" transform="scale(0.015625)"/>
     <path id="DejaVuSans-Bold-76" d="M 97 3500 
L 1216 3500 
L 2088 1081 
L 2956 3500 
L 4078 3500 
L 2700 0 
L 1472 0 
L 97 3500 
z
" transform="scale(0.015625)"/>
     <path id="DejaVuSans-Bold-65" d="M 4031 1759 
L 4031 1441 
L 1416 1441 
Q 1456 1047 1700 850 
Q 1944 653 2381 653 
Q 2734 653 3104 758 
Q 3475 863 3866 1075 
L 3866 213 
Q 3469 63 3072 -14 
Q 2675 -91 2278 -91 
Q 1328 -91 801 392 
Q 275 875 275 1747 
Q 275 2603 792 3093 
Q 1309 3584 2216 3584 
Q 3041 3584 3536 3087 
Q 4031 2591 4031 1759 
z
M 2881 2131 
Q 2881 2450 2695 2645 
Q 2509 2841 2209 2841 
Q 1884 2841 1681 2658 
Q 1478 2475 1428 2131 
L 2881 2131 
z
" transform="scale(0.015625)"/>
     <path id="DejaVuSans-Bold-6e" d="M 4056 2131 
L 4056 0 
L 2931 0 
L 2931 347 
L 2931 1631 
Q 2931 2084 2911 2256 
Q 2891 2428 2841 2509 
Q 2775 2619 2662 2680 
Q 2550 2741 2406 2741 
Q 2056 2741 1856 2470 
Q 1656 2200 1656 1722 
L 1656 0 
L 538 0 
L 538 3500 
L 1656 3500 
L 1656 2988 
Q 1909 3294 2193 3439 
Q 2478 3584 2822 3584 
Q 3428 3584 3742 3212 
Q 4056 2841 4056 2131 
z
" transform="scale(0.015625)"/>
     <path id="DejaVuSans-Bold-74" d="M 1759 4494 
L 1759 3500 
L 2913 3500 
L 2913 2700 
L 1759 2700 
L 1759 1216 
Q 1759 972 1856 886 
Q 1953 800 2241 800 
L 2816 800 
L 2816 0 
L 1856 0 
Q 1194 0 917 276 
Q 641 553 641 1216 
L 641 2700 
L 84 2700 
L 84 3500 
L 641 3500 
L 641 4494 
L 1759 4494 
z
" transform="scale(0.015625)"/>
     <path id="DejaVuSans-Bold-44" d="M 1791 3756 
L 1791 909 
L 2222 909 
Q 2959 909 3348 1275 
Q 3738 1641 3738 2338 
Q 3738 3031 3350 3393 
Q 2963 3756 2222 3756 
L 1791 3756 
z
M 588 4666 
L 1856 4666 
Q 2919 4666 3439 4514 
Q 3959 4363 4331 4000 
Q 4659 3684 4818 3271 
Q 4978 2859 4978 2338 
Q 4978 1809 4818 1395 
Q 4659 981 4331 666 
Q 3956 303 3431 151 
Q 2906 0 1856 0 
L 588 0 
L 588 4666 
z
" transform="scale(0.015625)"/>
     <path id="DejaVuSans-Bold-75" d="M 500 1363 
L 500 3500 
L 1625 3500 
L 1625 3150 
Q 1625 2866 1622 2436 
Q 1619 2006 1619 1863 
Q 1619 1441 1641 1255 
Q 1663 1069 1716 984 
Q 1784 875 1895 815 
Q 2006 756 2150 756 
Q 2500 756 2700 1025 
Q 2900 1294 2900 1772 
L 2900 3500 
L 4019 3500 
L 4019 0 
L 2900 0 
L 2900 506 
Q 2647 200 2364 54 
Q 2081 -91 1741 -91 
Q 1134 -91 817 281 
Q 500 653 500 1363 
z
" transform="scale(0.015625)"/>
     <path id="DejaVuSans-Bold-72" d="M 3138 2547 
Q 2991 2616 2845 2648 
Q 2700 2681 2553 2681 
Q 2122 2681 1889 2404 
Q 1656 2128 1656 1613 
L 1656 0 
L 538 0 
L 538 3500 
L 1656 3500 
L 1656 2925 
Q 1872 3269 2151 3426 
Q 2431 3584 2822 3584 
Q 2878 3584 2943 3579 
Q 3009 3575 3134 3559 
L 3138 2547 
z
" transform="scale(0.015625)"/>
     <path id="DejaVuSans-Bold-61" d="M 2106 1575 
Q 1756 1575 1579 1456 
Q 1403 1338 1403 1106 
Q 1403 894 1545 773 
Q 1688 653 1941 653 
Q 2256 653 2472 879 
Q 2688 1106 2688 1447 
L 2688 1575 
L 2106 1575 
z
M 3816 1997 
L 3816 0 
L 2688 0 
L 2688 519 
Q 2463 200 2181 54 
Q 1900 -91 1497 -91 
Q 953 -91 614 226 
Q 275 544 275 1050 
Q 275 1666 698 1953 
Q 1122 2241 2028 2241 
L 2688 2241 
L 2688 2328 
Q 2688 2594 2478 2717 
Q 2269 2841 1825 2841 
Q 1466 2841 1156 2769 
Q 847 2697 581 2553 
L 581 3406 
Q 941 3494 1303 3539 
Q 1666 3584 2028 3584 
Q 2975 3584 3395 3211 
Q 3816 2838 3816 1997 
z
" transform="scale(0.015625)"/>
     <path id="DejaVuSans-Bold-69" d="M 538 3500 
L 1656 3500 
L 1656 0 
L 538 0 
L 538 3500 
z
M 538 4863 
L 1656 4863 
L 1656 3950 
L 538 3950 
L 538 4863 
z
" transform="scale(0.015625)"/>
     <path id="DejaVuSans-Bold-6f" d="M 2203 2784 
Q 1831 2784 1636 2517 
Q 1441 2250 1441 1747 
Q 1441 1244 1636 976 
Q 1831 709 2203 709 
Q 2569 709 2762 976 
Q 2956 1244 2956 1747 
Q 2956 2250 2762 2517 
Q 2569 2784 2203 2784 
z
M 2203 3584 
Q 3106 3584 3614 3096 
Q 4122 2609 4122 1747 
Q 4122 884 3614 396 
Q 3106 -91 2203 -91 
Q 1297 -91 786 396 
Q 275 884 275 1747 
Q 275 2609 786 3096 
Q 1297 3584 2203 3584 
z
" transform="scale(0.015625)"/>
     <path id="DejaVuSans-Bold-41" d="M 3419 850 
L 1538 850 
L 1241 0 
L 31 0 
L 1759 4666 
L 3194 4666 
L 4922 0 
L 3713 0 
L 3419 850 
z
M 1838 1716 
L 3116 1716 
L 2478 3572 
L 1838 1716 
z
" transform="scale(0.015625)"/>
     <path id="DejaVuSans-Bold-6c" d="M 538 4863 
L 1656 4863 
L 1656 0 
L 538 0 
L 538 4863 
z
" transform="scale(0.015625)"/>
     <path id="DejaVuSans-Bold-79" d="M 78 3500 
L 1197 3500 
L 2138 1125 
L 2938 3500 
L 4056 3500 
L 2584 -331 
Q 2363 -916 2067 -1148 
Q 1772 -1381 1288 -1381 
L 641 -1381 
L 641 -647 
L 991 -647 
Q 1275 -647 1404 -556 
Q 1534 -466 1606 -231 
L 1638 -134 
L 78 3500 
z
" transform="scale(0.015625)"/>
    </defs>
    <use xlink:href="#DejaVuSans-Bold-51"/>
    <use xlink:href="#DejaVuSans-Bold-34" transform="translate(85.009766 0)"/>
    <use xlink:href="#DejaVuSans-Bold-3a" transform="translate(154.589844 0)"/>
    <use xlink:href="#DejaVuSans-Bold-20" transform="translate(194.580078 0)"/>
    <use xlink:href="#DejaVuSans-Bold-45" transform="translate(229.394531 0)"/>
    <use xlink:href="#DejaVuSans-Bold-76" transform="translate(297.705078 0)"/>
    <use xlink:href="#DejaVuSans-Bold-65" transform="translate(362.890625 0)"/>
    <use xlink:href="#DejaVuSans-Bold-6e" transform="translate(430.712891 0)"/>
    <use xlink:href="#DejaVuSans-Bold-74" transform="translate(501.904297 0)"/>
    <use xlink:href="#DejaVuSans-Bold-20" transform="translate(549.707031 0)"/>
    <use xlink:href="#DejaVuSans-Bold-44" transform="translate(584.521484 0)"/>
    <use xlink:href="#DejaVuSans-Bold-75" transform="translate(667.529297 0)"/>
    <use xlink:href="#DejaVuSans-Bold-72" transform="translate(738.720703 0)"/>
    <use xlink:href="#DejaVuSans-Bold-61" transform="translate(788.037109 0)"/>
    <use xlink:href="#DejaVuSans-Bold-74" transform="translate(855.517578 0)"/>
    <use xlink:href="#DejaVuSans-Bold-69" transform="translate(903.320312 0)"/>
    <use xlink:href="#DejaVuSans-Bold-6f" transform="translate(937.597656 0)"/>
    <use xlink:href="#DejaVuSans-Bold-6e" transform="translate(1006.298828 0)"/>
    <use xlink:href="#DejaVuSans-Bold-20" transform="translate(1077.490234 0)"/>
    <use xlink:href="#DejaVuSans-Bold-41" transform="translate(1112.304688 0)"/>
    <use xlink:href="#DejaVuSans-Bold-6e" transform="translate(1189.697266 0)"/>
    <use xlink:href="#DejaVuSans-Bold-61" transform="translate(1260.888672 0)"/>
    <use xlink:href="#DejaVuSans-Bold-6c" transform="translate(1328.369141 0)"/>
    <use xlink:href="#DejaVuSans-Bold-79" transform="translate(1362.646484 0)"/>
    <use xlink:href="#DejaVuSans-Bold-73" transform="translate(1427.832031 0)"/>
    <use xlink:href="#DejaVuSans-Bold-69" transform="translate(1487.353516 0)"/>
    <use xlink:href="#DejaVuSans-Bold-73" transform="translate(1521.630859 0)"/>
   </g>
  </g>
 </g>
 <defs>
  <clipPath id="p26dcd1febb">
   <rect x="43.78125" y="51.36" width="450.88" height="258.927852"/>
  </clipPath>
  <clipPath id="pa412e97bb5">
   <rect x="542.38125" y="51.36" width="450.88" height="258.927852"/>
  </clipPath>
 </defs>
</svg>
